<?xml version="1.0" encoding="UTF-8" standalone="no"?>
<!-- Created with Inkscape (http://www.inkscape.org/) -->

<svg
   width="36.854893mm"
   height="36.854893mm"
   viewBox="0 0 36.854893 36.854893"
   version="1.1"
   id="svg5"
   xml:space="preserve"
   inkscape:version="1.2.2 (b0a8486541, 2022-12-01)"
   sodipodi:docname="logo_bezzer_site.svg"
   inkscape:export-filename="cronograma-educacional-react/frontend/public/vite.svg"
   inkscape:export-xdpi="96"
   inkscape:export-ydpi="96"
   xmlns:inkscape="http://www.inkscape.org/namespaces/inkscape"
   xmlns:sodipodi="http://sodipodi.sourceforge.net/DTD/sodipodi-0.dtd"
   xmlns="http://www.w3.org/2000/svg"
   xmlns:svg="http://www.w3.org/2000/svg"><sodipodi:namedview
     id="namedview7"
     pagecolor="#ffffff"
     bordercolor="#000000"
     borderopacity="0.25"
     inkscape:showpageshadow="2"
     inkscape:pageopacity="0.0"
     inkscape:pagecheckerboard="0"
     inkscape:deskcolor="#d1d1d1"
     inkscape:document-units="mm"
     showgrid="false"
     inkscape:zoom="3.0003928"
     inkscape:cx="63.325042"
     inkscape:cy="106.81935"
     inkscape:window-width="1854"
     inkscape:window-height="1009"
     inkscape:window-x="66"
     inkscape:window-y="1112"
     inkscape:window-maximized="1"
     inkscape:current-layer="layer1" /><defs
     id="defs2" /><g
     inkscape:label="Layer 1"
     inkscape:groupmode="layer"
     id="layer1"
     transform="translate(-113.141,-12.126369)"><path
       id="path22432"
       style="fill:#ffba0f;fill-opacity:1;stroke:none;stroke-width:0.15481;stroke-linecap:round;stroke-linejoin:round"
       d="m 131.46849,12.936982 a 17.516877,17.828249 0 0 0 -17.51678,17.828153 17.516877,17.828249 0 0 0 16.63178,17.794571 c 0.64183,-2.594981 0.32642,-4.483085 0.0901,-5.358559 a 8.8347808,11.009848 82.887771 0 1 -11.30198,-7.387968 8.8347808,11.009848 82.887771 0 1 0.25463,-3.079473 c -1.28974,-2.053452 -1.3698,-4.092924 -1.22581,-5.409522 -0.42969,-0.03659 -0.78788,-0.03066 -1.04065,-0.0154 a 1.1768542,1.1580834 0 0 1 0.002,0.06163 1.1768542,1.1580834 0 0 1 -1.17688,1.157914 1.1768542,1.1580834 0 0 1 -1.17689,-1.157914 1.1768542,1.1580834 0 0 1 1.17689,-1.158307 1.1768542,1.1580834 0 0 1 1.00223,0.551104 c 0.12521,-0.0085 0.28322,-0.0155 0.46849,-0.0162 0.23337,-8.4e-4 0.51044,0.0083 0.8194,0.03753 0.10012,-0.573567 0.22242,-0.914954 0.22242,-0.914954 2.47287,0.187184 4.00511,1.459822 4.55581,2.005707 a 8.8347808,11.009848 82.887771 0 1 3.21472,-1.644229 c -0.89491,-1.722014 -2.29821,-2.634134 -2.90343,-2.965691 a 1.1768542,1.1580834 0 0 1 -0.77903,0.290762 1.1768542,1.1580834 0 0 1 -1.1769,-1.157913 1.1768542,1.1580834 0 0 1 1.1769,-1.157914 1.1768542,1.1580834 0 0 1 1.1769,1.157914 1.1768542,1.1580834 0 0 1 -0.0764,0.408884 c 0.69688,0.401069 2.18104,1.420387 3.11924,3.256459 a 8.8347808,11.009848 82.887771 0 1 2.08246,-0.451156 8.8347808,11.009848 82.887771 0 1 1.18815,-0.09955 c 0.42549,-0.876831 2.10579,-3.941076 5.72145,-6.075983 h 3.8e-4 c 0.002,0.0011 4.96714,4.546574 3.80318,10.097668 a 8.8347808,11.009848 82.887771 0 1 1.3993,3.384062 8.8347808,11.009848 82.887771 0 1 -0.60708,4.026425 8.8347808,11.009848 82.887771 0 1 -1.73505,2.578936 c 0.27859,0.140062 0.613,0.326532 0.96574,0.557426 0.0935,-0.371867 0.42105,-1.564067 1.1008,-3.036017 0.69373,-1.502179 1.75101,-3.282955 3.29624,-4.74543 0.17387,-0.164558 0.34066,-0.308428 0.50073,-0.435749 0.70435,-0.57084 1.2795,-0.80033 1.74709,-0.813028 1.56054,-0.04239 1.92681,2.311481 1.92681,2.311481 0,0 0.1934,2.158101 -1.52662,3.808354 -0.22248,0.21347 -0.48161,0.435481 -0.76428,0.660142 -0.46806,0.375064 -1.00321,0.758398 -1.54487,1.123543 l 0.0512,0.07822 c 0.90301,0.232725 1.07538,1.332724 -0.10713,2.305949 -0.0103,0.0083 -0.0201,0.01596 -0.0303,0.0241 -0.005,0.0045 -0.011,0.0089 -0.0163,0.01343 -1.1825,0.973229 -2.3864,0.783003 -2.3864,0.783003 l 0.0279,-0.03477 -0.15838,0.02331 c 0.41252,0.658873 0.68992,1.434487 0.70413,2.33321 a 17.516877,17.828249 0 0 0 6.34064,-13.715995 17.516877,17.828249 0 0 0 -17.51677,-17.828152 z" /></g></svg>
