<?xml version="1.0" encoding="UTF-8" standalone="no"?>
<!-- Created with Inkscape (http://www.inkscape.org/) -->

<svg
   width="107.97969mm"
   height="104.87568mm"
   viewBox="0 0 107.97969 104.87568"
   version="1.1"
   id="svg10075"
   sodipodi:docname="beezer_rosto.svg"
   inkscape:version="1.2.2 (b0a8486541, 2022-12-01)"
   xmlns:inkscape="http://www.inkscape.org/namespaces/inkscape"
   xmlns:sodipodi="http://sodipodi.sourceforge.net/DTD/sodipodi-0.dtd"
   xmlns:xlink="http://www.w3.org/1999/xlink"
   xmlns="http://www.w3.org/2000/svg"
   xmlns:svg="http://www.w3.org/2000/svg">
  <sodipodi:namedview
     id="namedview10077"
     pagecolor="#ffffff"
     bordercolor="#000000"
     borderopacity="0.25"
     inkscape:showpageshadow="2"
     inkscape:pageopacity="0.0"
     inkscape:pagecheckerboard="0"
     inkscape:deskcolor="#d1d1d1"
     inkscape:document-units="mm"
     showgrid="false"
     inkscape:zoom="1.5001965"
     inkscape:cx="703.24122"
     inkscape:cy="214.30526"
     inkscape:window-width="1854"
     inkscape:window-height="1009"
     inkscape:window-x="66"
     inkscape:window-y="1112"
     inkscape:window-maximized="1"
     inkscape:current-layer="layer1" />
  <defs
     id="defs10072">
    <linearGradient
       inkscape:collect="always"
       id="linearGradient6936">
      <stop
         style="stop-color:#ff7701;stop-opacity:1;"
         offset="0"
         id="stop6932" />
      <stop
         style="stop-color:#ffcb13;stop-opacity:1;"
         offset="1"
         id="stop6934" />
    </linearGradient>
    <linearGradient
       inkscape:collect="always"
       xlink:href="#linearGradient6936"
       id="linearGradient24723"
       gradientUnits="userSpaceOnUse"
       gradientTransform="matrix(1.9178397,0.17148325,-0.17148325,1.9178397,18.31322,5.2743869)"
       x1="120.89243"
       y1="64.949829"
       x2="125.26547"
       y2="33.846684" />
  </defs>
  <g
     inkscape:label="Layer 1"
     inkscape:groupmode="layer"
     id="layer1"
     transform="translate(-270.33277,-60.709487)">
    <g
       id="g6258"
       transform="matrix(-1,0,0,1,552.97038,2.2927552)"
       inkscape:export-filename="cronograma-educacional-react/frontend/public/assets/gatinho_sentado.svg"
       inkscape:export-xdpi="96"
       inkscape:export-ydpi="96">
      <path
         id="path982-6-9-4-9-6-5"
         style="fill:url(#linearGradient24723);fill-opacity:1;stroke:#09090b;stroke-width:1.10115;stroke-linecap:round;stroke-linejoin:round;stroke-dasharray:none;stroke-opacity:1"
         d="m 253.15071,105.89951 c -0.77127,-0.14219 -1.54983,-0.25055 -2.33236,-0.32411 -4.26086,-0.37924 -7.35855,0.028 -11.07909,1.63256 -0.81797,-1.30866 -4.36292,-4.22163 -9.04113,-5.66821 0,0 -3.89331,6.15389 -1.25779,13.83578 -1.04009,1.85501 -1.66858,3.85642 -1.85707,5.91378 -0.82527,9.24089 7.2343,17.69886 18.48025,19.39378 0.0711,1.9442 -1.03322,15.24302 -1.73055,21.92022 0,0 11.06977,0.31166 24.47659,0 3.87992,-19.23302 -2.95411,-23.53647 -5.35483,-25.53988 4.34717,-2.9466 7.02345,-7.22666 7.44171,-11.90113 0.21416,-2.43386 0.26279,-4.25276 -0.73721,-6.58865 4.70607,-10.35421 -3.34192,-22.017617 -3.34192,-22.017617 -8.15233,2.524042 -12.45806,7.813687 -13.6666,9.343477 z"
         sodipodi:nodetypes="cccccccccccccc"
         inkscape:label="corpo_inteiro"
         inkscape:export-filename="cronograma-educacional-react/frontend/public/assets/gatinho_balao.svg"
         inkscape:export-xdpi="96"
         inkscape:export-ydpi="96" />
      <g
         id="g13841-48-4-3-0-1"
         inkscape:label="antenas"
         transform="matrix(1.3937911,0.31624455,-0.31624455,1.3937911,92.48175,-48.542357)">
        <circle
           style="fill:#09090b;fill-opacity:1;stroke:#09090b;stroke-width:0.716826;stroke-dasharray:none;stroke-opacity:1"
           id="path3345-36-1-4-6-2-1"
           cx="123.4136"
           cy="76.212181"
           r="1.7047741" />
        <circle
           style="fill:#09090b;fill-opacity:1;stroke:#09090b;stroke-width:0.716826;stroke-dasharray:none;stroke-opacity:1"
           id="path3345-3-1-2-7-8-7-0"
           cx="114.35101"
           cy="83.406479"
           r="1.7047741" />
        <path
           style="fill:none;stroke:#09090b;stroke-width:0.825034;stroke-linecap:round;stroke-dasharray:none;stroke-opacity:1"
           d="m 124.28165,76.892283 c 0,0 6.16634,2.730808 6.03421,10.218506"
           id="path3480-0-9-6-0-6-8" />
        <path
           style="fill:none;stroke:#09090b;stroke-width:0.825034;stroke-linecap:round;stroke-dasharray:none;stroke-opacity:1"
           d="m 114.8996,83.092811 c 0,0 6.6521,-1.109253 10.6585,5.21782"
           id="path3480-6-6-3-3-2-1-5" />
      </g>
      <g
         id="g13834-9-1-1-3-0"
         inkscape:label="rosto"
         transform="matrix(1.2947389,0.29377008,-0.29377008,1.2947389,103.43687,-36.816043)">
        <path
           style="fill:none;stroke:#09090b;stroke-width:0.825034;stroke-linecap:round;stroke-linejoin:round;stroke-dasharray:none;stroke-opacity:1"
           d="m 133.16189,97.764325 c 0,0 0.12461,-7.225574 9.21883,-10.589203"
           id="path3509-3-0-7-0-2-6" />
        <path
           style="fill:none;stroke:#09090b;stroke-width:0.825034;stroke-linecap:round;stroke-linejoin:round;stroke-dasharray:none;stroke-opacity:1"
           d="m 120.04997,93.435211 c 0,0 4.57827,0.03115 6.88299,5.512615"
           id="path3511-2-88-5-5-1-4"
           sodipodi:nodetypes="cc" />
        <path
           style="fill:none;stroke:#09090b;stroke-width:0.825034;stroke-linecap:round;stroke-linejoin:round;stroke-dasharray:none;stroke-opacity:1"
           d="m 127.02638,101.50169 c -0.0502,0.043 1.55673,0.82133 2.61617,-0.35816 0,0 3.08332,1.23021 5.09215,-1.37037"
           id="path3600-0-5-9-1-5-6"
           sodipodi:nodetypes="ccc" />
        <ellipse
           style="fill:#09090b;fill-opacity:1;stroke:#09090b;stroke-width:0.0242048;stroke-dasharray:none;stroke-opacity:1"
           id="path982-7-7-0-6-1-9-2"
           cx="114.72797"
           cy="116.07372"
           rx="0.47794119"
           ry="0.38952991"
           transform="rotate(-7.6741943)"
           inkscape:label="nariz" />
      </g>
      <path
         id="path3614-5-9-2-0-9-5-3"
         style="fill:#ffffff;stroke:#09090b;stroke-width:1.09531;stroke-linecap:round;stroke-linejoin:round;stroke-dasharray:none;stroke-opacity:1"
         d="m 280.62939,127.8157 c 3.42563,-0.0349 0.25511,8.38912 -3.72071,10.89752 -0.71578,0.43848 -1.41968,0.81358 -2.09961,1.13585 l 0.0754,0.12351 c 1.59298,0.82785 1.43982,2.99791 -1.1989,4.3496 -2.63869,1.35171 -4.81469,0.47646 -4.81469,0.47646 l -1.42317,-2.92024 -2.80603,0.58446 1.76682,-2.90266 c 0,0 1.51204,-2.76686 9.36687,-9.17515 2.28109,-1.82316 3.8505,-2.55913 4.85397,-2.56935 z" />
      <path
         style="fill:none;stroke:#09090b;stroke-width:1.09531;stroke-linecap:round;stroke-linejoin:round;stroke-dasharray:none;stroke-opacity:1"
         d="m 266.40834,139.55996 c 0,0 1.51233,-2.7664 9.36717,-9.1747 10.06829,-8.04705 6.2735,5.08471 1.13304,8.3279 -4.7401,2.90372 -9.42016,3.13462 -9.42016,3.13462"
         id="path3614-5-9-2-0-9-5"
         sodipodi:nodetypes="cccc" />
      <path
         style="fill:none;stroke:#09090b;stroke-width:1.09535;stroke-linecap:round;stroke-linejoin:round;stroke-dasharray:none;stroke-opacity:1"
         d="m 268.87118,144.79839 c 0,0 2.17584,0.8753 4.81454,-0.47641 2.63872,-1.35169 2.79189,-3.52174 1.19891,-4.34959"
         id="path3616-4-6-1-8-1-8" />
      <g
         id="g13853-3-7-5-4-6"
         inkscape:label="listras"
         transform="matrix(1.2947389,0.29377008,-0.29377008,1.2947389,103.43687,-36.816043)"
         style="fill:#09090b;fill-opacity:1;stroke:#09090b;stroke-opacity:1">
        <path
           style="fill:#09090b;fill-opacity:1;stroke:#09090b;stroke-width:0.825034;stroke-linecap:round;stroke-linejoin:round;stroke-dasharray:none;stroke-opacity:1"
           d="m 134.88878,108.12095 c 0,0 6.83808,1.01866 13.40902,-5.8334 l 1.49538,1.45656 c 0,0 -4.42175,7.05374 -14.73185,6.60265 z"
           id="path3618-7-8-8-0-9-2"
           sodipodi:nodetypes="ccccc" />
        <path
           style="fill:#09090b;fill-opacity:1;stroke:#09090b;stroke-width:0.825034;stroke-linecap:round;stroke-linejoin:round;stroke-dasharray:none;stroke-opacity:1"
           d="m 135.5472,112.96395 c 0,0 9.98471,1.24371 16.08559,-6.87315 l 0.89366,2.52823 c 0,0 -6.7881,7.80879 -16.75519,6.62584 z"
           id="path3620-6-5-5-6-1-8"
           sodipodi:nodetypes="ccccc" />
      </g>
      <path
         style="fill:#09090b;fill-opacity:1;stroke:#09090b;stroke-width:1.09535;stroke-linecap:round;stroke-linejoin:round;stroke-dasharray:none;stroke-opacity:1"
         d="m 245.36965,156.29423 c 0,0 14.18345,4.60584 24.46699,-4.11112 l -1.20688,10.27025 c 0,0 -9.83572,-0.61347 -24.07655,-0.33416 z"
         id="path3620-6-5-5-6-1-8-3"
         sodipodi:nodetypes="ccccc" />
      <path
         style="fill:none;stroke:#09090b;stroke-width:1.09535;stroke-linecap:round;stroke-linejoin:round;stroke-dasharray:none;stroke-opacity:1"
         d="m 227.79514,125.74849 -1.09056,0.0236"
         id="path3608-6-61-7-4-0-4"
         sodipodi:nodetypes="cc" />
      <path
         style="fill:none;stroke:#09090b;stroke-width:1.09535;stroke-linecap:round;stroke-linejoin:round;stroke-dasharray:none;stroke-opacity:1"
         d="m 229.26458,129.70547 -1.55937,0.45604"
         id="path3610-1-1-4-6-7-7"
         sodipodi:nodetypes="cc" />
      <path
         style="fill:none;stroke:#09090b;stroke-width:1.09535;stroke-linecap:round;stroke-linejoin:round;stroke-dasharray:none;stroke-opacity:1"
         d="m 231.68134,133.23945 -0.91425,0.63755"
         id="path3612-5-5-1-2-5-2"
         sodipodi:nodetypes="cc" />
      <path
         style="fill:#ff6b00;fill-opacity:1;stroke:#09090b;stroke-width:1.09535;stroke-linecap:round;stroke-linejoin:round;stroke-dasharray:none;stroke-opacity:1"
         d="m 267.56529,125.28485 5.31411,-0.82422"
         id="path10252-5-9-8-5-8-4"
         sodipodi:nodetypes="cc" />
      <path
         style="fill:#ff6b00;fill-opacity:1;stroke:#09090b;stroke-width:1.09535;stroke-linecap:round;stroke-linejoin:round;stroke-dasharray:none;stroke-opacity:1"
         d="m 267.2721,128.86473 4.94904,1.26775"
         id="path10254-69-8-5-8-7-0"
         sodipodi:nodetypes="cc" />
      <path
         style="fill:#ff6b00;fill-opacity:1;stroke:#09090b;stroke-width:1.09535;stroke-linecap:round;stroke-linejoin:round;stroke-dasharray:none;stroke-opacity:1"
         d="m 265.94564,132.26839 3.44809,1.98909"
         id="path10256-3-4-9-6-04-6"
         sodipodi:nodetypes="cc" />
      <g
         id="path10252-5-9-8-5-9-8-2"
         transform="matrix(1.2947389,0.29377008,-0.29377008,1.2947389,24.15997,-65.728282)">
        <path
           style="color:#000000;fill:#ff6b00;stroke-width:0.825034;stroke-linecap:round;stroke-linejoin:round;-inkscape-stroke:none"
           d="m 210.66653,99.708493 3.76606,-1.4911"
           id="path23727-0-9" />
        <path
           style="color:#000000;fill:#09090b;stroke-linecap:round;stroke-linejoin:round;-inkscape-stroke:none"
           d="m 214.28125,97.833984 -3.76563,1.490235 a 0.41251701,0.41251701 0 0 0 -0.23242,0.537109 0.41251701,0.41251701 0 0 0 0.53516,0.230472 l 3.76562,-1.490238 a 0.41251701,0.41251701 0 0 0 0.23243,-0.535156 0.41251701,0.41251701 0 0 0 -0.53516,-0.232422 z"
           id="path23724-4-9" />
      </g>
      <g
         id="path10254-69-8-5-8-9-2-0"
         transform="matrix(1.2947389,0.29377008,-0.29377008,1.2947389,24.15997,-65.728282)">
        <path
           style="color:#000000;fill:#ff6b00;stroke-width:0.825034;stroke-linecap:round;stroke-linejoin:round;-inkscape-stroke:none"
           d="m 211.04781,102.38693 3.84656,0.10638"
           id="path23711-9-8" />
        <path
           style="color:#000000;fill:#09090b;stroke-linecap:round;stroke-linejoin:round;-inkscape-stroke:none"
           d="m 211.05859,101.97461 a 0.41251701,0.41251701 0 0 0 -0.42382,0.40039 0.41251701,0.41251701 0 0 0 0.40234,0.42383 l 3.8457,0.10742 a 0.41251701,0.41251701 0 0 0 0.42383,-0.40234 0.41251701,0.41251701 0 0 0 -0.40039,-0.42383 z"
           id="path23708-6-1" />
      </g>
      <g
         id="path10256-3-4-9-6-0-1-3"
         transform="matrix(1.2947389,0.29377008,-0.29377008,1.2947389,24.15997,-65.728282)">
        <path
           style="color:#000000;fill:#ff6b00;stroke-width:0.825034;stroke-linecap:round;stroke-linejoin:round;-inkscape-stroke:none"
           d="m 210.64073,105.10813 2.86428,0.8864"
           id="path23717-0-1" />
        <path
           style="color:#000000;fill:#09090b;stroke-linecap:round;stroke-linejoin:round;-inkscape-stroke:none"
           d="m 210.76172,104.71484 a 0.41251701,0.41251701 0 0 0 -0.51563,0.27149 0.41251701,0.41251701 0 0 0 0.27344,0.51562 l 2.86328,0.88672 a 0.41251701,0.41251701 0 0 0 0.51563,-0.27148 0.41251701,0.41251701 0 0 0 -0.27149,-0.51758 z"
           id="path23714-4-1" />
      </g>
    </g>
    <path
       id="path3789"
       style="fill:#ffffff;stroke:#000000;stroke-width:0.971;stroke-linecap:round;stroke-linejoin:round;stroke-dasharray:none"
       d="m 302.00371,61.194987 c -2.76356,0 -4.98832,2.224768 -4.98832,4.988326 v 23.196 c 0,2.763559 2.22476,4.988326 4.98832,4.988326 h 31.118 c 0.1053,1.912812 -0.11955,5.284282 -2.4877,8.021751 8.02773,-2.970559 9.67785,-5.676359 10.20713,-8.021751 h 31.99753 c 2.76355,0 4.98832,-2.224767 4.98832,-4.988326 v -23.196 c 0,-2.763558 -2.22477,-4.988326 -4.98832,-4.988326 z" />
    <g
       id="g7781"
       transform="translate(71.075413,3.5273158)">
      <path
         d="m 239.24573,67.794069 q -0.69538,0 -1.09446,0.4656 -0.39909,0.465601 -0.39909,1.275867 0,0.804219 0.36885,1.275866 0.3749,0.465601 1.11865,0.465601 0.2842,0 0.53817,-0.04837 0.25396,-0.04837 0.49583,-0.120936 v 0.471648 q -0.24187,0.0907 -0.50188,0.133028 -0.25396,0.04233 -0.61072,0.04233 -0.6591,0 -1.10051,-0.272104 -0.44142,-0.272105 -0.66515,-0.773986 -0.21768,-0.501881 -0.21768,-1.179118 0,-0.65305 0.23582,-1.148884 0.24187,-0.501881 0.70747,-0.780032 0.4656,-0.284198 1.13075,-0.284198 0.68328,0 1.19121,0.253964 l -0.21768,0.459554 q -0.19955,-0.0907 -0.44746,-0.163263 -0.24187,-0.07256 -0.53212,-0.07256 z"
         style="font-size:6.04676px;font-family:'Noto Sans Yi';-inkscape-font-specification:'Noto Sans Yi';text-align:center;text-anchor:middle;stroke-width:0.389077;stroke-linecap:round;stroke-linejoin:round"
         id="path7668" />
      <path
         d="m 241.67653,71.694229 h -0.53212 v -4.595538 h 0.53212 z"
         style="font-size:6.04676px;font-family:'Noto Sans Yi';-inkscape-font-specification:'Noto Sans Yi';text-align:center;text-anchor:middle;stroke-width:0.389077;stroke-linecap:round;stroke-linejoin:round"
         id="path7670" />
      <path
         d="m 242.97658,67.237767 q 0.12093,0 0.21164,0.08465 0.0967,0.07861 0.0967,0.253964 0,0.169309 -0.0967,0.253963 -0.0907,0.08465 -0.21164,0.08465 -0.13303,0 -0.22373,-0.08465 -0.0907,-0.08465 -0.0907,-0.253963 0,-0.175357 0.0907,-0.253964 0.0907,-0.08465 0.22373,-0.08465 z m 0.26001,1.215399 v 3.241063 h -0.53212 v -3.241063 z"
         style="font-size:6.04676px;font-family:'Noto Sans Yi';-inkscape-font-specification:'Noto Sans Yi';text-align:center;text-anchor:middle;stroke-width:0.389077;stroke-linecap:round;stroke-linejoin:round"
         id="path7672" />
      <path
         d="m 246.42323,71.760743 q 0,-0.108841 0.006,-0.253963 0.006,-0.145123 0.0242,-0.247918 h -0.0363 q -0.13907,0.20559 -0.38699,0.350712 -0.24187,0.145123 -0.62886,0.145123 -0.58654,0 -0.95539,-0.417227 -0.36281,-0.423273 -0.36281,-1.257726 0,-0.834453 0.36885,-1.257726 0.3749,-0.42932 0.96749,-0.42932 0.38094,0 0.62281,0.145122 0.24187,0.145123 0.38699,0.356759 h 0.0242 l 0.0786,-0.441413 h 0.42327 v 4.692286 h -0.53211 z m -0.91911,-0.44746 q 0.50188,0 0.70747,-0.272104 0.21164,-0.278151 0.21768,-0.846546 v -0.108842 q 0,-0.61677 -0.20558,-0.931201 -0.20559,-0.320478 -0.73166,-0.320478 -0.43537,0 -0.64701,0.344665 -0.21163,0.338618 -0.21163,0.913061 0,0.574442 0.21163,0.900967 0.21769,0.320478 0.6591,0.320478 z"
         style="font-size:6.04676px;font-family:'Noto Sans Yi';-inkscape-font-specification:'Noto Sans Yi';text-align:center;text-anchor:middle;stroke-width:0.389077;stroke-linecap:round;stroke-linejoin:round"
         id="path7674" />
      <path
         d="m 250.69224,68.453166 v 3.241063 h -0.43537 l -0.0786,-0.42932 h -0.0242 q -0.15722,0.253964 -0.43537,0.374899 -0.27815,0.114889 -0.59258,0.114889 -0.58654,0 -0.88283,-0.278151 -0.29629,-0.284198 -0.29629,-0.900967 v -2.122413 h 0.53816 v 2.086132 q 0,0.773985 0.71957,0.773985 0.53816,0 0.74375,-0.302338 0.21163,-0.302338 0.21163,-0.870733 v -1.687046 z"
         style="font-size:6.04676px;font-family:'Noto Sans Yi';-inkscape-font-specification:'Noto Sans Yi';text-align:center;text-anchor:middle;stroke-width:0.389077;stroke-linecap:round;stroke-linejoin:round"
         id="path7676" />
      <path
         d="m 252.97187,68.392698 q 0.41722,0 0.71352,0.181403 0.30233,0.181403 0.45955,0.513975 0.16326,0.326525 0.16326,0.767938 v 0.320478 h -2.21916 q 0.0121,0.550256 0.27815,0.8405 0.27211,0.284198 0.75585,0.284198 0.30838,0 0.54421,-0.05442 0.24187,-0.06047 0.49583,-0.169309 v 0.4656 q -0.24792,0.108842 -0.48979,0.157216 -0.24187,0.05442 -0.57444,0.05442 -0.45955,0 -0.81631,-0.18745 -0.35071,-0.187449 -0.55026,-0.556302 -0.19349,-0.374899 -0.19349,-0.913061 0,-0.532114 0.17535,-0.91306 0.1814,-0.380946 0.50188,-0.586536 0.32653,-0.20559 0.75585,-0.20559 z m -0.006,0.435367 q -0.38094,0 -0.60467,0.247917 -0.21769,0.24187 -0.26002,0.677237 h 1.65077 q -0.006,-0.41118 -0.1935,-0.665143 -0.18745,-0.260011 -0.59258,-0.260011 z"
         style="font-size:6.04676px;font-family:'Noto Sans Yi';-inkscape-font-specification:'Noto Sans Yi';text-align:center;text-anchor:middle;stroke-width:0.389077;stroke-linecap:round;stroke-linejoin:round"
         id="path7678" />
      <path
         d="m 257.93021,68.398745 q 0.59258,0 0.87678,0.260011 0.2842,0.26001 0.2842,0.828406 v 2.207067 h -0.387 l -0.10279,-0.459554 h -0.0242 q -0.21164,0.266058 -0.44746,0.39304 -0.22978,0.126982 -0.64096,0.126982 -0.44141,0 -0.73165,-0.229777 -0.29025,-0.235824 -0.29025,-0.731658 0,-0.483741 0.38095,-0.743752 0.38094,-0.266057 1.17307,-0.290244 l 0.55025,-0.01814 v -0.193497 q 0,-0.405133 -0.17535,-0.562348 -0.17536,-0.157216 -0.49584,-0.157216 -0.25396,0 -0.48374,0.07861 -0.22977,0.07256 -0.42932,0.169309 l -0.16326,-0.399086 q 0.21164,-0.114889 0.50188,-0.193496 0.29025,-0.08465 0.60468,-0.08465 z m 0.15721,1.729373 q -0.60467,0.02419 -0.8405,0.193497 -0.22977,0.169309 -0.22977,0.477694 0,0.272104 0.16326,0.399086 0.16931,0.126982 0.42932,0.126982 0.41118,0 0.68328,-0.22373 0.27211,-0.229777 0.27211,-0.701425 v -0.290244 z"
         style="font-size:6.04676px;font-family:'Noto Sans Yi';-inkscape-font-specification:'Noto Sans Yi';text-align:center;text-anchor:middle;stroke-width:0.389077;stroke-linecap:round;stroke-linejoin:round"
         id="path7680" />
      <path
         d="m 262.25365,71.760743 q 0,-0.108841 0.006,-0.253963 0.006,-0.145123 0.0242,-0.247918 h -0.0363 q -0.13908,0.20559 -0.38699,0.350712 -0.24187,0.145123 -0.62887,0.145123 -0.58653,0 -0.95538,-0.417227 -0.36281,-0.423273 -0.36281,-1.257726 0,-0.834453 0.36885,-1.257726 0.3749,-0.42932 0.96748,-0.42932 0.38095,0 0.62282,0.145122 0.24187,0.145123 0.38699,0.356759 h 0.0242 l 0.0786,-0.441413 h 0.42327 v 4.692286 h -0.53211 z m -0.91911,-0.44746 q 0.50188,0 0.70747,-0.272104 0.21164,-0.278151 0.21768,-0.846546 v -0.108842 q 0,-0.61677 -0.20559,-0.931201 -0.20559,-0.320478 -0.73166,-0.320478 -0.43536,0 -0.647,0.344665 -0.21164,0.338618 -0.21164,0.913061 0,0.574442 0.21164,0.900967 0.21768,0.320478 0.6591,0.320478 z"
         style="font-size:6.04676px;font-family:'Noto Sans Yi';-inkscape-font-specification:'Noto Sans Yi';text-align:center;text-anchor:middle;stroke-width:0.389077;stroke-linecap:round;stroke-linejoin:round"
         id="path7682" />
      <path
         d="m 266.52266,68.453166 v 3.241063 h -0.43537 l -0.0786,-0.42932 h -0.0242 q -0.15722,0.253964 -0.43537,0.374899 -0.27815,0.114889 -0.59258,0.114889 -0.58654,0 -0.88283,-0.278151 -0.29629,-0.284198 -0.29629,-0.900967 v -2.122413 h 0.53816 v 2.086132 q 0,0.773985 0.71957,0.773985 0.53816,0 0.74375,-0.302338 0.21163,-0.302338 0.21163,-0.870733 v -1.687046 z"
         style="font-size:6.04676px;font-family:'Noto Sans Yi';-inkscape-font-specification:'Noto Sans Yi';text-align:center;text-anchor:middle;stroke-width:0.389077;stroke-linecap:round;stroke-linejoin:round"
         id="path7684" />
      <path
         d="m 267.82271,67.237767 q 0.12094,0 0.21164,0.08465 0.0967,0.07861 0.0967,0.253964 0,0.169309 -0.0967,0.253963 -0.0907,0.08465 -0.21164,0.08465 -0.13303,0 -0.22373,-0.08465 -0.0907,-0.08465 -0.0907,-0.253963 0,-0.175357 0.0907,-0.253964 0.0907,-0.08465 0.22373,-0.08465 z m 0.26001,1.215399 v 3.241063 h -0.53211 v -3.241063 z"
         style="font-size:6.04676px;font-family:'Noto Sans Yi';-inkscape-font-specification:'Noto Sans Yi';text-align:center;text-anchor:middle;stroke-width:0.389077;stroke-linecap:round;stroke-linejoin:round"
         id="path7686" />
      <path
         d="m 271.93451,68.392698 q 0.41722,0 0.71351,0.181403 0.30234,0.181403 0.45956,0.513975 0.16326,0.326525 0.16326,0.767938 v 0.320478 h -2.21916 q 0.0121,0.550256 0.27815,0.8405 0.27211,0.284198 0.75585,0.284198 0.30838,0 0.5442,-0.05442 0.24187,-0.06047 0.49584,-0.169309 v 0.4656 q -0.24792,0.108842 -0.48979,0.157216 -0.24187,0.05442 -0.57444,0.05442 -0.45955,0 -0.81631,-0.18745 -0.35072,-0.187449 -0.55026,-0.556302 -0.1935,-0.374899 -0.1935,-0.913061 0,-0.532114 0.17536,-0.91306 0.1814,-0.380946 0.50188,-0.586536 0.32653,-0.20559 0.75585,-0.20559 z m -0.006,0.435367 q -0.38095,0 -0.60468,0.247917 -0.21768,0.24187 -0.26001,0.677237 h 1.65077 q -0.006,-0.41118 -0.1935,-0.665143 -0.18745,-0.260011 -0.59258,-0.260011 z"
         style="font-size:6.04676px;font-family:'Noto Sans Yi';-inkscape-font-specification:'Noto Sans Yi';text-align:center;text-anchor:middle;stroke-width:0.389077;stroke-linecap:round;stroke-linejoin:round"
         id="path7688" />
      <path
         d="m 277.64869,68.392698 q 0.55025,0 0.82236,0.284198 0.2721,0.278151 0.2721,0.907014 v 2.110319 h -0.52607 v -2.086132 q 0,-0.767939 -0.65909,-0.767939 -0.47165,0 -0.67724,0.272105 -0.19954,0.272104 -0.19954,0.792125 v 1.789841 h -0.52607 v -2.086132 q 0,-0.767939 -0.66514,-0.767939 -0.48979,0 -0.67724,0.302338 -0.18745,0.302338 -0.18745,0.870734 v 1.680999 h -0.53212 v -3.241063 h 0.42932 l 0.0786,0.441413 h 0.0302 q 0.15116,-0.253964 0.40513,-0.374899 0.26001,-0.126982 0.55025,-0.126982 0.7619,0 0.99167,0.544209 h 0.0302 q 0.16326,-0.278151 0.44141,-0.41118 0.2842,-0.133029 0.59863,-0.133029 z"
         style="font-size:6.04676px;font-family:'Noto Sans Yi';-inkscape-font-specification:'Noto Sans Yi';text-align:center;text-anchor:middle;stroke-width:0.389077;stroke-linecap:round;stroke-linejoin:round"
         id="path7690" />
      <path
         d="m 280.27903,68.217342 q 0,0.20559 -0.0121,0.386993 -0.006,0.175356 -0.0181,0.278151 h 0.0302 q 0.13907,-0.20559 0.38094,-0.344666 0.24187,-0.139075 0.62282,-0.139075 0.60467,0 0.96748,0.423273 0.36885,0.417227 0.36885,1.251679 0,0.834453 -0.36885,1.257727 -0.36885,0.423273 -0.96748,0.423273 -0.38095,0 -0.62282,-0.139076 -0.24187,-0.139075 -0.38094,-0.332572 h -0.0423 l -0.10884,0.41118 h -0.38095 v -4.595538 h 0.53212 z m 0.91306,0.622816 q -0.51398,0 -0.71352,0.296292 -0.19954,0.296291 -0.19954,0.919107 v 0.02419 q 0,0.598629 0.19349,0.919108 0.19955,0.314431 0.73166,0.314431 0.43537,0 0.647,-0.320478 0.21769,-0.320478 0.21769,-0.925154 0,-1.227493 -0.87678,-1.227493 z"
         style="font-size:6.04676px;font-family:'Noto Sans Yi';-inkscape-font-specification:'Noto Sans Yi';text-align:center;text-anchor:middle;stroke-width:0.389077;stroke-linecap:round;stroke-linejoin:round"
         id="path7692" />
      <path
         d="m 284.69316,68.398745 q 0.59258,0 0.87678,0.260011 0.2842,0.26001 0.2842,0.828406 v 2.207067 h -0.38699 l -0.1028,-0.459554 h -0.0242 q -0.21163,0.266058 -0.44746,0.39304 -0.22977,0.126982 -0.64095,0.126982 -0.44142,0 -0.73166,-0.229777 -0.29025,-0.235824 -0.29025,-0.731658 0,-0.483741 0.38095,-0.743752 0.38095,-0.266057 1.17307,-0.290244 l 0.55026,-0.01814 v -0.193497 q 0,-0.405133 -0.17536,-0.562348 -0.17535,-0.157216 -0.49583,-0.157216 -0.25397,0 -0.48374,0.07861 -0.22978,0.07256 -0.42932,0.169309 l -0.16327,-0.399086 q 0.21164,-0.114889 0.50188,-0.193496 0.29025,-0.08465 0.60468,-0.08465 z m 0.15722,1.729373 q -0.60468,0.02419 -0.8405,0.193497 -0.22978,0.169309 -0.22978,0.477694 0,0.272104 0.16326,0.399086 0.16931,0.126982 0.42932,0.126982 0.41118,0 0.68329,-0.22373 0.2721,-0.229777 0.2721,-0.701425 v -0.290244 z"
         style="font-size:6.04676px;font-family:'Noto Sans Yi';-inkscape-font-specification:'Noto Sans Yi';text-align:center;text-anchor:middle;stroke-width:0.389077;stroke-linecap:round;stroke-linejoin:round"
         id="path7694" />
      <path
         d="m 287.13001,67.237767 q 0.12094,0 0.21164,0.08465 0.0967,0.07861 0.0967,0.253964 0,0.169309 -0.0967,0.253963 -0.0907,0.08465 -0.21164,0.08465 -0.13303,0 -0.22373,-0.08465 -0.0907,-0.08465 -0.0907,-0.253963 0,-0.175357 0.0907,-0.253964 0.0907,-0.08465 0.22373,-0.08465 z m 0.26001,1.215399 v 3.241063 h -0.53211 v -3.241063 z"
         style="font-size:6.04676px;font-family:'Noto Sans Yi';-inkscape-font-specification:'Noto Sans Yi';text-align:center;text-anchor:middle;stroke-width:0.389077;stroke-linecap:round;stroke-linejoin:round"
         id="path7696" />
      <path
         d="m 289.1859,70.037417 -1.11865,-1.584251 h 0.60468 l 0.83445,1.221445 0.82841,-1.221445 h 0.59863 l -1.11865,1.584251 1.17912,1.656812 h -0.60468 l -0.88283,-1.294007 -0.89492,1.294007 h -0.59863 z"
         style="font-size:6.04676px;font-family:'Noto Sans Yi';-inkscape-font-specification:'Noto Sans Yi';text-align:center;text-anchor:middle;stroke-width:0.389077;stroke-linecap:round;stroke-linejoin:round"
         id="path7698" />
      <path
         d="m 294.31355,70.067651 q 0,0.804219 -0.41118,1.245632 -0.40513,0.441414 -1.10051,0.441414 -0.42932,0 -0.76794,-0.193497 -0.33257,-0.199543 -0.52607,-0.574442 -0.19349,-0.380946 -0.19349,-0.919107 0,-0.804219 0.40513,-1.239586 0.40513,-0.435367 1.10051,-0.435367 0.44141,0 0.77398,0.199543 0.33862,0.193497 0.52607,0.568396 0.1935,0.368852 0.1935,0.907014 z m -2.44894,0 q 0,0.574442 0.22373,0.91306 0.22978,0.332572 0.72561,0.332572 0.48979,0 0.71957,-0.332572 0.22977,-0.338618 0.22977,-0.91306 0,-0.574443 -0.22977,-0.900968 -0.22978,-0.326525 -0.72561,-0.326525 -0.49584,0 -0.71957,0.326525 -0.22373,0.326525 -0.22373,0.900968 z"
         style="font-size:6.04676px;font-family:'Noto Sans Yi';-inkscape-font-specification:'Noto Sans Yi';text-align:center;text-anchor:middle;stroke-width:0.389077;stroke-linecap:round;stroke-linejoin:round"
         id="path7700" />
      <path
         d="m 249.13217,76.006299 q 0.59863,0 0.96144,0.417227 0.36885,0.417226 0.36885,1.257726 0,0.828406 -0.36885,1.257726 -0.36281,0.42932 -0.96748,0.42932 -0.3749,0 -0.62282,-0.139076 -0.24187,-0.145122 -0.38095,-0.332571 h -0.0363 q 0.0121,0.102795 0.0242,0.26001 0.0121,0.157216 0.0121,0.272104 v 1.330288 h -0.53211 v -4.692286 h 0.43537 l 0.0726,0.441413 h 0.0242 q 0.14513,-0.211636 0.38095,-0.356758 0.23582,-0.145123 0.62886,-0.145123 z m -0.0968,0.447461 q -0.49583,0 -0.70142,0.27815 -0.19954,0.278151 -0.21164,0.846547 v 0.102795 q 0,0.598629 0.1935,0.925154 0.19954,0.320478 0.73166,0.320478 0.29629,0 0.48374,-0.163262 0.19349,-0.163263 0.2842,-0.441414 0.0967,-0.284197 0.0967,-0.647003 0,-0.556302 -0.21768,-0.888874 -0.21164,-0.332571 -0.6591,-0.332571 z"
         style="font-size:6.04676px;font-family:'Noto Sans Yi';-inkscape-font-specification:'Noto Sans Yi';text-align:center;text-anchor:middle;stroke-width:0.389077;stroke-linecap:round;stroke-linejoin:round"
         id="path7702" />
      <path
         d="m 252.5365,76.012346 q 0.59258,0 0.87678,0.260011 0.28419,0.26001 0.28419,0.828406 v 2.207067 h -0.38699 l -0.10279,-0.459553 h -0.0242 q -0.21164,0.266057 -0.44746,0.393039 -0.22978,0.126982 -0.64096,0.126982 -0.44141,0 -0.73165,-0.229777 -0.29025,-0.235824 -0.29025,-0.731658 0,-0.483741 0.38095,-0.743751 0.38094,-0.266058 1.17307,-0.290245 l 0.55025,-0.01814 V 77.16123 q 0,-0.405132 -0.17535,-0.562348 -0.17536,-0.157216 -0.49584,-0.157216 -0.25396,0 -0.48374,0.07861 -0.22977,0.07256 -0.42932,0.169309 l -0.16326,-0.399086 q 0.21164,-0.114888 0.50188,-0.193496 0.29025,-0.08466 0.60468,-0.08466 z m 0.15721,1.729373 q -0.60467,0.02419 -0.8405,0.193497 -0.22977,0.169309 -0.22977,0.477694 0,0.272104 0.16326,0.399086 0.16931,0.126982 0.42932,0.126982 0.41118,0 0.68328,-0.22373 0.27211,-0.229777 0.27211,-0.701424 v -0.290245 z"
         style="font-size:6.04676px;font-family:'Noto Sans Yi';-inkscape-font-specification:'Noto Sans Yi';text-align:center;text-anchor:middle;stroke-width:0.389077;stroke-linecap:round;stroke-linejoin:round"
         id="path7704" />
      <path
         d="m 256.21293,76.006299 q 0.0907,0 0.1935,0.01209 0.10884,0.006 0.18745,0.02419 l -0.0665,0.489787 q -0.0786,-0.01814 -0.17535,-0.03023 -0.0907,-0.01209 -0.17536,-0.01209 -0.24792,0 -0.4656,0.139076 -0.21768,0.133028 -0.35071,0.380945 -0.12698,0.241871 -0.12698,0.568396 v 1.729373 h -0.53212 v -3.241063 h 0.43537 l 0.0605,0.592582 h 0.0242 q 0.15722,-0.266057 0.40514,-0.459553 0.24791,-0.193497 0.58653,-0.193497 z"
         style="font-size:6.04676px;font-family:'Noto Sans Yi';-inkscape-font-specification:'Noto Sans Yi';text-align:center;text-anchor:middle;stroke-width:0.389077;stroke-linecap:round;stroke-linejoin:round"
         id="path7706" />
      <path
         d="m 258.30511,76.012346 q 0.59258,0 0.87678,0.260011 0.2842,0.26001 0.2842,0.828406 v 2.207067 h -0.387 l -0.10279,-0.459553 h -0.0242 q -0.21164,0.266057 -0.44746,0.393039 -0.22978,0.126982 -0.64096,0.126982 -0.44141,0 -0.73165,-0.229777 -0.29025,-0.235824 -0.29025,-0.731658 0,-0.483741 0.38095,-0.743751 0.38094,-0.266058 1.17307,-0.290245 l 0.55025,-0.01814 V 77.16123 q 0,-0.405132 -0.17535,-0.562348 -0.17536,-0.157216 -0.49584,-0.157216 -0.25396,0 -0.48374,0.07861 -0.22977,0.07256 -0.42932,0.169309 l -0.16326,-0.399086 q 0.21164,-0.114888 0.50188,-0.193496 0.29025,-0.08466 0.60468,-0.08466 z m 0.15721,1.729373 q -0.60467,0.02419 -0.8405,0.193497 -0.22977,0.169309 -0.22977,0.477694 0,0.272104 0.16326,0.399086 0.16931,0.126982 0.42932,0.126982 0.41118,0 0.68328,-0.22373 0.27211,-0.229777 0.27211,-0.701424 v -0.290245 z"
         style="font-size:6.04676px;font-family:'Noto Sans Yi';-inkscape-font-specification:'Noto Sans Yi';text-align:center;text-anchor:middle;stroke-width:0.389077;stroke-linecap:round;stroke-linejoin:round"
         id="path7708" />
      <path
         d="m 263.34207,79.368298 q -0.42932,0 -0.76794,-0.175356 -0.33257,-0.175356 -0.52607,-0.544209 -0.18745,-0.368852 -0.18745,-0.943294 0,-0.598629 0.19954,-0.973529 0.19955,-0.374899 0.53816,-0.550255 0.34467,-0.175356 0.78004,-0.175356 0.24791,0 0.47769,0.05442 0.22978,0.04837 0.3749,0.120935 l -0.16326,0.441414 q -0.14513,-0.05442 -0.33862,-0.102795 -0.1935,-0.04837 -0.36281,-0.04837 -0.95539,0 -0.95539,1.227492 0,0.586536 0.22978,0.900967 0.23583,0.308385 0.69538,0.308385 0.26606,0 0.4656,-0.05442 0.20559,-0.05442 0.3749,-0.133028 v 0.471647 q -0.16326,0.08465 -0.36281,0.126982 -0.19349,0.04837 -0.47164,0.04837 z"
         style="font-size:6.04676px;font-family:'Noto Sans Yi';-inkscape-font-specification:'Noto Sans Yi';text-align:center;text-anchor:middle;stroke-width:0.389077;stroke-linecap:round;stroke-linejoin:round"
         id="path7710" />
      <path
         d="m 267.76224,77.681252 q 0,0.804219 -0.41118,1.245632 -0.40513,0.441414 -1.10051,0.441414 -0.42932,0 -0.76793,-0.193496 -0.33258,-0.199544 -0.52607,-0.574443 -0.1935,-0.380946 -0.1935,-0.919107 0,-0.804219 0.40513,-1.239586 0.40514,-0.435367 1.10051,-0.435367 0.44142,0 0.77399,0.199543 0.33862,0.193497 0.52607,0.568396 0.19349,0.368852 0.19349,0.907014 z m -2.44893,0 q 0,0.574442 0.22373,0.913061 0.22977,0.332571 0.72561,0.332571 0.48979,0 0.71956,-0.332571 0.22978,-0.338619 0.22978,-0.913061 0,-0.574442 -0.22978,-0.900967 -0.22977,-0.326525 -0.72561,-0.326525 -0.49583,0 -0.71956,0.326525 -0.22373,0.326525 -0.22373,0.900967 z"
         style="font-size:6.04676px;font-family:'Noto Sans Yi';-inkscape-font-specification:'Noto Sans Yi';text-align:center;text-anchor:middle;stroke-width:0.389077;stroke-linecap:round;stroke-linejoin:round"
         id="path7712" />
      <path
         d="m 272.15824,76.006299 q 0.55025,0 0.82236,0.284198 0.2721,0.278151 0.2721,0.907014 v 2.110319 h -0.52607 v -2.086132 q 0,-0.767938 -0.6591,-0.767938 -0.47164,0 -0.67723,0.272104 -0.19955,0.272104 -0.19955,0.792125 v 1.789841 h -0.52606 v -2.086132 q 0,-0.767938 -0.66515,-0.767938 -0.48978,0 -0.67723,0.302338 -0.18745,0.302338 -0.18745,0.870733 v 1.680999 h -0.53212 v -3.241063 h 0.42932 l 0.0786,0.441413 h 0.0302 q 0.15117,-0.253964 0.40514,-0.374899 0.26001,-0.126982 0.55025,-0.126982 0.76189,0 0.99167,0.544209 h 0.0302 q 0.16327,-0.278151 0.44142,-0.41118 0.28419,-0.133029 0.59863,-0.133029 z"
         style="font-size:6.04676px;font-family:'Noto Sans Yi';-inkscape-font-specification:'Noto Sans Yi';text-align:center;text-anchor:middle;stroke-width:0.389077;stroke-linecap:round;stroke-linejoin:round"
         id="path7714" />
      <path
         d="m 275.50814,76.006299 q 0.41722,0 0.71352,0.181403 0.30233,0.181403 0.45955,0.513975 0.16326,0.326525 0.16326,0.767938 v 0.320479 h -2.21916 q 0.0121,0.550255 0.27815,0.840499 0.27211,0.284198 0.75585,0.284198 0.30838,0 0.54421,-0.05442 0.24187,-0.06047 0.49583,-0.169309 v 0.4656 q -0.24792,0.108842 -0.48979,0.157216 -0.24187,0.05442 -0.57444,0.05442 -0.45955,0 -0.81631,-0.18745 -0.35071,-0.187449 -0.55026,-0.556302 -0.19349,-0.374899 -0.19349,-0.91306 0,-0.532115 0.17535,-0.913061 0.1814,-0.380946 0.50188,-0.586536 0.32653,-0.20559 0.75585,-0.20559 z m -0.006,0.435367 q -0.38094,0 -0.60467,0.247917 -0.21769,0.241871 -0.26002,0.677237 h 1.65077 q -0.006,-0.411179 -0.1935,-0.665143 -0.18745,-0.260011 -0.59258,-0.260011 z"
         style="font-size:6.04676px;font-family:'Noto Sans Yi';-inkscape-font-specification:'Noto Sans Yi';text-align:center;text-anchor:middle;stroke-width:0.389077;stroke-linecap:round;stroke-linejoin:round"
         id="path7716" />
      <path
         d="m 278.96688,79.368298 q -0.42932,0 -0.76794,-0.175356 -0.33257,-0.175356 -0.52607,-0.544209 -0.18745,-0.368852 -0.18745,-0.943294 0,-0.598629 0.19955,-0.973529 0.19954,-0.374899 0.53816,-0.550255 0.34466,-0.175356 0.78003,-0.175356 0.24792,0 0.47769,0.05442 0.22978,0.04837 0.3749,0.120935 l -0.16326,0.441414 q -0.14512,-0.05442 -0.33862,-0.102795 -0.19349,-0.04837 -0.3628,-0.04837 -0.95539,0 -0.95539,1.227492 0,0.586536 0.22978,0.900967 0.23582,0.308385 0.69537,0.308385 0.26606,0 0.4656,-0.05442 0.20559,-0.05442 0.3749,-0.133028 v 0.471647 q -0.16326,0.08465 -0.3628,0.126982 -0.1935,0.04837 -0.47165,0.04837 z m 0.49583,0.780032 q 0,0.290244 -0.22373,0.44746 -0.22373,0.163263 -0.67119,0.163263 -0.19349,0 -0.30233,-0.03023 v -0.332572 q 0.0544,0.01209 0.14512,0.01814 0.0907,0.01209 0.17535,0.01209 0.21769,0 0.33258,-0.06047 0.11488,-0.05442 0.11488,-0.20559 0,-0.157215 -0.16326,-0.229776 -0.15721,-0.07256 -0.38699,-0.102795 l 0.26001,-0.520022 h 0.35071 l -0.15721,0.320479 q 0.21768,0.04837 0.36885,0.169309 0.15721,0.120935 0.15721,0.350712 z"
         style="font-size:6.04676px;font-family:'Noto Sans Yi';-inkscape-font-specification:'Noto Sans Yi';text-align:center;text-anchor:middle;stroke-width:0.389077;stroke-linecap:round;stroke-linejoin:round"
         id="path7718" />
      <path
         d="m 281.79676,76.012346 q 0.59258,0 0.87678,0.260011 0.2842,0.26001 0.2842,0.828406 v 2.207067 h -0.38699 l -0.1028,-0.459553 h -0.0242 q -0.21163,0.266057 -0.44746,0.393039 -0.22977,0.126982 -0.64095,0.126982 -0.44142,0 -0.73166,-0.229777 -0.29025,-0.235824 -0.29025,-0.731658 0,-0.483741 0.38095,-0.743751 0.38095,-0.266058 1.17307,-0.290245 l 0.55026,-0.01814 V 77.16123 q 0,-0.405132 -0.17536,-0.562348 -0.17536,-0.157216 -0.49583,-0.157216 -0.25397,0 -0.48374,0.07861 -0.22978,0.07256 -0.42932,0.169309 l -0.16327,-0.399086 q 0.21164,-0.114888 0.50188,-0.193496 0.29025,-0.08466 0.60468,-0.08466 z m 0.15722,1.729373 q -0.60468,0.02419 -0.8405,0.193497 -0.22978,0.169309 -0.22978,0.477694 0,0.272104 0.16326,0.399086 0.16931,0.126982 0.42932,0.126982 0.41118,0 0.68329,-0.22373 0.2721,-0.229777 0.2721,-0.701424 v -0.290245 z"
         style="font-size:6.04676px;font-family:'Noto Sans Yi';-inkscape-font-specification:'Noto Sans Yi';text-align:center;text-anchor:middle;stroke-width:0.389077;stroke-linecap:round;stroke-linejoin:round"
         id="path7720" />
      <path
         d="m 285.4732,76.006299 q 0.0907,0 0.19349,0.01209 0.10884,0.006 0.18745,0.02419 l -0.0665,0.489787 q -0.0786,-0.01814 -0.17536,-0.03023 -0.0907,-0.01209 -0.17535,-0.01209 -0.24792,0 -0.4656,0.139076 -0.21769,0.133028 -0.35072,0.380945 -0.12698,0.241871 -0.12698,0.568396 v 1.729373 h -0.53211 v -3.241063 h 0.43536 l 0.0605,0.592582 h 0.0242 q 0.15721,-0.266057 0.40513,-0.459553 0.24792,-0.193497 0.58654,-0.193497 z"
         style="font-size:6.04676px;font-family:'Noto Sans Yi';-inkscape-font-specification:'Noto Sans Yi';text-align:center;text-anchor:middle;stroke-width:0.389077;stroke-linecap:round;stroke-linejoin:round"
         id="path7722" />
    </g>
  </g>
</svg>
