<?xml version="1.0" encoding="UTF-8" standalone="no"?>
<!-- Created with Inkscape (http://www.inkscape.org/) -->

<svg
   width="129.59174mm"
   height="109.68125mm"
   viewBox="0 0 129.59174 109.68125"
   version="1.1"
   id="svg10075"
   sodipodi:docname="beezer_rosto.svg"
   inkscape:version="1.2.2 (b0a8486541, 2022-12-01)"
   xmlns:inkscape="http://www.inkscape.org/namespaces/inkscape"
   xmlns:sodipodi="http://sodipodi.sourceforge.net/DTD/sodipodi-0.dtd"
   xmlns:xlink="http://www.w3.org/1999/xlink"
   xmlns="http://www.w3.org/2000/svg"
   xmlns:svg="http://www.w3.org/2000/svg">
  <sodipodi:namedview
     id="namedview10077"
     pagecolor="#ffffff"
     bordercolor="#000000"
     borderopacity="0.25"
     inkscape:showpageshadow="2"
     inkscape:pageopacity="0.0"
     inkscape:pagecheckerboard="0"
     inkscape:deskcolor="#d1d1d1"
     inkscape:document-units="mm"
     showgrid="false"
     inkscape:zoom="1.0607991"
     inkscape:cx="946.45631"
     inkscape:cy="597.19131"
     inkscape:window-width="1854"
     inkscape:window-height="1009"
     inkscape:window-x="66"
     inkscape:window-y="1112"
     inkscape:window-maximized="1"
     inkscape:current-layer="layer1" />
  <defs
     id="defs10072">
    <linearGradient
       inkscape:collect="always"
       id="linearGradient13870">
      <stop
         style="stop-color:#ff8704;stop-opacity:1;"
         offset="0.00000001"
         id="stop13866" />
      <stop
         style="stop-color:#ffa40b;stop-opacity:1;"
         offset="1"
         id="stop13868" />
    </linearGradient>
    <linearGradient
       inkscape:collect="always"
       id="linearGradient6936">
      <stop
         style="stop-color:#ff7701;stop-opacity:1;"
         offset="0"
         id="stop6932" />
      <stop
         style="stop-color:#ffcb13;stop-opacity:1;"
         offset="1"
         id="stop6934" />
    </linearGradient>
    <linearGradient
       inkscape:collect="always"
       xlink:href="#linearGradient6936"
       id="linearGradient10434"
       gradientUnits="userSpaceOnUse"
       gradientTransform="matrix(-1.6774304,0.33441512,0.33441512,1.6774304,525.47144,60.363128)"
       x1="120.89243"
       y1="64.949829"
       x2="125.26547"
       y2="33.846684" />
    <linearGradient
       inkscape:collect="always"
       xlink:href="#linearGradient13870"
       id="linearGradient13872"
       x1="334.76358"
       y1="233.79712"
       x2="335.3136"
       y2="194.38895"
       gradientUnits="userSpaceOnUse" />
  </defs>
  <g
     inkscape:label="Layer 1"
     inkscape:groupmode="layer"
     id="layer1"
     transform="translate(-318.13311,-180.90174)">
    <g
       id="g18145">
      <path
         id="path3789-6"
         style="fill:#ffffff;stroke:#000000;stroke-width:1.0826;stroke-linecap:round;stroke-linejoin:round;stroke-dasharray:none"
         d="m 344.94633,181.44304 c -3.08118,0 -5.56163,2.48046 -5.56163,5.56164 v 43.56144 c 0,3.08118 2.48045,5.56164 5.56163,5.56164 h 34.69441 c 0.1174,2.13265 -0.13329,5.89161 -2.77361,8.9437 8.95036,-3.31197 10.79013,-6.32875 11.38024,-8.9437 h 53.37455 c 3.08117,0 5.56163,-2.48046 5.56163,-5.56164 v -43.56144 c 0,-3.08118 -2.48046,-5.56164 -5.56163,-5.56164 z"
         sodipodi:nodetypes="sssscccsssss" />
      <text
         xml:space="preserve"
         style="font-style:normal;font-variant:normal;font-weight:normal;font-stretch:normal;font-size:8.48178px;font-family:'Noto Sans Yi';-inkscape-font-specification:'Noto Sans Yi';text-align:center;text-anchor:middle;fill:#09090b;fill-opacity:1;stroke:none;stroke-width:2.59396;stroke-linecap:round;stroke-linejoin:round;stroke-dasharray:none;stroke-opacity:1"
         x="279.77771"
         y="102.17416"
         id="text17948"
         transform="translate(114.35036,97.628497)"><tspan
           sodipodi:role="line"
           style="stroke:none;stroke-width:2.59396"
           x="279.77771"
           y="102.17416"
           id="tspan18071">Caso algo não seja lido </tspan><tspan
           sodipodi:role="line"
           style="stroke:none;stroke-width:2.59396"
           x="279.77771"
           y="112.77638"
           id="tspan18080">certinho, é só editar</tspan><tspan
           sodipodi:role="line"
           style="stroke:none;stroke-width:2.59396"
           x="279.77771"
           y="123.37861"
           id="tspan18082">posteriormente</tspan></text>
      <g
         id="g17691"
         transform="translate(8.7296611,56.368669)">
        <g
           id="g16629">
          <g
             id="g16574"
             transform="rotate(-10.804484,254.19421,67.420044)">
            <path
               id="path3614-5-9-2-0-9-5-3-6"
               style="fill:#ffffff;stroke:#09090b;stroke-width:1.09531;stroke-linecap:round;stroke-linejoin:round;stroke-dasharray:none;stroke-opacity:1"
               d="m 284.01942,214.71768 c -3.42563,-0.0349 -0.25511,8.38912 3.72071,10.89752 0.71578,0.43848 1.41968,0.81358 2.09961,1.13585 l -0.0754,0.12351 c -1.59298,0.82785 -1.43982,2.99791 1.1989,4.3496 2.63869,1.35171 4.81469,0.47646 4.81469,0.47646 l 1.42317,-2.92024 2.80603,0.58446 -1.76682,-2.90266 c 0,0 -1.51204,-2.76686 -9.36687,-9.17515 -2.28109,-1.82316 -3.8505,-2.55913 -4.85397,-2.56935 z" />
            <path
               style="fill:none;stroke:#09090b;stroke-width:1.09531;stroke-linecap:round;stroke-linejoin:round;stroke-dasharray:none;stroke-opacity:1"
               d="m 298.24047,226.46194 c 0,0 -1.51233,-2.7664 -9.36717,-9.1747 -10.06829,-8.04705 -6.2735,5.08471 -1.13304,8.3279 4.7401,2.90372 9.42016,3.13462 9.42016,3.13462"
               id="path3614-5-9-2-0-9-5-9"
               sodipodi:nodetypes="cccc" />
            <path
               style="fill:none;stroke:#09090b;stroke-width:1.09535;stroke-linecap:round;stroke-linejoin:round;stroke-dasharray:none;stroke-opacity:1"
               d="m 295.77763,231.70037 c 0,0 -2.17584,0.8753 -4.81454,-0.47641 -2.63872,-1.35169 -2.79189,-3.52174 -1.19891,-4.34959"
               id="path3616-4-6-1-8-1-8-2" />
          </g>
          <g
             id="g16574-6"
             transform="matrix(-0.98227258,-0.18745819,-0.18745819,0.98227258,677.19148,48.84597)">
            <path
               id="path3614-5-9-2-0-9-5-3-6-8"
               style="fill:#ffffff;stroke:#09090b;stroke-width:1.09531;stroke-linecap:round;stroke-linejoin:round;stroke-dasharray:none;stroke-opacity:1"
               d="m 284.01942,214.71768 c -3.42563,-0.0349 -0.25511,8.38912 3.72071,10.89752 0.71578,0.43848 1.41968,0.81358 2.09961,1.13585 l -0.0754,0.12351 c -1.59298,0.82785 -1.43982,2.99791 1.1989,4.3496 2.63869,1.35171 4.81469,0.47646 4.81469,0.47646 l 1.42317,-2.92024 2.80603,0.58446 -1.76682,-2.90266 c 0,0 -1.51204,-2.76686 -9.36687,-9.17515 -2.28109,-1.82316 -3.8505,-2.55913 -4.85397,-2.56935 z" />
            <path
               style="fill:none;stroke:#09090b;stroke-width:1.09531;stroke-linecap:round;stroke-linejoin:round;stroke-dasharray:none;stroke-opacity:1"
               d="m 298.24047,226.46194 c 0,0 -1.51233,-2.7664 -9.36717,-9.1747 -10.06829,-8.04705 -6.2735,5.08471 -1.13304,8.3279 4.7401,2.90372 9.42016,3.13462 9.42016,3.13462"
               id="path3614-5-9-2-0-9-5-9-0"
               sodipodi:nodetypes="cccc" />
            <path
               style="fill:none;stroke:#09090b;stroke-width:1.09535;stroke-linecap:round;stroke-linejoin:round;stroke-dasharray:none;stroke-opacity:1"
               d="m 295.77763,231.70037 c 0,0 -2.17584,0.8753 -4.81454,-0.47641 -2.63872,-1.35169 -2.79189,-3.52174 -1.19891,-4.34959"
               id="path3616-4-6-1-8-1-8-2-2" />
          </g>
        </g>
        <path
           id="path12641"
           style="fill:url(#linearGradient13872);fill-opacity:1;stroke:#09090b;stroke-width:0.96417;stroke-linecap:round;stroke-linejoin:round;stroke-dasharray:none;stroke-opacity:1"
           d="m 334.66421,205.92715 a 10.517915,13.583581 0 0 0 -10.5177,13.58315 10.517915,13.583581 0 0 0 0.0191,0.68988 v 13.53199 h 20.99768 v -13.53199 a 10.517915,13.583581 0 0 0 0.0191,-0.68988 10.517915,13.583581 0 0 0 -10.51822,-13.58315 z" />
        <path
           id="path12641-5"
           style="fill:#09090b;fill-opacity:1;stroke:#09090b;stroke-width:0.96417;stroke-linecap:round;stroke-linejoin:round;stroke-dasharray:none;stroke-opacity:1"
           d="m 344.8393,227.29696 c 0,0 -8.5103,4.78968 -20.27473,0.44545 l -0.39895,1.92082 v 4.069 h 20.99769 v -5.01778 z" />
        <g
           id="g12684"
           transform="translate(0.17180156,13.218571)">
          <path
             id="path982-6-9-4-9-6-7-5-6-9-6"
             style="fill:url(#linearGradient10434);fill-opacity:1;stroke:#09090b;stroke-width:0.978171;stroke-dasharray:none;stroke-opacity:1"
             inkscape:label="corpo_inteiro"
             d="m 314.71503,164.6225 c 0,0 -5.45833,10.12447 -1.50523,18.60432 a 21.535863,16.473485 0 0 0 -0.42233,3.24227 21.535863,16.473485 0 0 0 21.53583,16.47343 21.535863,16.473485 0 0 0 21.53582,-16.47343 21.535863,16.473485 0 0 0 -0.42186,-3.24318 c 3.95227,-8.47967 -1.50569,-18.60341 -1.50569,-18.60341 -6.30207,1.30434 -10.47915,4.67069 -12.27955,6.35736 a 21.535863,16.473485 0 0 0 -7.32872,-0.9842 21.535863,16.473485 0 0 0 -7.32275,0.98971 c -1.79733,-1.68492 -5.9769,-5.05718 -12.28552,-6.36287 z" />
          <g
             id="g13834-9-1-1-3-0-3-5-3"
             inkscape:label="rosto"
             transform="matrix(1.1575888,0.22560533,-0.22560533,1.1575888,202.5799,37.843542)">
            <g
               id="g8515-2-0-8"
               transform="translate(0.06754306,0.7989833)">
              <path
                 style="fill:none;stroke:#09090b;stroke-width:0.781215;stroke-linecap:round;stroke-linejoin:round;stroke-dasharray:none;stroke-opacity:1"
                 d="m 136.92669,100.94741 c 0,0 0.16783,-6.725884 8.95119,-9.916656"
                 id="path3509-3-0-7-0-2-9-0-4-5" />
              <path
                 style="fill:none;stroke:#09090b;stroke-width:0.781215;stroke-linecap:round;stroke-linejoin:round;stroke-dasharray:none;stroke-opacity:1"
                 d="m 129.86107,102.32445 c 0,0 -2.68126,-6.17062 -12.02001,-5.829531"
                 id="path3509-3-0-7-0-2-9-2-6-87-6" />
            </g>
            <g
               id="g8484-1-1-1"
               transform="translate(1.3638877,2.9827763)">
              <path
                 style="fill:none;stroke:#09090b;stroke-width:0.825034;stroke-linecap:round;stroke-linejoin:round;stroke-dasharray:none;stroke-opacity:1"
                 d="m 127.29822,103.10793 c 0,0 3.08332,1.23021 5.23915,-1.39901 2.98537,1.62725 5.38106,-0.67078 5.38106,-0.67078"
                 id="path3600-0-5-9-1-5-6-6-5-7-1"
                 sodipodi:nodetypes="ccc" />
              <ellipse
                 style="fill:#09090b;fill-opacity:1;stroke:#09090b;stroke-width:0.0242048;stroke-dasharray:none;stroke-opacity:1"
                 id="path982-7-7-0-6-1-9-0-5-2-5"
                 cx="117.68555"
                 cy="117.26261"
                 rx="0.47794119"
                 ry="0.38952991"
                 transform="rotate(-7.6741943)"
                 inkscape:label="nariz" />
            </g>
          </g>
          <g
             id="g8875-4-72-9"
             transform="matrix(1.0566691,0,0,1.0566691,87.653393,7.1269594)">
            <g
               id="g8772-7-2-8"
               transform="translate(0,-0.54073915)">
              <g
                 id="path10252-5-9-8-5-9-8-2-6-61-4"
                 transform="matrix(1.0439294,0.3948832,-0.3948832,1.0439294,70.994723,-17.08678)">
                <path
                   style="color:#000000;fill:#ff6b00;stroke-width:0.825034;stroke-linecap:round;stroke-linejoin:round;-inkscape-stroke:none"
                   d="m 210.66653,99.708493 3.76606,-1.4911"
                   id="path23727-0-8-5-0-8" />
                <path
                   style="color:#000000;fill:#09090b;stroke-linecap:round;stroke-linejoin:round;-inkscape-stroke:none"
                   d="m 214.28125,97.833984 -3.76563,1.490235 a 0.41251701,0.41251701 0 0 0 -0.23242,0.537109 0.41251701,0.41251701 0 0 0 0.53516,0.230472 l 3.76562,-1.490238 a 0.41251701,0.41251701 0 0 0 0.23243,-0.535156 0.41251701,0.41251701 0 0 0 -0.53516,-0.232422 z"
                   id="path23724-4-9-6-6-1" />
              </g>
              <g
                 id="path10254-69-8-5-8-9-2-7-9-1-0"
                 transform="matrix(1.0439294,0.3948832,-0.3948832,1.0439294,70.994723,-17.08678)">
                <path
                   style="color:#000000;fill:#ff6b00;stroke-width:0.825034;stroke-linecap:round;stroke-linejoin:round;-inkscape-stroke:none"
                   d="m 211.04781,102.38693 3.84656,0.10638"
                   id="path23711-9-3-3-5-3" />
                <path
                   style="color:#000000;fill:#09090b;stroke-linecap:round;stroke-linejoin:round;-inkscape-stroke:none"
                   d="m 211.05859,101.97461 a 0.41251701,0.41251701 0 0 0 -0.42382,0.40039 0.41251701,0.41251701 0 0 0 0.40234,0.42383 l 3.8457,0.10742 a 0.41251701,0.41251701 0 0 0 0.42383,-0.40234 0.41251701,0.41251701 0 0 0 -0.40039,-0.42383 z"
                   id="path23708-6-6-7-9-0" />
              </g>
              <g
                 id="path10256-3-4-9-6-0-1-1-4-49-4"
                 transform="matrix(1.0439294,0.3948832,-0.3948832,1.0439294,70.994723,-17.08678)">
                <path
                   style="color:#000000;fill:#ff6b00;stroke-width:0.825034;stroke-linecap:round;stroke-linejoin:round;-inkscape-stroke:none"
                   d="m 210.64073,105.10813 2.86428,0.8864"
                   id="path23717-0-2-5-09-4" />
                <path
                   style="color:#000000;fill:#09090b;stroke-linecap:round;stroke-linejoin:round;-inkscape-stroke:none"
                   d="m 210.76172,104.71484 a 0.41251701,0.41251701 0 0 0 -0.51563,0.27149 0.41251701,0.41251701 0 0 0 0.27344,0.51562 l 2.86328,0.88672 a 0.41251701,0.41251701 0 0 0 0.51563,-0.27148 0.41251701,0.41251701 0 0 0 -0.27149,-0.51758 z"
                   id="path23714-4-9-2-1-4" />
              </g>
            </g>
            <g
               id="g8772-3-5-7-4"
               transform="matrix(-1,0,0,1,467.20256,-0.54073915)">
              <g
                 id="path10252-5-9-8-5-9-8-2-1-4-71-7"
                 transform="matrix(1.0439294,0.3948832,-0.3948832,1.0439294,70.994723,-17.08678)">
                <path
                   style="color:#000000;fill:#ff6b00;stroke-width:0.825034;stroke-linecap:round;stroke-linejoin:round;-inkscape-stroke:none"
                   d="m 210.66653,99.708493 3.76606,-1.4911"
                   id="path23727-0-8-9-7-1-6" />
                <path
                   style="color:#000000;fill:#09090b;stroke-linecap:round;stroke-linejoin:round;-inkscape-stroke:none"
                   d="m 214.28125,97.833984 -3.76563,1.490235 a 0.41251701,0.41251701 0 0 0 -0.23242,0.537109 0.41251701,0.41251701 0 0 0 0.53516,0.230472 l 3.76562,-1.490238 a 0.41251701,0.41251701 0 0 0 0.23243,-0.535156 0.41251701,0.41251701 0 0 0 -0.53516,-0.232422 z"
                   id="path23724-4-9-4-4-5-3" />
              </g>
              <g
                 id="path10254-69-8-5-8-9-2-7-7-4-9-1"
                 transform="matrix(1.0439294,0.3948832,-0.3948832,1.0439294,70.994723,-17.08678)">
                <path
                   style="color:#000000;fill:#ff6b00;stroke-width:0.825034;stroke-linecap:round;stroke-linejoin:round;-inkscape-stroke:none"
                   d="m 211.04781,102.38693 3.84656,0.10638"
                   id="path23711-9-3-8-3-77-7" />
                <path
                   style="color:#000000;fill:#09090b;stroke-linecap:round;stroke-linejoin:round;-inkscape-stroke:none"
                   d="m 211.05859,101.97461 a 0.41251701,0.41251701 0 0 0 -0.42382,0.40039 0.41251701,0.41251701 0 0 0 0.40234,0.42383 l 3.8457,0.10742 a 0.41251701,0.41251701 0 0 0 0.42383,-0.40234 0.41251701,0.41251701 0 0 0 -0.40039,-0.42383 z"
                   id="path23708-6-6-4-0-6-5" />
              </g>
              <g
                 id="path10256-3-4-9-6-0-1-1-5-7-73-9"
                 transform="matrix(1.0439294,0.3948832,-0.3948832,1.0439294,70.994723,-17.08678)">
                <path
                   style="color:#000000;fill:#ff6b00;stroke-width:0.825034;stroke-linecap:round;stroke-linejoin:round;-inkscape-stroke:none"
                   d="m 210.64073,105.10813 2.86428,0.8864"
                   id="path23717-0-2-0-8-6-6" />
                <path
                   style="color:#000000;fill:#09090b;stroke-linecap:round;stroke-linejoin:round;-inkscape-stroke:none"
                   d="m 210.76172,104.71484 a 0.41251701,0.41251701 0 0 0 -0.51563,0.27149 0.41251701,0.41251701 0 0 0 0.27344,0.51562 l 2.86328,0.88672 a 0.41251701,0.41251701 0 0 0 0.51563,-0.27148 0.41251701,0.41251701 0 0 0 -0.27149,-0.51758 z"
                   id="path23714-4-9-3-6-56-2" />
              </g>
            </g>
          </g>
          <g
             id="g8686-8-39-1"
             transform="matrix(1.0566691,0,0,1.0566691,88.174595,2.8936258)">
            <g
               id="g8625-8-4-7"
               transform="translate(-0.86423475,0.42111772)">
              <circle
                 style="fill:#09090b;fill-opacity:1;stroke:#09090b;stroke-width:0.861271;stroke-dasharray:none;stroke-opacity:1"
                 id="path3345-36-1-4-6-2-1-4-81-8"
                 cx="221.62476"
                 cy="146.54375"
                 r="2.0482965" />
              <path
                 style="fill:none;stroke:#09090b;stroke-width:0.991283;stroke-linecap:round;stroke-dasharray:none;stroke-opacity:1"
                 d="m 222.66772,147.3609 c 0,0 7.4089,3.28108 7.25014,12.27759"
                 id="path3480-0-9-6-0-6-7-3-29-5" />
            </g>
            <g
               id="g8625-5-1-3-7"
               transform="matrix(-1,0,0,1,466.07872,0.42111772)">
              <circle
                 style="fill:#09090b;fill-opacity:1;stroke:#09090b;stroke-width:0.861271;stroke-dasharray:none;stroke-opacity:1"
                 id="path3345-36-1-4-6-2-1-9-4-90-4"
                 cx="221.62476"
                 cy="146.54375"
                 r="2.0482965" />
              <path
                 style="fill:none;stroke:#09090b;stroke-width:0.991283;stroke-linecap:round;stroke-dasharray:none;stroke-opacity:1"
                 d="m 222.66772,147.3609 c 0,0 7.4089,3.28108 7.25014,12.27759"
                 id="path3480-0-9-6-0-6-7-2-9-8-1" />
            </g>
          </g>
        </g>
        <path
           style="fill:#09090b;fill-opacity:1;stroke:#09090b;stroke-width:1.0172;stroke-linecap:round;stroke-linejoin:round;stroke-dasharray:none;stroke-opacity:1"
           d="m 344.70167,216.88037 c 0,0 -8.53177,4.32072 -20.32591,0.40183 l -0.0477,2.62816 c 0,0 8.39637,5.05758 20.5967,-0.37578 z"
           id="path3618-7-8-8-0-9-2-0"
           sodipodi:nodetypes="ccccc" />
        <path
           style="fill:#09090b;fill-opacity:1;stroke:#09090b;stroke-width:1.07045;stroke-linecap:round;stroke-linejoin:round;stroke-dasharray:none;stroke-opacity:1"
           d="m 344.85076,221.91084 c 0,0 -8.50972,4.79734 -20.27339,0.44614 l -0.0476,2.91809 c 0,0 8.37468,5.61549 20.54348,-0.41723 z"
           id="path3618-7-8-8-0-9-2-0-1"
           sodipodi:nodetypes="ccccc" />
        <circle
           style="fill:#09090b;fill-opacity:1;stroke:#09090b;stroke-width:0.971;stroke-linecap:round;stroke-linejoin:round;stroke-dasharray:none;stroke-opacity:1"
           id="path17611"
           cx="343.39908"
           cy="214.77309"
           r="3.1745842" />
      </g>
    </g>
  </g>
</svg>
