<?xml version="1.0" encoding="UTF-8" standalone="no"?>
<!-- Created with Inkscape (http://www.inkscape.org/) -->

<svg
   width="110.44507mm"
   height="132.28406mm"
   viewBox="0 0 110.44507 132.28406"
   version="1.1"
   id="svg10075"
   sodipodi:docname="beezer_rosto.svg"
   inkscape:version="1.2.2 (b0a8486541, 2022-12-01)"
   xmlns:inkscape="http://www.inkscape.org/namespaces/inkscape"
   xmlns:sodipodi="http://sodipodi.sourceforge.net/DTD/sodipodi-0.dtd"
   xmlns:xlink="http://www.w3.org/1999/xlink"
   xmlns="http://www.w3.org/2000/svg"
   xmlns:svg="http://www.w3.org/2000/svg">
  <sodipodi:namedview
     id="namedview10077"
     pagecolor="#ffffff"
     bordercolor="#000000"
     borderopacity="0.25"
     inkscape:showpageshadow="2"
     inkscape:pageopacity="0.0"
     inkscape:pagecheckerboard="0"
     inkscape:deskcolor="#d1d1d1"
     inkscape:document-units="mm"
     showgrid="false"
     inkscape:zoom="0.75009824"
     inkscape:cx="1187.8444"
     inkscape:cy="1212.5078"
     inkscape:window-width="1854"
     inkscape:window-height="1009"
     inkscape:window-x="66"
     inkscape:window-y="32"
     inkscape:window-maximized="1"
     inkscape:current-layer="layer1" />
  <defs
     id="defs10072">
    <linearGradient
       inkscape:collect="always"
       id="linearGradient13870">
      <stop
         style="stop-color:#ff8704;stop-opacity:1;"
         offset="0.00000001"
         id="stop13866" />
      <stop
         style="stop-color:#ffa40b;stop-opacity:1;"
         offset="1"
         id="stop13868" />
    </linearGradient>
    <linearGradient
       inkscape:collect="always"
       id="linearGradient6936">
      <stop
         style="stop-color:#ff7701;stop-opacity:1;"
         offset="0"
         id="stop6932" />
      <stop
         style="stop-color:#ffcb13;stop-opacity:1;"
         offset="1"
         id="stop6934" />
    </linearGradient>
    <linearGradient
       inkscape:collect="always"
       xlink:href="#linearGradient6936"
       id="linearGradient24723"
       gradientUnits="userSpaceOnUse"
       gradientTransform="matrix(-1.9178397,0.17148325,0.17148325,1.9178397,534.65716,7.5671421)"
       x1="120.89243"
       y1="64.949829"
       x2="125.26547"
       y2="33.846684" />
    <linearGradient
       inkscape:collect="always"
       xlink:href="#linearGradient13870"
       id="linearGradient2322"
       gradientUnits="userSpaceOnUse"
       gradientTransform="matrix(0.85318242,0,0,0.85318242,-80.374702,174.30734)"
       x1="334.76358"
       y1="233.79712"
       x2="335.3136"
       y2="194.38895" />
    <linearGradient
       inkscape:collect="always"
       xlink:href="#linearGradient6936"
       id="linearGradient2008"
       gradientUnits="userSpaceOnUse"
       gradientTransform="matrix(-1.8606454,0.37094115,0.37094115,1.8606454,497.82937,343.87914)"
       x1="120.89243"
       y1="64.949829"
       x2="125.26547"
       y2="33.846684" />
  </defs>
  <g
     inkscape:label="Layer 1"
     inkscape:groupmode="layer"
     id="layer1"
     transform="translate(-259.74295,-388.58716)">
    <path
       id="path3789-6-0-0"
       style="fill:#ffffff;stroke:#000000;stroke-width:0.97638;stroke-linecap:round;stroke-linejoin:round;stroke-dasharray:none"
       d="m 277.49369,389.07534 c -2.77887,0 -5.01595,2.23709 -5.01595,5.01595 v 55.16238 c 0,2.77886 2.23708,5.01595 5.01595,5.01595 h 47.16534 c 0.10588,1.92341 -0.12022,5.31355 -2.50148,8.06618 8.07219,-2.98701 9.73145,-5.7078 10.26366,-8.06618 h 32.26266 c 2.77886,0 5.01595,-2.23709 5.01595,-5.01595 v -55.16238 c 0,-2.77886 -2.23709,-5.01595 -5.01595,-5.01595 z"
       sodipodi:nodetypes="sssscccsssss"
       inkscape:export-filename="balao.svg"
       inkscape:export-xdpi="96"
       inkscape:export-ydpi="96" />
    <g
       id="g2350"
       transform="translate(81.569177,146.73633)">
      <g
         id="g16629-4-9"
         transform="matrix(0.85318242,0,0,0.85318242,-80.374702,174.30734)"
         inkscape:export-filename="anim_gatinho_corpo.svg"
         inkscape:export-xdpi="96"
         inkscape:export-ydpi="96">
        <g
           id="g16574-3-3"
           transform="rotate(-10.804484,254.19421,67.420044)">
          <path
             id="path3614-5-9-2-0-9-5-3-6-1-1"
             style="fill:#ffffff;stroke:#09090b;stroke-width:1.09531;stroke-linecap:round;stroke-linejoin:round;stroke-dasharray:none;stroke-opacity:1"
             d="m 284.01942,214.71768 c -3.42563,-0.0349 -0.25511,8.38912 3.72071,10.89752 0.71578,0.43848 1.41968,0.81358 2.09961,1.13585 l -0.0754,0.12351 c -1.59298,0.82785 -1.43982,2.99791 1.1989,4.3496 2.63869,1.35171 4.81469,0.47646 4.81469,0.47646 l 1.42317,-2.92024 2.80603,0.58446 -1.76682,-2.90266 c 0,0 -1.51204,-2.76686 -9.36687,-9.17515 -2.28109,-1.82316 -3.8505,-2.55913 -4.85397,-2.56935 z" />
          <path
             style="fill:none;stroke:#09090b;stroke-width:1.09531;stroke-linecap:round;stroke-linejoin:round;stroke-dasharray:none;stroke-opacity:1"
             d="m 298.24047,226.46194 c 0,0 -1.51233,-2.7664 -9.36717,-9.1747 -10.06829,-8.04705 -6.2735,5.08471 -1.13304,8.3279 4.7401,2.90372 9.42016,3.13462 9.42016,3.13462"
             id="path3614-5-9-2-0-9-5-9-4-9"
             sodipodi:nodetypes="cccc" />
          <path
             style="fill:none;stroke:#09090b;stroke-width:1.09535;stroke-linecap:round;stroke-linejoin:round;stroke-dasharray:none;stroke-opacity:1"
             d="m 295.77763,231.70037 c 0,0 -2.17584,0.8753 -4.81454,-0.47641 -2.63872,-1.35169 -2.79189,-3.52174 -1.19891,-4.34959"
             id="path3616-4-6-1-8-1-8-2-6-4" />
        </g>
        <g
           id="g16574-6-9-7"
           transform="matrix(-0.98227258,-0.18745819,-0.18745819,0.98227258,677.19148,48.84597)">
          <path
             id="path3614-5-9-2-0-9-5-3-6-8-4-8"
             style="fill:#ffffff;stroke:#09090b;stroke-width:1.09531;stroke-linecap:round;stroke-linejoin:round;stroke-dasharray:none;stroke-opacity:1"
             d="m 284.01942,214.71768 c -3.42563,-0.0349 -0.25511,8.38912 3.72071,10.89752 0.71578,0.43848 1.41968,0.81358 2.09961,1.13585 l -0.0754,0.12351 c -1.59298,0.82785 -1.43982,2.99791 1.1989,4.3496 2.63869,1.35171 4.81469,0.47646 4.81469,0.47646 l 1.42317,-2.92024 2.80603,0.58446 -1.76682,-2.90266 c 0,0 -1.51204,-2.76686 -9.36687,-9.17515 -2.28109,-1.82316 -3.8505,-2.55913 -4.85397,-2.56935 z" />
          <path
             style="fill:none;stroke:#09090b;stroke-width:1.09531;stroke-linecap:round;stroke-linejoin:round;stroke-dasharray:none;stroke-opacity:1"
             d="m 298.24047,226.46194 c 0,0 -1.51233,-2.7664 -9.36717,-9.1747 -10.06829,-8.04705 -6.2735,5.08471 -1.13304,8.3279 4.7401,2.90372 9.42016,3.13462 9.42016,3.13462"
             id="path3614-5-9-2-0-9-5-9-0-2-4"
             sodipodi:nodetypes="cccc" />
          <path
             style="fill:none;stroke:#09090b;stroke-width:1.09535;stroke-linecap:round;stroke-linejoin:round;stroke-dasharray:none;stroke-opacity:1"
             d="m 295.77763,231.70037 c 0,0 -2.17584,0.8753 -4.81454,-0.47641 -2.63872,-1.35169 -2.79189,-3.52174 -1.19891,-4.34959"
             id="path3616-4-6-1-8-1-8-2-2-2-5" />
        </g>
      </g>
      <path
         id="path12641-6-0"
         style="fill:url(#linearGradient2322);fill-opacity:1;stroke:#09090b;stroke-width:0.822613;stroke-linecap:round;stroke-linejoin:round;stroke-dasharray:none;stroke-opacity:1"
         d="m 205.15492,350.00076 a 8.9737002,11.589273 0 0 0 -8.97352,11.58891 8.9737002,11.589273 0 0 0 0.0163,0.58859 v 11.54525 h 17.91485 v -11.54525 a 8.9737002,11.589273 0 0 0 0.0163,-0.58859 8.9737002,11.589273 0 0 0 -8.97397,-11.58891 z" />
      <path
         id="path12641-5-4-3"
         style="fill:#09090b;fill-opacity:1;stroke:#09090b;stroke-width:0.822613;stroke-linecap:round;stroke-linejoin:round;stroke-dasharray:none;stroke-opacity:1"
         d="m 213.83613,368.23311 c 0,0 -7.26084,4.08647 -17.29805,0.38005 l -0.34037,1.63881 v 3.4716 h 17.91486 v -4.28109 z" />
      <path
         style="fill:#09090b;fill-opacity:1;stroke:#09090b;stroke-width:0.867857;stroke-linecap:round;stroke-linejoin:round;stroke-dasharray:none;stroke-opacity:1"
         d="m 213.7187,359.34586 c 0,0 -7.27915,3.68636 -17.34171,0.34283 l -0.0407,2.2423 c 0,0 7.16363,4.31504 17.57274,-0.32061 z"
         id="path3618-7-8-8-0-9-2-0-6-6"
         sodipodi:nodetypes="ccccc" />
      <path
         style="fill:#09090b;fill-opacity:1;stroke:#09090b;stroke-width:0.913289;stroke-linecap:round;stroke-linejoin:round;stroke-dasharray:none;stroke-opacity:1"
         d="m 213.8459,363.63776 c 0,0 -7.26034,4.09301 -17.2969,0.38064 l -0.0406,2.48967 c 0,0 7.14513,4.79103 17.52734,-0.35598 z"
         id="path3618-7-8-8-0-9-2-0-1-0-1"
         sodipodi:nodetypes="ccccc" />
    </g>
    <text
       xml:space="preserve"
       style="font-style:normal;font-variant:normal;font-weight:normal;font-stretch:normal;font-size:8.48178px;font-family:'Noto Sans Yi';-inkscape-font-specification:'Noto Sans Yi';text-align:center;text-anchor:middle;fill:#09090b;fill-opacity:1;stroke:none;stroke-width:2.59396;stroke-linecap:round;stroke-linejoin:round;stroke-dasharray:none;stroke-opacity:1"
       x="321.08453"
       y="404.36703"
       id="text17948-1-1-6"><tspan
         sodipodi:role="line"
         style="stroke:none;stroke-width:2.59396"
         x="321.08453"
         y="404.36703"
         id="tspan21669-4-5">Será necessário </tspan><tspan
         sodipodi:role="line"
         style="stroke:none;stroke-width:2.59396"
         x="321.08453"
         y="414.96927"
         id="tspan2979">aumentar os horários</tspan><tspan
         sodipodi:role="line"
         style="stroke:none;stroke-width:2.59396"
         x="321.08453"
         y="425.57147"
         id="tspan2981">de estudo para</tspan><tspan
         sodipodi:role="line"
         style="stroke:none;stroke-width:2.59396"
         x="321.08453"
         y="436.17371"
         id="tspan2983">dar conta das tarefas </tspan><tspan
         sodipodi:role="line"
         style="stroke:none;stroke-width:2.59396"
         x="321.08453"
         y="446.77594"
         id="tspan2985">da semana...</tspan></text>
    <g
       id="g2082"
       transform="translate(99.022671,251.15457)">
      <path
         id="path982-6-9-4-9-6-5"
         style="fill:url(#linearGradient24723);fill-opacity:1;stroke:#09090b;stroke-width:1.10115;stroke-linecap:round;stroke-linejoin:round;stroke-dasharray:none;stroke-opacity:1"
         d="m 299.81967,108.19227 c 0.77127,-0.14219 1.54983,-0.25055 2.33236,-0.32411 4.26086,-0.37924 7.35855,0.028 11.07909,1.63256 0.81797,-1.30866 4.36292,-4.22163 9.04113,-5.66821 0,0 3.89331,6.15389 1.25779,13.83578 1.04009,1.85501 1.66858,3.85642 1.85707,5.91378 0.82527,9.24089 -7.2343,17.69886 -18.48025,19.39378 -0.0711,1.9442 1.03322,15.24302 1.73055,21.92022 0,0 -11.06977,0.31166 -24.47659,0 -3.87992,-19.23302 2.95411,-23.53647 5.35483,-25.53988 -4.34717,-2.9466 -7.02345,-7.22666 -7.44171,-11.90113 -0.21416,-2.43386 -0.26279,-4.25276 0.73721,-6.58865 -4.70607,-10.35421 3.34192,-22.017622 3.34192,-22.017622 8.15233,2.524042 12.45806,7.813692 13.6666,9.343482 z"
         sodipodi:nodetypes="cccccccccccccc"
         inkscape:label="corpo_inteiro"
         inkscape:export-filename="gatinho07.svg"
         inkscape:export-xdpi="96"
         inkscape:export-ydpi="96" />
      <g
         id="g13841-48-4-3-0-1"
         inkscape:label="antenas"
         transform="matrix(-1.3937911,0.31624455,0.31624455,1.3937911,460.48863,-46.249602)">
        <circle
           style="fill:#09090b;fill-opacity:1;stroke:#09090b;stroke-width:0.716826;stroke-dasharray:none;stroke-opacity:1"
           id="path3345-36-1-4-6-2-1"
           cx="123.4136"
           cy="76.212181"
           r="1.7047741" />
        <circle
           style="fill:#09090b;fill-opacity:1;stroke:#09090b;stroke-width:0.716826;stroke-dasharray:none;stroke-opacity:1"
           id="path3345-3-1-2-7-8-7-0"
           cx="114.35101"
           cy="83.406479"
           r="1.7047741" />
        <path
           style="fill:none;stroke:#09090b;stroke-width:0.825034;stroke-linecap:round;stroke-dasharray:none;stroke-opacity:1"
           d="m 124.28165,76.892283 c 0,0 6.16634,2.730808 6.03421,10.218506"
           id="path3480-0-9-6-0-6-8" />
        <path
           style="fill:none;stroke:#09090b;stroke-width:0.825034;stroke-linecap:round;stroke-dasharray:none;stroke-opacity:1"
           d="m 114.8996,83.092811 c 0,0 6.6521,-1.109253 10.6585,5.21782"
           id="path3480-6-6-3-3-2-1-5" />
      </g>
      <g
         id="g13834-9-1-1-3-0"
         inkscape:label="rosto"
         transform="matrix(-1.2947389,0.29377008,0.29377008,1.2947389,449.53351,-34.523288)">
        <path
           style="fill:none;stroke:#09090b;stroke-width:0.825034;stroke-linecap:round;stroke-linejoin:round;stroke-dasharray:none;stroke-opacity:1"
           d="m 133.16189,97.764325 c 0,0 0.12461,-7.225574 9.21883,-10.589203"
           id="path3509-3-0-7-0-2-6" />
        <path
           style="fill:none;stroke:#09090b;stroke-width:0.825034;stroke-linecap:round;stroke-linejoin:round;stroke-dasharray:none;stroke-opacity:1"
           d="m 120.04997,93.435211 c 0,0 4.57827,0.03115 6.88299,5.512615"
           id="path3511-2-88-5-5-1-4"
           sodipodi:nodetypes="cc" />
        <path
           style="fill:none;stroke:#09090b;stroke-width:0.825034;stroke-linecap:round;stroke-linejoin:round;stroke-dasharray:none;stroke-opacity:1"
           d="m 127.02638,101.50169 c -0.0502,0.043 1.55673,0.82133 2.61617,-0.35816 0,0 3.08332,1.23021 5.09215,-1.37037"
           id="path3600-0-5-9-1-5-6"
           sodipodi:nodetypes="ccc" />
        <ellipse
           style="fill:#09090b;fill-opacity:1;stroke:#09090b;stroke-width:0.0242048;stroke-dasharray:none;stroke-opacity:1"
           id="path982-7-7-0-6-1-9-2"
           cx="114.72797"
           cy="116.07372"
           rx="0.47794119"
           ry="0.38952991"
           transform="rotate(-7.6741943)"
           inkscape:label="nariz" />
      </g>
      <path
         id="path3614-5-9-2-0-9-5-3"
         style="fill:#ffffff;stroke:#09090b;stroke-width:1.09531;stroke-linecap:round;stroke-linejoin:round;stroke-dasharray:none;stroke-opacity:1"
         d="m 272.34099,130.10846 c -3.42563,-0.0349 -0.25511,8.38912 3.72071,10.89752 0.71578,0.43848 1.41968,0.81358 2.09961,1.13585 l -0.0754,0.12351 c -1.59298,0.82785 -1.43982,2.99791 1.1989,4.3496 2.63869,1.35171 4.81469,0.47646 4.81469,0.47646 l 1.42317,-2.92024 2.80603,0.58446 -1.76682,-2.90266 c 0,0 -1.51204,-2.76686 -9.36687,-9.17515 -2.28109,-1.82316 -3.8505,-2.55913 -4.85397,-2.56935 z" />
      <path
         style="fill:none;stroke:#09090b;stroke-width:1.09531;stroke-linecap:round;stroke-linejoin:round;stroke-dasharray:none;stroke-opacity:1"
         d="m 286.56204,141.85272 c 0,0 -1.51233,-2.7664 -9.36717,-9.1747 -10.06829,-8.04705 -6.2735,5.08471 -1.13304,8.3279 4.7401,2.90372 9.42016,3.13462 9.42016,3.13462"
         id="path3614-5-9-2-0-9-5"
         sodipodi:nodetypes="cccc" />
      <path
         style="fill:none;stroke:#09090b;stroke-width:1.09535;stroke-linecap:round;stroke-linejoin:round;stroke-dasharray:none;stroke-opacity:1"
         d="m 284.0992,147.09115 c 0,0 -2.17584,0.8753 -4.81454,-0.47641 -2.63872,-1.35169 -2.79189,-3.52174 -1.19891,-4.34959"
         id="path3616-4-6-1-8-1-8" />
      <g
         id="g13853-3-7-5-4-6"
         inkscape:label="listras"
         transform="matrix(-1.2947389,0.29377008,0.29377008,1.2947389,449.53351,-34.523288)"
         style="fill:#09090b;fill-opacity:1;stroke:#09090b;stroke-opacity:1">
        <path
           style="fill:#09090b;fill-opacity:1;stroke:#09090b;stroke-width:0.825034;stroke-linecap:round;stroke-linejoin:round;stroke-dasharray:none;stroke-opacity:1"
           d="m 134.88878,108.12095 c 0,0 6.83808,1.01866 13.40902,-5.8334 l 1.49538,1.45656 c 0,0 -4.42175,7.05374 -14.73185,6.60265 z"
           id="path3618-7-8-8-0-9-2"
           sodipodi:nodetypes="ccccc" />
        <path
           style="fill:#09090b;fill-opacity:1;stroke:#09090b;stroke-width:0.825034;stroke-linecap:round;stroke-linejoin:round;stroke-dasharray:none;stroke-opacity:1"
           d="m 135.5472,112.96395 c 0,0 9.98471,1.24371 16.08559,-6.87315 l 0.89366,2.52823 c 0,0 -6.7881,7.80879 -16.75519,6.62584 z"
           id="path3620-6-5-5-6-1-8"
           sodipodi:nodetypes="ccccc" />
      </g>
      <path
         style="fill:#09090b;fill-opacity:1;stroke:#09090b;stroke-width:1.09535;stroke-linecap:round;stroke-linejoin:round;stroke-dasharray:none;stroke-opacity:1"
         d="m 307.60073,158.58699 c 0,0 -14.18345,4.60584 -24.46699,-4.11112 l 1.20688,10.27025 c 0,0 9.83572,-0.61347 24.07655,-0.33416 z"
         id="path3620-6-5-5-6-1-8-3"
         sodipodi:nodetypes="ccccc" />
      <path
         style="fill:none;stroke:#09090b;stroke-width:1.09535;stroke-linecap:round;stroke-linejoin:round;stroke-dasharray:none;stroke-opacity:1"
         d="m 325.17524,128.04125 1.09056,0.0236"
         id="path3608-6-61-7-4-0-4"
         sodipodi:nodetypes="cc" />
      <path
         style="fill:none;stroke:#09090b;stroke-width:1.09535;stroke-linecap:round;stroke-linejoin:round;stroke-dasharray:none;stroke-opacity:1"
         d="m 323.7058,131.99823 1.55937,0.45604"
         id="path3610-1-1-4-6-7-7"
         sodipodi:nodetypes="cc" />
      <path
         style="fill:none;stroke:#09090b;stroke-width:1.09535;stroke-linecap:round;stroke-linejoin:round;stroke-dasharray:none;stroke-opacity:1"
         d="m 321.28904,135.53221 0.91425,0.63755"
         id="path3612-5-5-1-2-5-2"
         sodipodi:nodetypes="cc" />
      <path
         style="fill:#ff6b00;fill-opacity:1;stroke:#09090b;stroke-width:1.09535;stroke-linecap:round;stroke-linejoin:round;stroke-dasharray:none;stroke-opacity:1"
         d="m 285.40509,127.57761 -5.31411,-0.82422"
         id="path10252-5-9-8-5-8-4"
         sodipodi:nodetypes="cc" />
      <path
         style="fill:#ff6b00;fill-opacity:1;stroke:#09090b;stroke-width:1.09535;stroke-linecap:round;stroke-linejoin:round;stroke-dasharray:none;stroke-opacity:1"
         d="m 285.69828,131.15749 -4.94904,1.26775"
         id="path10254-69-8-5-8-7-0"
         sodipodi:nodetypes="cc" />
      <path
         style="fill:#ff6b00;fill-opacity:1;stroke:#09090b;stroke-width:1.09535;stroke-linecap:round;stroke-linejoin:round;stroke-dasharray:none;stroke-opacity:1"
         d="m 287.02474,134.56115 -3.44809,1.98909"
         id="path10256-3-4-9-6-04-6"
         sodipodi:nodetypes="cc" />
      <g
         id="path10252-5-9-8-5-9-8-2"
         transform="matrix(-1.2947389,0.29377008,0.29377008,1.2947389,528.81041,-63.435527)">
        <path
           style="color:#000000;fill:#ff6b00;stroke-width:0.825034;stroke-linecap:round;stroke-linejoin:round;-inkscape-stroke:none"
           d="m 210.66653,99.708493 3.76606,-1.4911"
           id="path23727-0-9" />
        <path
           style="color:#000000;fill:#09090b;stroke-linecap:round;stroke-linejoin:round;-inkscape-stroke:none"
           d="m 214.28125,97.833984 -3.76563,1.490235 a 0.41251701,0.41251701 0 0 0 -0.23242,0.537109 0.41251701,0.41251701 0 0 0 0.53516,0.230472 l 3.76562,-1.490238 a 0.41251701,0.41251701 0 0 0 0.23243,-0.535156 0.41251701,0.41251701 0 0 0 -0.53516,-0.232422 z"
           id="path23724-4-9" />
      </g>
      <g
         id="path10254-69-8-5-8-9-2-0"
         transform="matrix(-1.2947389,0.29377008,0.29377008,1.2947389,528.81041,-63.435527)">
        <path
           style="color:#000000;fill:#ff6b00;stroke-width:0.825034;stroke-linecap:round;stroke-linejoin:round;-inkscape-stroke:none"
           d="m 211.04781,102.38693 3.84656,0.10638"
           id="path23711-9-8" />
        <path
           style="color:#000000;fill:#09090b;stroke-linecap:round;stroke-linejoin:round;-inkscape-stroke:none"
           d="m 211.05859,101.97461 a 0.41251701,0.41251701 0 0 0 -0.42382,0.40039 0.41251701,0.41251701 0 0 0 0.40234,0.42383 l 3.8457,0.10742 a 0.41251701,0.41251701 0 0 0 0.42383,-0.40234 0.41251701,0.41251701 0 0 0 -0.40039,-0.42383 z"
           id="path23708-6-1" />
      </g>
      <g
         id="path10256-3-4-9-6-0-1-3"
         transform="matrix(-1.2947389,0.29377008,0.29377008,1.2947389,528.81041,-63.435527)">
        <path
           style="color:#000000;fill:#ff6b00;stroke-width:0.825034;stroke-linecap:round;stroke-linejoin:round;-inkscape-stroke:none"
           d="m 210.64073,105.10813 2.86428,0.8864"
           id="path23717-0-1" />
        <path
           style="color:#000000;fill:#09090b;stroke-linecap:round;stroke-linejoin:round;-inkscape-stroke:none"
           d="m 210.76172,104.71484 a 0.41251701,0.41251701 0 0 0 -0.51563,0.27149 0.41251701,0.41251701 0 0 0 0.27344,0.51562 l 2.86328,0.88672 a 0.41251701,0.41251701 0 0 0 0.51563,-0.27148 0.41251701,0.41251701 0 0 0 -0.27149,-0.51758 z"
           id="path23714-4-1" />
      </g>
    </g>
    <g
       id="g2565"
       transform="translate(1.2050517,4.3133823)">
      <path
         id="path982-6-9-4-9-6-7-5-6-6-7"
         style="fill:url(#linearGradient2008);fill-opacity:1;stroke:#09090b;stroke-width:1.08501;stroke-dasharray:none;stroke-opacity:1"
         inkscape:label="corpo_inteiro"
         d="m 264.05338,459.52608 c 0,0 -6.0545,11.23031 -1.66963,20.63636 a 23.888087,18.272778 0 0 0 -0.46846,3.5964 23.888087,18.272778 0 0 0 23.88805,18.27271 23.888087,18.272778 0 0 0 23.88805,-18.27271 23.888087,18.272778 0 0 0 -0.46795,-3.59742 c 4.38395,-9.40584 -1.67014,-20.63534 -1.67014,-20.63534 -6.99041,1.44681 -11.62372,5.18085 -13.62077,7.05174 a 23.888087,18.272778 0 0 0 -8.12919,-1.0917 23.888087,18.272778 0 0 0 -8.12257,1.09781 c -1.99364,-1.86895 -6.62971,-5.60954 -13.62739,-7.05785 z" />
      <path
         style="fill:none;stroke:#09090b;stroke-width:1.02197;stroke-linecap:round;stroke-linejoin:round;stroke-dasharray:none;stroke-opacity:1"
         d="m 304.48702,480.3775 c 0,0 -1.89862,8.59418 -13.97514,10.49322"
         id="path3509-3-0-7-0-2-9-0-8-5" />
      <path
         style="fill:none;stroke:#09090b;stroke-width:1.02197;stroke-linecap:round;stroke-linejoin:round;stroke-dasharray:none;stroke-opacity:1"
         d="m 267.11967,480.37749 c 0,0 1.89863,8.59421 13.97518,10.49323"
         id="path3509-3-0-7-0-2-9-2-6-8-3" />
      <path
         style="fill:none;stroke:#09090b;stroke-width:1.0793;stroke-linecap:round;stroke-linejoin:round;stroke-dasharray:none;stroke-opacity:1"
         d="m 283.09074,495.44739 c 0,0 1.56232,-0.2677 2.71261,-1.58826 1.15031,1.3594 2.71262,1.62711 2.71262,1.62711"
         id="path3600-0-5-9-1-5-6-6-5-9-6-6"
         sodipodi:nodetypes="ccc" />
      <ellipse
         style="fill:#09090b;fill-opacity:1;stroke:#09090b;stroke-width:0.0316643;stroke-dasharray:none;stroke-opacity:1"
         id="path982-7-7-0-6-1-9-0-5-7-2"
         cx="314.1008"
         cy="474.69647"
         rx="0.6252346"
         ry="0.5095765"
         transform="rotate(3.3540784)"
         inkscape:label="nariz" />
      <g
         id="g8875-4-7-9"
         transform="matrix(1.1720823,0,0,1.1720823,11.604292,287.17617)">
        <g
           id="g8772-7-6-1"
           transform="translate(0,-0.54073915)">
          <g
             id="path10252-5-9-8-5-9-8-2-6-4-2"
             transform="matrix(1.0439294,0.3948832,-0.3948832,1.0439294,70.994723,-17.08678)">
            <path
               style="color:#000000;fill:#ff6b00;stroke-width:0.825034;stroke-linecap:round;stroke-linejoin:round;-inkscape-stroke:none"
               d="m 210.66653,99.708493 3.76606,-1.4911"
               id="path23727-0-8-5-30-7" />
            <path
               style="color:#000000;fill:#09090b;stroke-linecap:round;stroke-linejoin:round;-inkscape-stroke:none"
               d="m 214.28125,97.833984 -3.76563,1.490235 a 0.41251701,0.41251701 0 0 0 -0.23242,0.537109 0.41251701,0.41251701 0 0 0 0.53516,0.230472 l 3.76562,-1.490238 a 0.41251701,0.41251701 0 0 0 0.23243,-0.535156 0.41251701,0.41251701 0 0 0 -0.53516,-0.232422 z"
               id="path23724-4-9-6-3-0" />
          </g>
          <g
             id="path10254-69-8-5-8-9-2-7-9-0-9"
             transform="matrix(1.0439294,0.3948832,-0.3948832,1.0439294,70.994723,-17.08678)">
            <path
               style="color:#000000;fill:#ff6b00;stroke-width:0.825034;stroke-linecap:round;stroke-linejoin:round;-inkscape-stroke:none"
               d="m 211.04781,102.38693 3.84656,0.10638"
               id="path23711-9-3-3-92-3" />
            <path
               style="color:#000000;fill:#09090b;stroke-linecap:round;stroke-linejoin:round;-inkscape-stroke:none"
               d="m 211.05859,101.97461 a 0.41251701,0.41251701 0 0 0 -0.42382,0.40039 0.41251701,0.41251701 0 0 0 0.40234,0.42383 l 3.8457,0.10742 a 0.41251701,0.41251701 0 0 0 0.42383,-0.40234 0.41251701,0.41251701 0 0 0 -0.40039,-0.42383 z"
               id="path23708-6-6-7-5-6" />
          </g>
          <g
             id="path10256-3-4-9-6-0-1-1-4-4-0"
             transform="matrix(1.0439294,0.3948832,-0.3948832,1.0439294,70.994723,-17.08678)">
            <path
               style="color:#000000;fill:#ff6b00;stroke-width:0.825034;stroke-linecap:round;stroke-linejoin:round;-inkscape-stroke:none"
               d="m 210.64073,105.10813 2.86428,0.8864"
               id="path23717-0-2-5-0-6" />
            <path
               style="color:#000000;fill:#09090b;stroke-linecap:round;stroke-linejoin:round;-inkscape-stroke:none"
               d="m 210.76172,104.71484 a 0.41251701,0.41251701 0 0 0 -0.51563,0.27149 0.41251701,0.41251701 0 0 0 0.27344,0.51562 l 2.86328,0.88672 a 0.41251701,0.41251701 0 0 0 0.51563,-0.27148 0.41251701,0.41251701 0 0 0 -0.27149,-0.51758 z"
               id="path23714-4-9-2-5-2" />
          </g>
        </g>
        <g
           id="g8772-3-5-9-6"
           transform="matrix(-1,0,0,1,467.20256,-0.54073915)">
          <g
             id="path10252-5-9-8-5-9-8-2-1-4-4-1"
             transform="matrix(1.0439294,0.3948832,-0.3948832,1.0439294,70.994723,-17.08678)">
            <path
               style="color:#000000;fill:#ff6b00;stroke-width:0.825034;stroke-linecap:round;stroke-linejoin:round;-inkscape-stroke:none"
               d="m 210.66653,99.708493 3.76606,-1.4911"
               id="path23727-0-8-9-7-6-8" />
            <path
               style="color:#000000;fill:#09090b;stroke-linecap:round;stroke-linejoin:round;-inkscape-stroke:none"
               d="m 214.28125,97.833984 -3.76563,1.490235 a 0.41251701,0.41251701 0 0 0 -0.23242,0.537109 0.41251701,0.41251701 0 0 0 0.53516,0.230472 l 3.76562,-1.490238 a 0.41251701,0.41251701 0 0 0 0.23243,-0.535156 0.41251701,0.41251701 0 0 0 -0.53516,-0.232422 z"
               id="path23724-4-9-4-4-9-7" />
          </g>
          <g
             id="path10254-69-8-5-8-9-2-7-7-4-2-9"
             transform="matrix(1.0439294,0.3948832,-0.3948832,1.0439294,70.994723,-17.08678)">
            <path
               style="color:#000000;fill:#ff6b00;stroke-width:0.825034;stroke-linecap:round;stroke-linejoin:round;-inkscape-stroke:none"
               d="m 211.04781,102.38693 3.84656,0.10638"
               id="path23711-9-3-8-3-2-2" />
            <path
               style="color:#000000;fill:#09090b;stroke-linecap:round;stroke-linejoin:round;-inkscape-stroke:none"
               d="m 211.05859,101.97461 a 0.41251701,0.41251701 0 0 0 -0.42382,0.40039 0.41251701,0.41251701 0 0 0 0.40234,0.42383 l 3.8457,0.10742 a 0.41251701,0.41251701 0 0 0 0.42383,-0.40234 0.41251701,0.41251701 0 0 0 -0.40039,-0.42383 z"
               id="path23708-6-6-4-0-4-0" />
          </g>
          <g
             id="path10256-3-4-9-6-0-1-1-5-7-7-2"
             transform="matrix(1.0439294,0.3948832,-0.3948832,1.0439294,70.994723,-17.08678)">
            <path
               style="color:#000000;fill:#ff6b00;stroke-width:0.825034;stroke-linecap:round;stroke-linejoin:round;-inkscape-stroke:none"
               d="m 210.64073,105.10813 2.86428,0.8864"
               id="path23717-0-2-0-8-7-3" />
            <path
               style="color:#000000;fill:#09090b;stroke-linecap:round;stroke-linejoin:round;-inkscape-stroke:none"
               d="m 210.76172,104.71484 a 0.41251701,0.41251701 0 0 0 -0.51563,0.27149 0.41251701,0.41251701 0 0 0 0.27344,0.51562 l 2.86328,0.88672 a 0.41251701,0.41251701 0 0 0 0.51563,-0.27148 0.41251701,0.41251701 0 0 0 -0.27149,-0.51758 z"
               id="path23714-4-9-3-6-5-7" />
          </g>
        </g>
      </g>
      <g
         id="g8686-8-4-5"
         transform="matrix(1.1720823,0,0,1.1720823,13.168516,287.17617)">
        <g
           id="g8625-8-8-9"
           transform="translate(-0.86423475,0.42111772)">
          <circle
             style="fill:#09090b;fill-opacity:1;stroke:#09090b;stroke-width:0.861271;stroke-dasharray:none;stroke-opacity:1"
             id="path3345-36-1-4-6-2-1-4-1-2"
             cx="221.62476"
             cy="146.54375"
             r="2.0482965" />
          <path
             style="fill:none;stroke:#09090b;stroke-width:0.991283;stroke-linecap:round;stroke-dasharray:none;stroke-opacity:1"
             d="m 222.66772,147.3609 c 0,0 7.4089,3.28108 7.25014,12.27759"
             id="path3480-0-9-6-0-6-7-3-2-2" />
        </g>
        <g
           id="g8625-5-1-8-8"
           transform="matrix(-1,0,0,1,466.07872,0.42111772)">
          <circle
             style="fill:#09090b;fill-opacity:1;stroke:#09090b;stroke-width:0.861271;stroke-dasharray:none;stroke-opacity:1"
             id="path3345-36-1-4-6-2-1-9-4-9-9"
             cx="221.62476"
             cy="146.54375"
             r="2.0482965" />
          <path
             style="fill:none;stroke:#09090b;stroke-width:0.991283;stroke-linecap:round;stroke-dasharray:none;stroke-opacity:1"
             d="m 222.66772,147.3609 c 0,0 7.4089,3.28108 7.25014,12.27759"
             id="path3480-0-9-6-0-6-7-2-9-36-7" />
        </g>
      </g>
    </g>
  </g>
</svg>
