<?xml version="1.0" encoding="UTF-8" standalone="no"?>
<!-- Created with Inkscape (http://www.inkscape.org/) -->

<svg
   width="53.732658mm"
   height="46.048492mm"
   viewBox="0 0 53.732659 46.048492"
   version="1.1"
   id="svg10075"
   sodipodi:docname="beezer_rosto.svg"
   inkscape:version="1.2.2 (b0a8486541, 2022-12-01)"
   xmlns:inkscape="http://www.inkscape.org/namespaces/inkscape"
   xmlns:sodipodi="http://sodipodi.sourceforge.net/DTD/sodipodi-0.dtd"
   xmlns:xlink="http://www.w3.org/1999/xlink"
   xmlns="http://www.w3.org/2000/svg"
   xmlns:svg="http://www.w3.org/2000/svg">
  <sodipodi:namedview
     id="namedview10077"
     pagecolor="#ffffff"
     bordercolor="#000000"
     borderopacity="0.25"
     inkscape:showpageshadow="2"
     inkscape:pageopacity="0.0"
     inkscape:pagecheckerboard="0"
     inkscape:deskcolor="#d1d1d1"
     inkscape:document-units="mm"
     showgrid="false"
     inkscape:zoom="0.75009824"
     inkscape:cx="1187.8444"
     inkscape:cy="1212.5078"
     inkscape:window-width="1854"
     inkscape:window-height="1009"
     inkscape:window-x="66"
     inkscape:window-y="32"
     inkscape:window-maximized="1"
     inkscape:current-layer="layer1" />
  <defs
     id="defs10072">
    <linearGradient
       inkscape:collect="always"
       id="linearGradient6936">
      <stop
         style="stop-color:#ff7701;stop-opacity:1;"
         offset="0"
         id="stop6932" />
      <stop
         style="stop-color:#ffcb13;stop-opacity:1;"
         offset="1"
         id="stop6934" />
    </linearGradient>
    <linearGradient
       inkscape:collect="always"
       xlink:href="#linearGradient6936"
       id="linearGradient4975"
       gradientUnits="userSpaceOnUse"
       gradientTransform="matrix(-1.8606454,0.37094115,0.37094115,1.8606454,497.82937,343.87914)"
       x1="120.89243"
       y1="64.949829"
       x2="125.26547"
       y2="33.846684" />
  </defs>
  <g
     inkscape:label="Layer 1"
     inkscape:groupmode="layer"
     id="layer1"
     transform="translate(-149.54183,-480.71921)">
    <g
       id="g2565-0-1"
       transform="translate(-108.99606,24.193636)">
      <path
         id="path982-6-9-4-9-6-7-5-6-6-7-7-5"
         style="fill:url(#linearGradient4975);fill-opacity:1;stroke:#09090b;stroke-width:1.08501;stroke-dasharray:none;stroke-opacity:1"
         inkscape:label="corpo_inteiro"
         d="m 264.05338,459.52608 c 0,0 -6.0545,11.23031 -1.66963,20.63636 a 23.888087,18.272778 0 0 0 -0.46846,3.5964 23.888087,18.272778 0 0 0 23.88805,18.27271 23.888087,18.272778 0 0 0 23.88805,-18.27271 23.888087,18.272778 0 0 0 -0.46795,-3.59742 c 4.38395,-9.40584 -1.67014,-20.63534 -1.67014,-20.63534 -6.99041,1.44681 -11.62372,5.18085 -13.62077,7.05174 a 23.888087,18.272778 0 0 0 -8.12919,-1.0917 23.888087,18.272778 0 0 0 -8.12257,1.09781 c -1.99364,-1.86895 -6.62971,-5.60954 -13.62739,-7.05785 z" />
      <path
         style="fill:none;stroke:#09090b;stroke-width:1.02197;stroke-linecap:round;stroke-linejoin:round;stroke-dasharray:none;stroke-opacity:1"
         d="m 304.48702,480.3775 c 0,0 -1.89862,8.59418 -13.97514,10.49322"
         id="path3509-3-0-7-0-2-9-0-8-5-8-9" />
      <path
         style="fill:none;stroke:#09090b;stroke-width:1.02197;stroke-linecap:round;stroke-linejoin:round;stroke-dasharray:none;stroke-opacity:1"
         d="m 267.11967,480.37749 c 0,0 1.89863,8.59421 13.97518,10.49323"
         id="path3509-3-0-7-0-2-9-2-6-8-3-6-4" />
      <path
         style="fill:none;stroke:#09090b;stroke-width:1.0793;stroke-linecap:round;stroke-linejoin:round;stroke-dasharray:none;stroke-opacity:1"
         d="m 283.09074,495.44739 c 0,0 1.56232,-0.2677 2.71261,-1.58826 1.15031,1.3594 2.71262,1.62711 2.71262,1.62711"
         id="path3600-0-5-9-1-5-6-6-5-9-6-6-8-9"
         sodipodi:nodetypes="ccc" />
      <ellipse
         style="fill:#09090b;fill-opacity:1;stroke:#09090b;stroke-width:0.0316643;stroke-dasharray:none;stroke-opacity:1"
         id="path982-7-7-0-6-1-9-0-5-7-2-8-0"
         cx="314.1008"
         cy="474.69647"
         rx="0.6252346"
         ry="0.5095765"
         transform="rotate(3.3540784)"
         inkscape:label="nariz" />
      <g
         id="g8875-4-7-9-4-9"
         transform="matrix(1.1720823,0,0,1.1720823,11.604292,287.17617)">
        <g
           id="g8772-7-6-1-3-1"
           transform="translate(0,-0.54073915)">
          <g
             id="path10252-5-9-8-5-9-8-2-6-4-2-1-7"
             transform="matrix(1.0439294,0.3948832,-0.3948832,1.0439294,70.994723,-17.08678)">
            <path
               style="color:#000000;fill:#ff6b00;stroke-width:0.825034;stroke-linecap:round;stroke-linejoin:round;-inkscape-stroke:none"
               d="m 210.66653,99.708493 3.76606,-1.4911"
               id="path23727-0-8-5-30-7-4-7" />
            <path
               style="color:#000000;fill:#09090b;stroke-linecap:round;stroke-linejoin:round;-inkscape-stroke:none"
               d="m 214.28125,97.833984 -3.76563,1.490235 a 0.41251701,0.41251701 0 0 0 -0.23242,0.537109 0.41251701,0.41251701 0 0 0 0.53516,0.230472 l 3.76562,-1.490238 a 0.41251701,0.41251701 0 0 0 0.23243,-0.535156 0.41251701,0.41251701 0 0 0 -0.53516,-0.232422 z"
               id="path23724-4-9-6-3-0-9-1" />
          </g>
          <g
             id="path10254-69-8-5-8-9-2-7-9-0-9-2-1"
             transform="matrix(1.0439294,0.3948832,-0.3948832,1.0439294,70.994723,-17.08678)">
            <path
               style="color:#000000;fill:#ff6b00;stroke-width:0.825034;stroke-linecap:round;stroke-linejoin:round;-inkscape-stroke:none"
               d="m 211.04781,102.38693 3.84656,0.10638"
               id="path23711-9-3-3-92-3-0-5" />
            <path
               style="color:#000000;fill:#09090b;stroke-linecap:round;stroke-linejoin:round;-inkscape-stroke:none"
               d="m 211.05859,101.97461 a 0.41251701,0.41251701 0 0 0 -0.42382,0.40039 0.41251701,0.41251701 0 0 0 0.40234,0.42383 l 3.8457,0.10742 a 0.41251701,0.41251701 0 0 0 0.42383,-0.40234 0.41251701,0.41251701 0 0 0 -0.40039,-0.42383 z"
               id="path23708-6-6-7-5-6-6-9" />
          </g>
          <g
             id="path10256-3-4-9-6-0-1-1-4-4-0-8-7"
             transform="matrix(1.0439294,0.3948832,-0.3948832,1.0439294,70.994723,-17.08678)">
            <path
               style="color:#000000;fill:#ff6b00;stroke-width:0.825034;stroke-linecap:round;stroke-linejoin:round;-inkscape-stroke:none"
               d="m 210.64073,105.10813 2.86428,0.8864"
               id="path23717-0-2-5-0-6-9-7" />
            <path
               style="color:#000000;fill:#09090b;stroke-linecap:round;stroke-linejoin:round;-inkscape-stroke:none"
               d="m 210.76172,104.71484 a 0.41251701,0.41251701 0 0 0 -0.51563,0.27149 0.41251701,0.41251701 0 0 0 0.27344,0.51562 l 2.86328,0.88672 a 0.41251701,0.41251701 0 0 0 0.51563,-0.27148 0.41251701,0.41251701 0 0 0 -0.27149,-0.51758 z"
               id="path23714-4-9-2-5-2-2-6" />
          </g>
        </g>
        <g
           id="g8772-3-5-9-6-6-7"
           transform="matrix(-1,0,0,1,467.20256,-0.54073915)">
          <g
             id="path10252-5-9-8-5-9-8-2-1-4-4-1-6-3"
             transform="matrix(1.0439294,0.3948832,-0.3948832,1.0439294,70.994723,-17.08678)">
            <path
               style="color:#000000;fill:#ff6b00;stroke-width:0.825034;stroke-linecap:round;stroke-linejoin:round;-inkscape-stroke:none"
               d="m 210.66653,99.708493 3.76606,-1.4911"
               id="path23727-0-8-9-7-6-8-4-6" />
            <path
               style="color:#000000;fill:#09090b;stroke-linecap:round;stroke-linejoin:round;-inkscape-stroke:none"
               d="m 214.28125,97.833984 -3.76563,1.490235 a 0.41251701,0.41251701 0 0 0 -0.23242,0.537109 0.41251701,0.41251701 0 0 0 0.53516,0.230472 l 3.76562,-1.490238 a 0.41251701,0.41251701 0 0 0 0.23243,-0.535156 0.41251701,0.41251701 0 0 0 -0.53516,-0.232422 z"
               id="path23724-4-9-4-4-9-7-9-5" />
          </g>
          <g
             id="path10254-69-8-5-8-9-2-7-7-4-2-9-5-6"
             transform="matrix(1.0439294,0.3948832,-0.3948832,1.0439294,70.994723,-17.08678)">
            <path
               style="color:#000000;fill:#ff6b00;stroke-width:0.825034;stroke-linecap:round;stroke-linejoin:round;-inkscape-stroke:none"
               d="m 211.04781,102.38693 3.84656,0.10638"
               id="path23711-9-3-8-3-2-2-0-3" />
            <path
               style="color:#000000;fill:#09090b;stroke-linecap:round;stroke-linejoin:round;-inkscape-stroke:none"
               d="m 211.05859,101.97461 a 0.41251701,0.41251701 0 0 0 -0.42382,0.40039 0.41251701,0.41251701 0 0 0 0.40234,0.42383 l 3.8457,0.10742 a 0.41251701,0.41251701 0 0 0 0.42383,-0.40234 0.41251701,0.41251701 0 0 0 -0.40039,-0.42383 z"
               id="path23708-6-6-4-0-4-0-4-9" />
          </g>
          <g
             id="path10256-3-4-9-6-0-1-1-5-7-7-2-8-4"
             transform="matrix(1.0439294,0.3948832,-0.3948832,1.0439294,70.994723,-17.08678)">
            <path
               style="color:#000000;fill:#ff6b00;stroke-width:0.825034;stroke-linecap:round;stroke-linejoin:round;-inkscape-stroke:none"
               d="m 210.64073,105.10813 2.86428,0.8864"
               id="path23717-0-2-0-8-7-3-7-8" />
            <path
               style="color:#000000;fill:#09090b;stroke-linecap:round;stroke-linejoin:round;-inkscape-stroke:none"
               d="m 210.76172,104.71484 a 0.41251701,0.41251701 0 0 0 -0.51563,0.27149 0.41251701,0.41251701 0 0 0 0.27344,0.51562 l 2.86328,0.88672 a 0.41251701,0.41251701 0 0 0 0.51563,-0.27148 0.41251701,0.41251701 0 0 0 -0.27149,-0.51758 z"
               id="path23714-4-9-3-6-5-7-1-1" />
          </g>
        </g>
      </g>
      <g
         id="g8686-8-4-5-7-2"
         transform="matrix(1.1720823,0,0,1.1720823,13.168516,287.17617)">
        <g
           id="g8625-8-8-9-2-9"
           transform="translate(-0.86423475,0.42111772)">
          <circle
             style="fill:#09090b;fill-opacity:1;stroke:#09090b;stroke-width:0.861271;stroke-dasharray:none;stroke-opacity:1"
             id="path3345-36-1-4-6-2-1-4-1-2-7-3"
             cx="221.62476"
             cy="146.54375"
             r="2.0482965" />
          <path
             style="fill:none;stroke:#09090b;stroke-width:0.991283;stroke-linecap:round;stroke-dasharray:none;stroke-opacity:1"
             d="m 222.66772,147.3609 c 0,0 7.4089,3.28108 7.25014,12.27759"
             id="path3480-0-9-6-0-6-7-3-2-2-2-9" />
        </g>
        <g
           id="g8625-5-1-8-8-2-0"
           transform="matrix(-1,0,0,1,466.07872,0.42111772)">
          <circle
             style="fill:#09090b;fill-opacity:1;stroke:#09090b;stroke-width:0.861271;stroke-dasharray:none;stroke-opacity:1"
             id="path3345-36-1-4-6-2-1-9-4-9-9-6-8"
             cx="221.62476"
             cy="146.54375"
             r="2.0482965" />
          <path
             style="fill:none;stroke:#09090b;stroke-width:0.991283;stroke-linecap:round;stroke-dasharray:none;stroke-opacity:1"
             d="m 222.66772,147.3609 c 0,0 7.4089,3.28108 7.25014,12.27759"
             id="path3480-0-9-6-0-6-7-2-9-36-7-1-8" />
        </g>
      </g>
    </g>
  </g>
</svg>
