<?xml version="1.0" encoding="UTF-8" standalone="no"?>
<!-- Created with Inkscape (http://www.inkscape.org/) -->

<svg
   width="118.90877mm"
   height="103.33208mm"
   viewBox="0 0 118.90877 103.33208"
   version="1.1"
   id="svg10075"
   sodipodi:docname="beezer_rosto.svg"
   inkscape:version="1.2.2 (b0a8486541, 2022-12-01)"
   xmlns:inkscape="http://www.inkscape.org/namespaces/inkscape"
   xmlns:sodipodi="http://sodipodi.sourceforge.net/DTD/sodipodi-0.dtd"
   xmlns:xlink="http://www.w3.org/1999/xlink"
   xmlns="http://www.w3.org/2000/svg"
   xmlns:svg="http://www.w3.org/2000/svg">
  <sodipodi:namedview
     id="namedview10077"
     pagecolor="#ffffff"
     bordercolor="#000000"
     borderopacity="0.25"
     inkscape:showpageshadow="2"
     inkscape:pageopacity="0.0"
     inkscape:pagecheckerboard="0"
     inkscape:deskcolor="#d1d1d1"
     inkscape:document-units="mm"
     showgrid="false"
     inkscape:zoom="1.0607991"
     inkscape:cx="946.45631"
     inkscape:cy="597.19131"
     inkscape:window-width="1854"
     inkscape:window-height="1009"
     inkscape:window-x="66"
     inkscape:window-y="1112"
     inkscape:window-maximized="1"
     inkscape:current-layer="layer1" />
  <defs
     id="defs10072">
    <linearGradient
       inkscape:collect="always"
       id="linearGradient13870">
      <stop
         style="stop-color:#ff8704;stop-opacity:1;"
         offset="0.00000001"
         id="stop13866" />
      <stop
         style="stop-color:#ffa40b;stop-opacity:1;"
         offset="1"
         id="stop13868" />
    </linearGradient>
    <linearGradient
       inkscape:collect="always"
       id="linearGradient6936">
      <stop
         style="stop-color:#ff7701;stop-opacity:1;"
         offset="0"
         id="stop6932" />
      <stop
         style="stop-color:#ffcb13;stop-opacity:1;"
         offset="1"
         id="stop6934" />
    </linearGradient>
    <linearGradient
       inkscape:collect="always"
       xlink:href="#linearGradient13870"
       id="linearGradient13872-0"
       x1="334.76358"
       y1="233.79712"
       x2="335.3136"
       y2="194.38895"
       gradientUnits="userSpaceOnUse" />
    <linearGradient
       inkscape:collect="always"
       xlink:href="#linearGradient6936"
       id="linearGradient21584"
       gradientUnits="userSpaceOnUse"
       gradientTransform="matrix(-1.6774304,0.33441512,0.33441512,1.6774304,525.47144,60.363128)"
       x1="120.89243"
       y1="64.949829"
       x2="125.26547"
       y2="33.846684" />
  </defs>
  <g
     inkscape:label="Layer 1"
     inkscape:groupmode="layer"
     id="layer1"
     transform="translate(-316.48417,-311.25431)">
    <g
       id="g18145"
       inkscape:export-filename="cronograma-educacional-react/frontend/public/assets/gatinho_erros_ia.svg"
       inkscape:export-xdpi="96"
       inkscape:export-ydpi="96">
      <path
         id="path3789-6-0"
         style="fill:#ffffff;stroke:#000000;stroke-width:0.97638;stroke-linecap:round;stroke-linejoin:round;stroke-dasharray:none"
         d="m 342.6986,311.74251 c -2.77887,0 -5.01595,2.23709 -5.01595,5.01595 v 39.28738 c 0,2.77886 2.23708,5.01595 5.01595,5.01595 h 31.29034 c 0.10588,1.92341 -0.12022,5.31355 -2.50148,8.06618 8.07219,-2.98701 9.73145,-5.7078 10.26366,-8.06618 h 48.13766 c 2.77886,0 5.01595,-2.23709 5.01595,-5.01595 v -39.28738 c 0,-2.77886 -2.23709,-5.01595 -5.01595,-5.01595 z"
         sodipodi:nodetypes="sssscccsssss" />
      <g
         id="g17691-7"
         transform="translate(7.0807203,180.37208)">
        <g
           id="g16629-4">
          <g
             id="g16574-3"
             transform="rotate(-10.804484,254.19421,67.420044)">
            <path
               id="path3614-5-9-2-0-9-5-3-6-1"
               style="fill:#ffffff;stroke:#09090b;stroke-width:1.09531;stroke-linecap:round;stroke-linejoin:round;stroke-dasharray:none;stroke-opacity:1"
               d="m 284.01942,214.71768 c -3.42563,-0.0349 -0.25511,8.38912 3.72071,10.89752 0.71578,0.43848 1.41968,0.81358 2.09961,1.13585 l -0.0754,0.12351 c -1.59298,0.82785 -1.43982,2.99791 1.1989,4.3496 2.63869,1.35171 4.81469,0.47646 4.81469,0.47646 l 1.42317,-2.92024 2.80603,0.58446 -1.76682,-2.90266 c 0,0 -1.51204,-2.76686 -9.36687,-9.17515 -2.28109,-1.82316 -3.8505,-2.55913 -4.85397,-2.56935 z" />
            <path
               style="fill:none;stroke:#09090b;stroke-width:1.09531;stroke-linecap:round;stroke-linejoin:round;stroke-dasharray:none;stroke-opacity:1"
               d="m 298.24047,226.46194 c 0,0 -1.51233,-2.7664 -9.36717,-9.1747 -10.06829,-8.04705 -6.2735,5.08471 -1.13304,8.3279 4.7401,2.90372 9.42016,3.13462 9.42016,3.13462"
               id="path3614-5-9-2-0-9-5-9-4"
               sodipodi:nodetypes="cccc" />
            <path
               style="fill:none;stroke:#09090b;stroke-width:1.09535;stroke-linecap:round;stroke-linejoin:round;stroke-dasharray:none;stroke-opacity:1"
               d="m 295.77763,231.70037 c 0,0 -2.17584,0.8753 -4.81454,-0.47641 -2.63872,-1.35169 -2.79189,-3.52174 -1.19891,-4.34959"
               id="path3616-4-6-1-8-1-8-2-6" />
          </g>
          <g
             id="g16574-6-9"
             transform="matrix(-0.98227258,-0.18745819,-0.18745819,0.98227258,677.19148,48.84597)">
            <path
               id="path3614-5-9-2-0-9-5-3-6-8-4"
               style="fill:#ffffff;stroke:#09090b;stroke-width:1.09531;stroke-linecap:round;stroke-linejoin:round;stroke-dasharray:none;stroke-opacity:1"
               d="m 284.01942,214.71768 c -3.42563,-0.0349 -0.25511,8.38912 3.72071,10.89752 0.71578,0.43848 1.41968,0.81358 2.09961,1.13585 l -0.0754,0.12351 c -1.59298,0.82785 -1.43982,2.99791 1.1989,4.3496 2.63869,1.35171 4.81469,0.47646 4.81469,0.47646 l 1.42317,-2.92024 2.80603,0.58446 -1.76682,-2.90266 c 0,0 -1.51204,-2.76686 -9.36687,-9.17515 -2.28109,-1.82316 -3.8505,-2.55913 -4.85397,-2.56935 z" />
            <path
               style="fill:none;stroke:#09090b;stroke-width:1.09531;stroke-linecap:round;stroke-linejoin:round;stroke-dasharray:none;stroke-opacity:1"
               d="m 298.24047,226.46194 c 0,0 -1.51233,-2.7664 -9.36717,-9.1747 -10.06829,-8.04705 -6.2735,5.08471 -1.13304,8.3279 4.7401,2.90372 9.42016,3.13462 9.42016,3.13462"
               id="path3614-5-9-2-0-9-5-9-0-2"
               sodipodi:nodetypes="cccc" />
            <path
               style="fill:none;stroke:#09090b;stroke-width:1.09535;stroke-linecap:round;stroke-linejoin:round;stroke-dasharray:none;stroke-opacity:1"
               d="m 295.77763,231.70037 c 0,0 -2.17584,0.8753 -4.81454,-0.47641 -2.63872,-1.35169 -2.79189,-3.52174 -1.19891,-4.34959"
               id="path3616-4-6-1-8-1-8-2-2-2" />
          </g>
        </g>
        <path
           id="path12641-6"
           style="fill:url(#linearGradient13872-0);fill-opacity:1;stroke:#09090b;stroke-width:0.96417;stroke-linecap:round;stroke-linejoin:round;stroke-dasharray:none;stroke-opacity:1"
           d="m 334.66421,205.92715 a 10.517915,13.583581 0 0 0 -10.5177,13.58315 10.517915,13.583581 0 0 0 0.0191,0.68988 v 13.53199 h 20.99768 v -13.53199 a 10.517915,13.583581 0 0 0 0.0191,-0.68988 10.517915,13.583581 0 0 0 -10.51822,-13.58315 z" />
        <path
           id="path12641-5-4"
           style="fill:#09090b;fill-opacity:1;stroke:#09090b;stroke-width:0.96417;stroke-linecap:round;stroke-linejoin:round;stroke-dasharray:none;stroke-opacity:1"
           d="m 344.8393,227.29696 c 0,0 -8.5103,4.78968 -20.27473,0.44545 l -0.39895,1.92082 v 4.069 h 20.99769 v -5.01778 z" />
        <g
           id="g12684-1"
           transform="translate(0.17180156,13.218571)">
          <path
             id="path982-6-9-4-9-6-7-5-6-9-6-2"
             style="fill:url(#linearGradient21584);fill-opacity:1;stroke:#09090b;stroke-width:0.978171;stroke-dasharray:none;stroke-opacity:1"
             inkscape:label="corpo_inteiro"
             d="m 314.71503,164.6225 c 0,0 -5.45833,10.12447 -1.50523,18.60432 a 21.535863,16.473485 0 0 0 -0.42233,3.24227 21.535863,16.473485 0 0 0 21.53583,16.47343 21.535863,16.473485 0 0 0 21.53582,-16.47343 21.535863,16.473485 0 0 0 -0.42186,-3.24318 c 3.95227,-8.47967 -1.50569,-18.60341 -1.50569,-18.60341 -6.30207,1.30434 -10.47915,4.67069 -12.27955,6.35736 a 21.535863,16.473485 0 0 0 -7.32872,-0.9842 21.535863,16.473485 0 0 0 -7.32275,0.98971 c -1.79733,-1.68492 -5.9769,-5.05718 -12.28552,-6.36287 z" />
          <g
             id="g13834-9-1-1-3-0-3-5-3-8"
             inkscape:label="rosto"
             transform="matrix(1.1575888,0.22560533,-0.22560533,1.1575888,202.5799,37.843542)">
            <g
               id="g8515-2-0-8-8"
               transform="translate(0.06754306,0.7989833)">
              <path
                 style="fill:none;stroke:#09090b;stroke-width:0.781215;stroke-linecap:round;stroke-linejoin:round;stroke-dasharray:none;stroke-opacity:1"
                 d="m 136.92669,100.94741 c 0,0 0.16783,-6.725884 8.95119,-9.916656"
                 id="path3509-3-0-7-0-2-9-0-4-5-9" />
              <path
                 style="fill:none;stroke:#09090b;stroke-width:0.781215;stroke-linecap:round;stroke-linejoin:round;stroke-dasharray:none;stroke-opacity:1"
                 d="m 129.86107,102.32445 c 0,0 -2.68126,-6.17062 -12.02001,-5.829531"
                 id="path3509-3-0-7-0-2-9-2-6-87-6-2" />
            </g>
            <g
               id="g8484-1-1-1-88"
               transform="translate(1.3638877,2.9827763)">
              <path
                 style="fill:none;stroke:#09090b;stroke-width:0.825034;stroke-linecap:round;stroke-linejoin:round;stroke-dasharray:none;stroke-opacity:1"
                 d="m 127.29822,103.10793 c 0,0 3.08332,1.23021 5.23915,-1.39901 2.98537,1.62725 5.38106,-0.67078 5.38106,-0.67078"
                 id="path3600-0-5-9-1-5-6-6-5-7-1-8"
                 sodipodi:nodetypes="ccc" />
              <ellipse
                 style="fill:#09090b;fill-opacity:1;stroke:#09090b;stroke-width:0.0242048;stroke-dasharray:none;stroke-opacity:1"
                 id="path982-7-7-0-6-1-9-0-5-2-5-6"
                 cx="117.68555"
                 cy="117.26261"
                 rx="0.47794119"
                 ry="0.38952991"
                 transform="rotate(-7.6741943)"
                 inkscape:label="nariz" />
            </g>
          </g>
          <g
             id="g8875-4-72-9-83"
             transform="matrix(1.0566691,0,0,1.0566691,87.653393,7.1269594)">
            <g
               id="g8772-7-2-8-8"
               transform="translate(0,-0.54073915)">
              <g
                 id="path10252-5-9-8-5-9-8-2-6-61-4-3"
                 transform="matrix(1.0439294,0.3948832,-0.3948832,1.0439294,70.994723,-17.08678)">
                <path
                   style="color:#000000;fill:#ff6b00;stroke-width:0.825034;stroke-linecap:round;stroke-linejoin:round;-inkscape-stroke:none"
                   d="m 210.66653,99.708493 3.76606,-1.4911"
                   id="path23727-0-8-5-0-8-3" />
                <path
                   style="color:#000000;fill:#09090b;stroke-linecap:round;stroke-linejoin:round;-inkscape-stroke:none"
                   d="m 214.28125,97.833984 -3.76563,1.490235 a 0.41251701,0.41251701 0 0 0 -0.23242,0.537109 0.41251701,0.41251701 0 0 0 0.53516,0.230472 l 3.76562,-1.490238 a 0.41251701,0.41251701 0 0 0 0.23243,-0.535156 0.41251701,0.41251701 0 0 0 -0.53516,-0.232422 z"
                   id="path23724-4-9-6-6-1-38" />
              </g>
              <g
                 id="path10254-69-8-5-8-9-2-7-9-1-0-0"
                 transform="matrix(1.0439294,0.3948832,-0.3948832,1.0439294,70.994723,-17.08678)">
                <path
                   style="color:#000000;fill:#ff6b00;stroke-width:0.825034;stroke-linecap:round;stroke-linejoin:round;-inkscape-stroke:none"
                   d="m 211.04781,102.38693 3.84656,0.10638"
                   id="path23711-9-3-3-5-3-4" />
                <path
                   style="color:#000000;fill:#09090b;stroke-linecap:round;stroke-linejoin:round;-inkscape-stroke:none"
                   d="m 211.05859,101.97461 a 0.41251701,0.41251701 0 0 0 -0.42382,0.40039 0.41251701,0.41251701 0 0 0 0.40234,0.42383 l 3.8457,0.10742 a 0.41251701,0.41251701 0 0 0 0.42383,-0.40234 0.41251701,0.41251701 0 0 0 -0.40039,-0.42383 z"
                   id="path23708-6-6-7-9-0-7" />
              </g>
              <g
                 id="path10256-3-4-9-6-0-1-1-4-49-4-6"
                 transform="matrix(1.0439294,0.3948832,-0.3948832,1.0439294,70.994723,-17.08678)">
                <path
                   style="color:#000000;fill:#ff6b00;stroke-width:0.825034;stroke-linecap:round;stroke-linejoin:round;-inkscape-stroke:none"
                   d="m 210.64073,105.10813 2.86428,0.8864"
                   id="path23717-0-2-5-09-4-8" />
                <path
                   style="color:#000000;fill:#09090b;stroke-linecap:round;stroke-linejoin:round;-inkscape-stroke:none"
                   d="m 210.76172,104.71484 a 0.41251701,0.41251701 0 0 0 -0.51563,0.27149 0.41251701,0.41251701 0 0 0 0.27344,0.51562 l 2.86328,0.88672 a 0.41251701,0.41251701 0 0 0 0.51563,-0.27148 0.41251701,0.41251701 0 0 0 -0.27149,-0.51758 z"
                   id="path23714-4-9-2-1-4-9" />
              </g>
            </g>
            <g
               id="g8772-3-5-7-4-0"
               transform="matrix(-1,0,0,1,467.20256,-0.54073915)">
              <g
                 id="path10252-5-9-8-5-9-8-2-1-4-71-7-6"
                 transform="matrix(1.0439294,0.3948832,-0.3948832,1.0439294,70.994723,-17.08678)">
                <path
                   style="color:#000000;fill:#ff6b00;stroke-width:0.825034;stroke-linecap:round;stroke-linejoin:round;-inkscape-stroke:none"
                   d="m 210.66653,99.708493 3.76606,-1.4911"
                   id="path23727-0-8-9-7-1-6-87" />
                <path
                   style="color:#000000;fill:#09090b;stroke-linecap:round;stroke-linejoin:round;-inkscape-stroke:none"
                   d="m 214.28125,97.833984 -3.76563,1.490235 a 0.41251701,0.41251701 0 0 0 -0.23242,0.537109 0.41251701,0.41251701 0 0 0 0.53516,0.230472 l 3.76562,-1.490238 a 0.41251701,0.41251701 0 0 0 0.23243,-0.535156 0.41251701,0.41251701 0 0 0 -0.53516,-0.232422 z"
                   id="path23724-4-9-4-4-5-3-90" />
              </g>
              <g
                 id="path10254-69-8-5-8-9-2-7-7-4-9-1-3"
                 transform="matrix(1.0439294,0.3948832,-0.3948832,1.0439294,70.994723,-17.08678)">
                <path
                   style="color:#000000;fill:#ff6b00;stroke-width:0.825034;stroke-linecap:round;stroke-linejoin:round;-inkscape-stroke:none"
                   d="m 211.04781,102.38693 3.84656,0.10638"
                   id="path23711-9-3-8-3-77-7-3" />
                <path
                   style="color:#000000;fill:#09090b;stroke-linecap:round;stroke-linejoin:round;-inkscape-stroke:none"
                   d="m 211.05859,101.97461 a 0.41251701,0.41251701 0 0 0 -0.42382,0.40039 0.41251701,0.41251701 0 0 0 0.40234,0.42383 l 3.8457,0.10742 a 0.41251701,0.41251701 0 0 0 0.42383,-0.40234 0.41251701,0.41251701 0 0 0 -0.40039,-0.42383 z"
                   id="path23708-6-6-4-0-6-5-3" />
              </g>
              <g
                 id="path10256-3-4-9-6-0-1-1-5-7-73-9-7"
                 transform="matrix(1.0439294,0.3948832,-0.3948832,1.0439294,70.994723,-17.08678)">
                <path
                   style="color:#000000;fill:#ff6b00;stroke-width:0.825034;stroke-linecap:round;stroke-linejoin:round;-inkscape-stroke:none"
                   d="m 210.64073,105.10813 2.86428,0.8864"
                   id="path23717-0-2-0-8-6-6-3" />
                <path
                   style="color:#000000;fill:#09090b;stroke-linecap:round;stroke-linejoin:round;-inkscape-stroke:none"
                   d="m 210.76172,104.71484 a 0.41251701,0.41251701 0 0 0 -0.51563,0.27149 0.41251701,0.41251701 0 0 0 0.27344,0.51562 l 2.86328,0.88672 a 0.41251701,0.41251701 0 0 0 0.51563,-0.27148 0.41251701,0.41251701 0 0 0 -0.27149,-0.51758 z"
                   id="path23714-4-9-3-6-56-2-2" />
              </g>
            </g>
          </g>
          <g
             id="g8686-8-39-1-6"
             transform="matrix(1.0566691,0,0,1.0566691,88.174595,2.8936258)">
            <g
               id="g8625-8-4-7-5"
               transform="translate(-0.86423475,0.42111772)">
              <circle
                 style="fill:#09090b;fill-opacity:1;stroke:#09090b;stroke-width:0.861271;stroke-dasharray:none;stroke-opacity:1"
                 id="path3345-36-1-4-6-2-1-4-81-8-2"
                 cx="221.62476"
                 cy="146.54375"
                 r="2.0482965" />
              <path
                 style="fill:none;stroke:#09090b;stroke-width:0.991283;stroke-linecap:round;stroke-dasharray:none;stroke-opacity:1"
                 d="m 222.66772,147.3609 c 0,0 7.4089,3.28108 7.25014,12.27759"
                 id="path3480-0-9-6-0-6-7-3-29-5-6" />
            </g>
            <g
               id="g8625-5-1-3-7-58"
               transform="matrix(-1,0,0,1,466.07872,0.42111772)">
              <circle
                 style="fill:#09090b;fill-opacity:1;stroke:#09090b;stroke-width:0.861271;stroke-dasharray:none;stroke-opacity:1"
                 id="path3345-36-1-4-6-2-1-9-4-90-4-7"
                 cx="221.62476"
                 cy="146.54375"
                 r="2.0482965" />
              <path
                 style="fill:none;stroke:#09090b;stroke-width:0.991283;stroke-linecap:round;stroke-dasharray:none;stroke-opacity:1"
                 d="m 222.66772,147.3609 c 0,0 7.4089,3.28108 7.25014,12.27759"
                 id="path3480-0-9-6-0-6-7-2-9-8-1-9" />
            </g>
          </g>
        </g>
        <path
           style="fill:#09090b;fill-opacity:1;stroke:#09090b;stroke-width:1.0172;stroke-linecap:round;stroke-linejoin:round;stroke-dasharray:none;stroke-opacity:1"
           d="m 344.70167,216.88037 c 0,0 -8.53177,4.32072 -20.32591,0.40183 l -0.0477,2.62816 c 0,0 8.39637,5.05758 20.5967,-0.37578 z"
           id="path3618-7-8-8-0-9-2-0-6"
           sodipodi:nodetypes="ccccc" />
        <path
           style="fill:#09090b;fill-opacity:1;stroke:#09090b;stroke-width:1.07045;stroke-linecap:round;stroke-linejoin:round;stroke-dasharray:none;stroke-opacity:1"
           d="m 344.85076,221.91084 c 0,0 -8.50972,4.79734 -20.27339,0.44614 l -0.0476,2.91809 c 0,0 8.37468,5.61549 20.54348,-0.41723 z"
           id="path3618-7-8-8-0-9-2-0-1-0"
           sodipodi:nodetypes="ccccc" />
        <circle
           style="fill:#09090b;fill-opacity:1;stroke:#09090b;stroke-width:0.971;stroke-linecap:round;stroke-linejoin:round;stroke-dasharray:none;stroke-opacity:1"
           id="path17611-4"
           cx="343.39908"
           cy="214.77309"
           r="3.1745842" />
      </g>
      <g
         aria-label="Tá esperando o que
pra se cadastrar?"
         id="text17948-1"
         style="font-size:8.48178px;font-family:'Noto Sans Yi';-inkscape-font-specification:'Noto Sans Yi';text-align:center;text-anchor:middle;fill:#09090b;stroke-width:2.59396;stroke-linecap:round;stroke-linejoin:round">
        <path
           d="m 350.05105,333.92471 h -0.76336 v -5.38593 h -1.89144 v -0.67006 h 4.53775 v 0.67006 h -1.88295 z"
           id="path21911" />
        <path
           d="m 353.79151,329.30214 q 0.83121,0 1.22986,0.36472 0.39864,0.36472 0.39864,1.162 v 3.09585 h -0.54283 l -0.14419,-0.64461 h -0.0339 q -0.29686,0.3732 -0.62765,0.55131 -0.32231,0.17812 -0.89907,0.17812 -0.61917,0 -1.0263,-0.32231 -0.40712,-0.33079 -0.40712,-1.02629 0,-0.67854 0.53435,-1.04326 0.53435,-0.3732 1.64547,-0.40713 l 0.77184,-0.0254 v -0.27142 q 0,-0.56828 -0.24597,-0.7888 -0.24597,-0.22053 -0.69551,-0.22053 -0.35623,0 -0.67854,0.11026 -0.32231,0.10178 -0.60221,0.23749 l -0.22901,-0.5598 q 0.29687,-0.16115 0.70399,-0.27141 0.40713,-0.11875 0.84818,-0.11875 z m 0.22053,2.42579 q -0.84818,0.0339 -1.17897,0.27142 -0.32231,0.23749 -0.32231,0.67006 0,0.38168 0.22901,0.5598 0.23749,0.17811 0.60221,0.17811 0.57676,0 0.95844,-0.31382 0.38168,-0.32231 0.38168,-0.98389 v -0.40712 z m 0.91603,-4.21544 q -0.10178,0.15267 -0.31383,0.39864 -0.21204,0.23749 -0.45801,0.48346 -0.23749,0.23749 -0.44106,0.39016 h -0.49194 v -0.10178 q 0.12723,-0.16115 0.27142,-0.38168 0.15267,-0.22052 0.29686,-0.44953 0.14419,-0.23749 0.23749,-0.42409 h 0.89907 z"
           id="path21913" />
        <path
           d="m 360.78899,329.29366 q 0.58524,0 1.00085,0.25445 0.42409,0.25446 0.64461,0.72096 0.22901,0.45801 0.22901,1.07718 v 0.44954 h -3.11281 q 0.017,0.77184 0.39016,1.17896 0.38168,0.39865 1.06022,0.39865 0.43257,0 0.76336,-0.0763 0.33927,-0.0848 0.69551,-0.23749 v 0.6531 q -0.34775,0.15267 -0.68703,0.22052 -0.33927,0.0763 -0.80577,0.0763 -0.64461,0 -1.14504,-0.26293 -0.49194,-0.26294 -0.77184,-0.78033 -0.27141,-0.52587 -0.27141,-1.28075 0,-0.74639 0.24597,-1.28075 0.25445,-0.53435 0.70398,-0.82273 0.45802,-0.28838 1.06023,-0.28838 z m -0.008,0.61069 q -0.53436,0 -0.84818,0.34775 -0.30535,0.33927 -0.36472,0.94996 h 2.31553 q -0.008,-0.57676 -0.27142,-0.93299 -0.26294,-0.36472 -0.83121,-0.36472 z"
           id="path21915" />
        <path
           d="m 366.77712,332.66941 q 0,0.66158 -0.49195,1.00085 -0.49194,0.33927 -1.32315,0.33927 -0.47498,0 -0.82274,-0.0763 -0.33927,-0.0763 -0.6022,-0.21204 v -0.67854 q 0.27141,0.13571 0.65309,0.25445 0.39017,0.11026 0.78881,0.11026 0.56828,0 0.82273,-0.17811 0.25446,-0.1866 0.25446,-0.49195 0,-0.16963 -0.0933,-0.30534 -0.0933,-0.13571 -0.33927,-0.27142 -0.23749,-0.13571 -0.68703,-0.30534 -0.44105,-0.16964 -0.75488,-0.33927 -0.31382,-0.16964 -0.48346,-0.40713 -0.16963,-0.23749 -0.16963,-0.61069 0,-0.57676 0.46649,-0.89058 0.47498,-0.31383 1.23834,-0.31383 0.41561,0 0.77185,0.0848 0.36471,0.0763 0.67854,0.22053 l -0.25446,0.59372 q -0.28838,-0.11875 -0.6022,-0.20356 -0.31383,-0.0848 -0.64462,-0.0848 -0.45801,0 -0.70399,0.15267 -0.23748,0.14419 -0.23748,0.39865 0,0.18659 0.11026,0.3223 0.11026,0.12723 0.36471,0.25446 0.26294,0.11874 0.69551,0.28838 0.43257,0.16115 0.73792,0.33079 0.30534,0.16963 0.46649,0.4156 0.16116,0.23749 0.16116,0.60221 z"
           id="path21917" />
        <path
           d="m 370.0426,329.29366 q 0.8397,0 1.34861,0.58524 0.51738,0.58525 0.51738,1.76421 0,1.16201 -0.51738,1.76421 -0.50891,0.60221 -1.35709,0.60221 -0.52587,0 -0.87362,-0.19508 -0.33927,-0.20356 -0.53435,-0.4665 h -0.0509 q 0.017,0.14419 0.0339,0.36472 0.017,0.22052 0.017,0.38168 v 1.86599 h -0.7464 v -6.58186 h 0.61069 l 0.10178,0.61917 h 0.0339 q 0.20356,-0.29686 0.53435,-0.50043 0.33079,-0.20356 0.8821,-0.20356 z m -0.13571,0.62765 q -0.6955,0 -0.98388,0.39016 -0.2799,0.39017 -0.29686,1.18745 v 0.14419 q 0,0.8397 0.27141,1.29772 0.2799,0.44953 1.0263,0.44953 0.4156,0 0.67854,-0.22901 0.27142,-0.22901 0.39864,-0.61917 0.13571,-0.39864 0.13571,-0.90755 0,-0.78032 -0.30534,-1.24682 -0.29686,-0.4665 -0.92452,-0.4665 z"
           id="path21919" />
        <path
           d="m 374.85177,329.29366 q 0.58524,0 1.00085,0.25445 0.42409,0.25446 0.64462,0.72096 0.229,0.45801 0.229,1.07718 v 0.44954 h -3.11281 q 0.017,0.77184 0.39016,1.17896 0.38168,0.39865 1.06023,0.39865 0.43257,0 0.76336,-0.0763 0.33927,-0.0848 0.6955,-0.23749 v 0.6531 q -0.34775,0.15267 -0.68702,0.22052 -0.33927,0.0763 -0.80577,0.0763 -0.64462,0 -1.14504,-0.26293 -0.49195,-0.26294 -0.77184,-0.78033 -0.27142,-0.52587 -0.27142,-1.28075 0,-0.74639 0.24597,-1.28075 0.25445,-0.53435 0.70399,-0.82273 0.45801,-0.28838 1.06022,-0.28838 z m -0.008,0.61069 q -0.53435,0 -0.84818,0.34775 -0.30534,0.33927 -0.36472,0.94996 h 2.31553 q -0.008,-0.57676 -0.27142,-0.93299 -0.26293,-0.36472 -0.83121,-0.36472 z"
           id="path21921" />
        <path
           d="m 380.0002,329.29366 q 0.12723,0 0.27142,0.017 0.15267,0.008 0.26294,0.0339 l -0.0933,0.68703 q -0.11027,-0.0255 -0.24598,-0.0424 -0.12722,-0.017 -0.24597,-0.017 -0.34775,0 -0.65309,0.19508 -0.30535,0.1866 -0.49195,0.53436 -0.17812,0.33927 -0.17812,0.79728 v 2.42579 h -0.74639 v -4.54623 h 0.61069 l 0.0848,0.83121 h 0.0339 q 0.22053,-0.37319 0.56828,-0.64461 0.34775,-0.27142 0.82273,-0.27142 z"
           id="path21923" />
        <path
           d="m 382.9349,329.30214 q 0.83121,0 1.22986,0.36472 0.39864,0.36472 0.39864,1.162 v 3.09585 h -0.54283 l -0.14419,-0.64461 h -0.0339 q -0.29686,0.3732 -0.62765,0.55131 -0.32231,0.17812 -0.89907,0.17812 -0.61917,0 -1.0263,-0.32231 -0.40712,-0.33079 -0.40712,-1.02629 0,-0.67854 0.53435,-1.04326 0.53435,-0.3732 1.64546,-0.40713 l 0.77185,-0.0254 v -0.27142 q 0,-0.56828 -0.24598,-0.7888 -0.24597,-0.22053 -0.6955,-0.22053 -0.35624,0 -0.67854,0.11026 -0.32231,0.10178 -0.60221,0.23749 l -0.22901,-0.5598 q 0.29686,-0.16115 0.70399,-0.27141 0.40712,-0.11875 0.84818,-0.11875 z m 0.22052,2.42579 q -0.84817,0.0339 -1.17896,0.27142 -0.32231,0.23749 -0.32231,0.67006 0,0.38168 0.22901,0.5598 0.23749,0.17811 0.6022,0.17811 0.57676,0 0.95844,-0.31382 0.38168,-0.32231 0.38168,-0.98389 v -0.40712 z"
           id="path21925" />
        <path
           d="m 388.15968,329.29366 q 0.81425,0 1.22986,0.39864 0.41561,0.39017 0.41561,1.27227 v 2.96014 h -0.73792 v -2.90925 q 0,-1.09415 -1.01781,-1.09415 -0.75488,0 -1.04326,0.42409 -0.28838,0.42409 -0.28838,1.22138 v 2.35793 h -0.7464 v -4.54623 h 0.60221 l 0.11026,0.61917 h 0.0424 q 0.22053,-0.35624 0.61069,-0.52587 0.39016,-0.17812 0.82273,-0.17812 z"
           id="path21927" />
        <path
           d="m 392.82466,334.00953 q -0.84818,0 -1.35708,-0.58524 -0.50891,-0.59373 -0.50891,-1.76421 0,-1.17049 0.50891,-1.76421 0.51738,-0.60221 1.36556,-0.60221 0.52587,0 0.85666,0.19508 0.33927,0.19508 0.55132,0.47498 h 0.0509 q -0.008,-0.11026 -0.0339,-0.32231 -0.017,-0.22052 -0.017,-0.34775 v -1.8151 h 0.74639 v 6.44615 h -0.6022 l -0.11026,-0.61069 h -0.0339 q -0.20356,0.28839 -0.54284,0.49195 -0.33927,0.20356 -0.87362,0.20356 z m 0.11875,-0.61917 q 0.72095,0 1.00933,-0.39016 0.29686,-0.39864 0.29686,-1.19593 v -0.13571 q 0,-0.84818 -0.2799,-1.29771 -0.2799,-0.45802 -1.03478,-0.45802 -0.6022,0 -0.90755,0.48346 -0.29686,0.47498 -0.29686,1.28075 0,0.81425 0.29686,1.26379 0.30535,0.44953 0.91604,0.44953 z"
           id="path21929" />
        <path
           d="m 400.38193,331.64311 q 0,1.12808 -0.57677,1.74725 -0.56827,0.61917 -1.54368,0.61917 -0.60221,0 -1.07719,-0.27142 -0.46649,-0.27989 -0.73791,-0.80577 -0.27142,-0.53435 -0.27142,-1.28923 0,-1.12807 0.56828,-1.73876 0.56828,-0.61069 1.54369,-0.61069 0.61917,0 1.08566,0.2799 0.47498,0.27142 0.73792,0.79729 0.27142,0.51739 0.27142,1.27226 z m -3.43513,0 q 0,0.80577 0.31383,1.28075 0.32231,0.4665 1.01781,0.4665 0.68703,0 1.00934,-0.4665 0.3223,-0.47498 0.3223,-1.28075 0,-0.80576 -0.3223,-1.26378 -0.32231,-0.45802 -1.01782,-0.45802 -0.6955,0 -1.00933,0.45802 -0.31383,0.45802 -0.31383,1.26378 z"
           id="path21931" />
        <path
           d="m 407.71866,331.64311 q 0,1.12808 -0.57676,1.74725 -0.56828,0.61917 -1.54368,0.61917 -0.60221,0 -1.07719,-0.27142 -0.4665,-0.27989 -0.73792,-0.80577 -0.27141,-0.53435 -0.27141,-1.28923 0,-1.12807 0.56828,-1.73876 0.56828,-0.61069 1.54368,-0.61069 0.61917,0 1.08567,0.2799 0.47498,0.27142 0.73791,0.79729 0.27142,0.51739 0.27142,1.27226 z m -3.43512,0 q 0,0.80577 0.31383,1.28075 0.3223,0.4665 1.01781,0.4665 0.68702,0 1.00933,-0.4665 0.32231,-0.47498 0.32231,-1.28075 0,-0.80576 -0.32231,-1.26378 -0.32231,-0.45802 -1.01781,-0.45802 -0.69551,0 -1.00933,0.45802 -0.31383,0.45802 -0.31383,1.26378 z"
           id="path21933" />
        <path
           d="m 414.13088,334.01801 q 0,-0.15267 0.008,-0.35623 0.008,-0.20356 0.0339,-0.34776 h -0.0509 q -0.19508,0.28839 -0.54283,0.49195 -0.33927,0.20356 -0.88211,0.20356 -0.82273,0 -1.34012,-0.58524 -0.5089,-0.59373 -0.5089,-1.76421 0,-1.17049 0.51738,-1.76421 0.52588,-0.60221 1.35709,-0.60221 0.53435,0 0.87362,0.20356 0.33927,0.20357 0.54284,0.50043 h 0.0339 l 0.11027,-0.61917 h 0.59372 v 6.58186 h -0.7464 z m -1.28923,-0.62765 q 0.70399,0 0.99237,-0.38168 0.29686,-0.39016 0.30535,-1.18745 v -0.15267 q 0,-0.86514 -0.28838,-1.30619 -0.28838,-0.44954 -1.0263,-0.44954 -0.61069,0 -0.90755,0.48346 -0.29686,0.47498 -0.29686,1.28075 0,0.80577 0.29686,1.26379 0.30534,0.44953 0.92451,0.44953 z"
           id="path21935" />
        <path
           d="m 420.11902,329.37848 v 4.54623 h -0.61068 l -0.11027,-0.6022 h -0.0339 q -0.22053,0.35623 -0.61069,0.52587 -0.39016,0.16115 -0.83122,0.16115 -0.82273,0 -1.23834,-0.39016 -0.4156,-0.39864 -0.4156,-1.26379 v -2.9771 h 0.75487 v 2.92621 q 0,1.08567 1.00934,1.08567 0.75487,0 1.04326,-0.42409 0.29686,-0.42409 0.29686,-1.22137 v -2.36642 z"
           id="path21937" />
        <path
           d="m 423.31665,329.29366 q 0.58525,0 1.00085,0.25445 0.42409,0.25446 0.64462,0.72096 0.22901,0.45801 0.22901,1.07718 v 0.44954 h -3.11282 q 0.017,0.77184 0.39016,1.17896 0.38168,0.39865 1.06023,0.39865 0.43257,0 0.76336,-0.0763 0.33927,-0.0848 0.6955,-0.23749 v 0.6531 q -0.34775,0.15267 -0.68702,0.22052 -0.33927,0.0763 -0.80577,0.0763 -0.64462,0 -1.14504,-0.26293 -0.49194,-0.26294 -0.77184,-0.78033 -0.27142,-0.52587 -0.27142,-1.28075 0,-0.74639 0.24597,-1.28075 0.25446,-0.53435 0.70399,-0.82273 0.45802,-0.28838 1.06022,-0.28838 z m -0.008,0.61069 q -0.53435,0 -0.84818,0.34775 -0.30534,0.33927 -0.36471,0.94996 h 2.31552 q -0.008,-0.57676 -0.27141,-0.93299 -0.26294,-0.36472 -0.83122,-0.36472 z"
           id="path21939" />
        <path
           d="m 355.46665,339.89589 q 0.83969,0 1.3486,0.58524 0.51739,0.58524 0.51739,1.76421 0,1.162 -0.51739,1.76421 -0.50891,0.60221 -1.35709,0.60221 -0.52587,0 -0.87362,-0.19508 -0.33927,-0.20357 -0.53435,-0.4665 h -0.0509 q 0.017,0.14419 0.0339,0.36471 0.017,0.22053 0.017,0.38168 v 1.866 h -0.7464 v -6.58187 h 0.61069 l 0.10178,0.61917 h 0.0339 q 0.20356,-0.29686 0.53435,-0.50042 0.33079,-0.20356 0.88211,-0.20356 z m -0.13571,0.62765 q -0.69551,0 -0.98389,0.39016 -0.2799,0.39016 -0.29686,1.18745 v 0.14419 q 0,0.8397 0.27142,1.29771 0.2799,0.44954 1.02629,0.44954 0.41561,0 0.67854,-0.22901 0.27142,-0.22901 0.39865,-0.61917 0.13571,-0.39865 0.13571,-0.90755 0,-0.78033 -0.30535,-1.24682 -0.29686,-0.4665 -0.92451,-0.4665 z"
           id="path21941" />
        <path
           d="m 360.64053,339.89589 q 0.12723,0 0.27142,0.017 0.15267,0.008 0.26293,0.0339 l -0.0933,0.68702 q -0.11026,-0.0254 -0.24597,-0.0424 -0.12723,-0.017 -0.24597,-0.017 -0.34775,0 -0.6531,0.19508 -0.30534,0.1866 -0.49194,0.53435 -0.17812,0.33927 -0.17812,0.79729 v 2.42579 h -0.74639 v -4.54624 h 0.61068 l 0.0848,0.83122 h 0.0339 q 0.22052,-0.3732 0.56828,-0.64462 0.34775,-0.27141 0.82273,-0.27141 z"
           id="path21943" />
        <path
           d="m 363.57522,339.90437 q 0.83122,0 1.22986,0.36471 0.39865,0.36472 0.39865,1.16201 v 3.09585 h -0.54284 l -0.14419,-0.64462 h -0.0339 q -0.29686,0.3732 -0.62765,0.55132 -0.32231,0.17812 -0.89907,0.17812 -0.61917,0 -1.02629,-0.32231 -0.40713,-0.33079 -0.40713,-1.0263 0,-0.67854 0.53435,-1.04326 0.53436,-0.37319 1.64547,-0.40712 l 0.77184,-0.0254 v -0.27141 q 0,-0.56828 -0.24597,-0.78881 -0.24597,-0.22053 -0.69551,-0.22053 -0.35623,0 -0.67854,0.11027 -0.32231,0.10178 -0.6022,0.23749 l -0.22901,-0.5598 q 0.29686,-0.16115 0.70399,-0.27142 0.40712,-0.11874 0.84817,-0.11874 z m 0.22053,2.42579 q -0.84818,0.0339 -1.17897,0.27141 -0.32231,0.23749 -0.32231,0.67006 0,0.38168 0.22901,0.5598 0.23749,0.17812 0.60221,0.17812 0.57676,0 0.95844,-0.31383 0.38168,-0.3223 0.38168,-0.98388 v -0.40713 z"
           id="path21945" />
        <path
           d="m 371.77711,343.27163 q 0,0.66158 -0.49194,1.00085 -0.49194,0.33928 -1.32316,0.33928 -0.47498,0 -0.82273,-0.0763 -0.33927,-0.0763 -0.60221,-0.21204 v -0.67855 q 0.27142,0.13571 0.6531,0.25446 0.39016,0.11026 0.78881,0.11026 0.56828,0 0.82273,-0.17812 0.25445,-0.1866 0.25445,-0.49194 0,-0.16964 -0.0933,-0.30535 -0.0933,-0.1357 -0.33927,-0.27141 -0.23749,-0.13571 -0.68702,-0.30535 -0.44106,-0.16963 -0.75488,-0.33927 -0.31383,-0.16963 -0.48346,-0.40712 -0.16964,-0.23749 -0.16964,-0.61069 0,-0.57676 0.4665,-0.89059 0.47498,-0.31382 1.23834,-0.31382 0.41561,0 0.77184,0.0848 0.36472,0.0763 0.67854,0.22053 l -0.25445,0.59372 q -0.28838,-0.11874 -0.60221,-0.20356 -0.31382,-0.0848 -0.64461,-0.0848 -0.45802,0 -0.70399,0.15268 -0.23749,0.14419 -0.23749,0.39864 0,0.1866 0.11026,0.32231 0.11027,0.12722 0.36472,0.25445 0.26294,0.11875 0.69551,0.28838 0.43257,0.16116 0.73791,0.33079 0.30535,0.16964 0.4665,0.41561 0.16115,0.23749 0.16115,0.6022 z"
           id="path21947" />
        <path
           d="m 374.63547,339.89589 q 0.58525,0 1.00085,0.25445 0.42409,0.25445 0.64462,0.72095 0.22901,0.45802 0.22901,1.07719 v 0.44953 h -3.11282 q 0.017,0.77184 0.39017,1.17897 0.38168,0.39864 1.06022,0.39864 0.43257,0 0.76336,-0.0763 0.33927,-0.0848 0.6955,-0.23749 v 0.65309 q -0.34775,0.15268 -0.68702,0.22053 -0.33927,0.0763 -0.80577,0.0763 -0.64461,0 -1.14504,-0.26294 -0.49194,-0.26293 -0.77184,-0.78032 -0.27142,-0.52587 -0.27142,-1.28075 0,-0.7464 0.24597,-1.28075 0.25446,-0.53435 0.70399,-0.82273 0.45802,-0.28838 1.06022,-0.28838 z m -0.008,0.61068 q -0.53435,0 -0.84818,0.34776 -0.30534,0.33927 -0.36471,0.94996 h 2.31552 q -0.008,-0.57676 -0.27141,-0.933 -0.26294,-0.36472 -0.83122,-0.36472 z"
           id="path21949" />
        <path
           d="m 381.69231,344.61176 q -0.60221,0 -1.07718,-0.24598 -0.4665,-0.24597 -0.73792,-0.76336 -0.26294,-0.51738 -0.26294,-1.32315 0,-0.8397 0.2799,-1.36557 0.2799,-0.52587 0.75488,-0.77184 0.48346,-0.24597 1.09415,-0.24597 0.34775,0 0.67006,0.0763 0.32231,0.0679 0.52587,0.16964 l -0.22901,0.61917 q -0.20356,-0.0763 -0.47497,-0.14419 -0.27142,-0.0679 -0.50891,-0.0679 -1.34012,0 -1.34012,1.7218 0,0.82274 0.3223,1.26379 0.33079,0.43257 0.97541,0.43257 0.3732,0 0.6531,-0.0763 0.28838,-0.0763 0.52587,-0.18659 v 0.66157 q -0.22901,0.11875 -0.50891,0.17812 -0.27142,0.0679 -0.66158,0.0679 z"
           id="path21951" />
        <path
           d="m 385.66178,339.90437 q 0.83121,0 1.22986,0.36471 0.39864,0.36472 0.39864,1.16201 v 3.09585 h -0.54283 l -0.14419,-0.64462 h -0.0339 q -0.29686,0.3732 -0.62765,0.55132 -0.32231,0.17812 -0.89907,0.17812 -0.61917,0 -1.0263,-0.32231 -0.40712,-0.33079 -0.40712,-1.0263 0,-0.67854 0.53435,-1.04326 0.53435,-0.37319 1.64547,-0.40712 l 0.77184,-0.0254 v -0.27141 q 0,-0.56828 -0.24597,-0.78881 -0.24598,-0.22053 -0.69551,-0.22053 -0.35623,0 -0.67854,0.11027 -0.32231,0.10178 -0.60221,0.23749 l -0.22901,-0.5598 q 0.29687,-0.16115 0.70399,-0.27142 0.40713,-0.11874 0.84818,-0.11874 z m 0.22053,2.42579 q -0.84818,0.0339 -1.17897,0.27141 -0.32231,0.23749 -0.32231,0.67006 0,0.38168 0.22901,0.5598 0.23749,0.17812 0.6022,0.17812 0.57677,0 0.95845,-0.31383 0.38168,-0.3223 0.38168,-0.98388 v -0.40713 z"
           id="path21953" />
        <path
           d="m 390.3098,344.61176 q -0.84818,0 -1.35708,-0.58525 -0.50891,-0.59372 -0.50891,-1.76421 0,-1.17048 0.50891,-1.76421 0.51738,-0.6022 1.36556,-0.6022 0.52587,0 0.85666,0.19508 0.33927,0.19508 0.55132,0.47498 h 0.0509 q -0.008,-0.11027 -0.0339,-0.32231 -0.017,-0.22053 -0.017,-0.34775 v -1.8151 h 0.7464 v 6.44615 h -0.60221 l -0.11026,-0.61069 h -0.0339 q -0.20356,0.28838 -0.54284,0.49194 -0.33927,0.20357 -0.87362,0.20357 z m 0.11875,-0.61917 q 0.72095,0 1.00933,-0.39017 0.29686,-0.39864 0.29686,-1.19593 v -0.13571 q 0,-0.84817 -0.2799,-1.29771 -0.2799,-0.45801 -1.03478,-0.45801 -0.6022,0 -0.90755,0.48346 -0.29686,0.47498 -0.29686,1.28075 0,0.81425 0.29686,1.26378 0.30535,0.44954 0.91604,0.44954 z"
           id="path21955" />
        <path
           d="m 395.63636,339.90437 q 0.83121,0 1.22986,0.36471 0.39864,0.36472 0.39864,1.16201 v 3.09585 h -0.54283 l -0.14419,-0.64462 h -0.0339 q -0.29686,0.3732 -0.62765,0.55132 -0.32231,0.17812 -0.89907,0.17812 -0.61917,0 -1.0263,-0.32231 -0.40712,-0.33079 -0.40712,-1.0263 0,-0.67854 0.53435,-1.04326 0.53435,-0.37319 1.64546,-0.40712 l 0.77185,-0.0254 v -0.27141 q 0,-0.56828 -0.24598,-0.78881 -0.24597,-0.22053 -0.6955,-0.22053 -0.35624,0 -0.67854,0.11027 -0.32231,0.10178 -0.60221,0.23749 l -0.22901,-0.5598 q 0.29686,-0.16115 0.70399,-0.27142 0.40713,-0.11874 0.84818,-0.11874 z m 0.22052,2.42579 q -0.84817,0.0339 -1.17896,0.27141 -0.32231,0.23749 -0.32231,0.67006 0,0.38168 0.22901,0.5598 0.23749,0.17812 0.6022,0.17812 0.57676,0 0.95844,-0.31383 0.38168,-0.3223 0.38168,-0.98388 v -0.40713 z"
           id="path21957" />
        <path
           d="m 401.63298,343.27163 q 0,0.66158 -0.49194,1.00085 -0.49194,0.33928 -1.32316,0.33928 -0.47498,0 -0.82273,-0.0763 -0.33927,-0.0763 -0.60221,-0.21204 v -0.67855 q 0.27142,0.13571 0.6531,0.25446 0.39016,0.11026 0.78881,0.11026 0.56827,0 0.82273,-0.17812 0.25445,-0.1866 0.25445,-0.49194 0,-0.16964 -0.0933,-0.30535 -0.0933,-0.1357 -0.33927,-0.27141 -0.23749,-0.13571 -0.68702,-0.30535 -0.44106,-0.16963 -0.75488,-0.33927 -0.31383,-0.16963 -0.48346,-0.40712 -0.16964,-0.23749 -0.16964,-0.61069 0,-0.57676 0.4665,-0.89059 0.47498,-0.31382 1.23834,-0.31382 0.41561,0 0.77184,0.0848 0.36472,0.0763 0.67854,0.22053 l -0.25445,0.59372 q -0.28838,-0.11874 -0.60221,-0.20356 -0.31382,-0.0848 -0.64461,-0.0848 -0.45802,0 -0.70399,0.15268 -0.23749,0.14419 -0.23749,0.39864 0,0.1866 0.11026,0.32231 0.11027,0.12722 0.36472,0.25445 0.26294,0.11875 0.69551,0.28838 0.43257,0.16116 0.73791,0.33079 0.30535,0.16964 0.4665,0.41561 0.16115,0.23749 0.16115,0.6022 z"
           id="path21959" />
        <path
           d="m 404.25386,344.00107 q 0.16963,0 0.34775,-0.0255 0.17812,-0.0339 0.28838,-0.0678 v 0.56828 q -0.11875,0.0594 -0.33927,0.0933 -0.22053,0.0424 -0.42409,0.0424 -0.35624,0 -0.66158,-0.11875 -0.29686,-0.12723 -0.48346,-0.43257 -0.1866,-0.30534 -0.1866,-0.85666 v -2.64631 h -0.64462 v -0.35624 l 0.6531,-0.29686 0.29686,-0.96692 h 0.44106 v 1.04325 h 1.31467 v 0.57677 h -1.31467 v 2.62935 q 0,0.4156 0.19508,0.61917 0.20356,0.19508 0.51739,0.19508 z"
           id="path21961" />
        <path
           d="m 407.91798,339.89589 q 0.12723,0 0.27142,0.017 0.15267,0.008 0.26293,0.0339 l -0.0933,0.68702 q -0.11026,-0.0254 -0.24597,-0.0424 -0.12722,-0.017 -0.24597,-0.017 -0.34775,0 -0.6531,0.19508 -0.30534,0.1866 -0.49194,0.53435 -0.17812,0.33927 -0.17812,0.79729 v 2.42579 h -0.74639 v -4.54624 h 0.61068 l 0.0848,0.83122 h 0.0339 q 0.22053,-0.3732 0.56828,-0.64462 0.34775,-0.27141 0.82273,-0.27141 z"
           id="path21963" />
        <path
           d="m 410.85268,339.90437 q 0.83121,0 1.22986,0.36471 0.39864,0.36472 0.39864,1.16201 v 3.09585 h -0.54283 l -0.14419,-0.64462 h -0.0339 q -0.29686,0.3732 -0.62765,0.55132 -0.32231,0.17812 -0.89907,0.17812 -0.61917,0 -1.0263,-0.32231 -0.40712,-0.33079 -0.40712,-1.0263 0,-0.67854 0.53435,-1.04326 0.53435,-0.37319 1.64546,-0.40712 l 0.77185,-0.0254 v -0.27141 q 0,-0.56828 -0.24598,-0.78881 -0.24597,-0.22053 -0.6955,-0.22053 -0.35624,0 -0.67854,0.11027 -0.32231,0.10178 -0.60221,0.23749 l -0.22901,-0.5598 q 0.29686,-0.16115 0.70399,-0.27142 0.40713,-0.11874 0.84818,-0.11874 z m 0.22052,2.42579 q -0.84817,0.0339 -1.17896,0.27141 -0.32231,0.23749 -0.32231,0.67006 0,0.38168 0.22901,0.5598 0.23749,0.17812 0.6022,0.17812 0.57676,0 0.95844,-0.31383 0.38168,-0.3223 0.38168,-0.98388 v -0.40713 z"
           id="path21965" />
        <path
           d="m 416.00961,339.89589 q 0.12722,0 0.27141,0.017 0.15268,0.008 0.26294,0.0339 l -0.0933,0.68702 q -0.11026,-0.0254 -0.24597,-0.0424 -0.12723,-0.017 -0.24597,-0.017 -0.34776,0 -0.6531,0.19508 -0.30535,0.1866 -0.49194,0.53435 -0.17812,0.33927 -0.17812,0.79729 v 2.42579 h -0.7464 v -4.54624 h 0.61069 l 0.0848,0.83122 h 0.0339 q 0.22053,-0.3732 0.56828,-0.64462 0.34776,-0.27141 0.82274,-0.27141 z"
           id="path21967" />
        <path
           d="m 417.85863,342.59309 q 0,-0.32231 0.0594,-0.55131 0.0679,-0.23749 0.22053,-0.44954 0.16115,-0.21204 0.43257,-0.44105 0.33079,-0.2799 0.50891,-0.4665 0.1866,-0.1866 0.26293,-0.36471 0.0763,-0.17812 0.0763,-0.43258 0,-0.40712 -0.26294,-0.62765 -0.26293,-0.22052 -0.76336,-0.22052 -0.4156,0 -0.73791,0.11026 -0.32231,0.10178 -0.61917,0.24597 l -0.26294,-0.59372 q 0.33927,-0.17812 0.7464,-0.29687 0.41561,-0.11874 0.92451,-0.11874 0.80577,0 1.24683,0.39864 0.44105,0.39865 0.44105,1.08567 0,0.38168 -0.12723,0.6531 -0.11874,0.26293 -0.34775,0.49194 -0.22053,0.22053 -0.52587,0.47498 -0.2799,0.23749 -0.43257,0.41561 -0.14419,0.17812 -0.19508,0.35623 -0.0509,0.16964 -0.0509,0.41561 v 0.14419 h -0.59373 z m -0.19508,1.47583 q 0,-0.31382 0.14419,-0.44105 0.15267,-0.12723 0.38168,-0.12723 0.21205,0 0.36472,0.12723 0.15267,0.12723 0.15267,0.44105 0,0.30535 -0.15267,0.44105 -0.15267,0.13571 -0.36472,0.13571 -0.22901,0 -0.38168,-0.13571 -0.14419,-0.1357 -0.14419,-0.44105 z"
           id="path21969" />
      </g>
    </g>
  </g>
</svg>
