<?xml version="1.0" encoding="UTF-8" standalone="no"?>
<!-- Created with Inkscape (http://www.inkscape.org/) -->

<svg
   width="162.62225mm"
   height="121.29709mm"
   viewBox="0 0 162.62226 121.29709"
   version="1.1"
   id="svg10075"
   sodipodi:docname="beezer_rosto.svg"
   inkscape:version="1.2.2 (b0a8486541, 2022-12-01)"
   xmlns:inkscape="http://www.inkscape.org/namespaces/inkscape"
   xmlns:sodipodi="http://sodipodi.sourceforge.net/DTD/sodipodi-0.dtd"
   xmlns:xlink="http://www.w3.org/1999/xlink"
   xmlns="http://www.w3.org/2000/svg"
   xmlns:svg="http://www.w3.org/2000/svg">
  <sodipodi:namedview
     id="namedview10077"
     pagecolor="#ffffff"
     bordercolor="#000000"
     borderopacity="0.25"
     inkscape:showpageshadow="2"
     inkscape:pageopacity="0.0"
     inkscape:pagecheckerboard="0"
     inkscape:deskcolor="#d1d1d1"
     inkscape:document-units="mm"
     showgrid="false"
     inkscape:zoom="0.75009824"
     inkscape:cx="955.8748"
     inkscape:cy="984.53771"
     inkscape:window-width="1854"
     inkscape:window-height="1009"
     inkscape:window-x="66"
     inkscape:window-y="1112"
     inkscape:window-maximized="1"
     inkscape:current-layer="layer1" />
  <defs
     id="defs10072">
    <linearGradient
       inkscape:collect="always"
       id="linearGradient6936">
      <stop
         style="stop-color:#ff7701;stop-opacity:1;"
         offset="0"
         id="stop6932" />
      <stop
         style="stop-color:#ffcb13;stop-opacity:1;"
         offset="1"
         id="stop6934" />
    </linearGradient>
    <linearGradient
       inkscape:collect="always"
       xlink:href="#linearGradient6936"
       id="linearGradient24723"
       gradientUnits="userSpaceOnUse"
       gradientTransform="matrix(-1.9178397,0.17148325,0.17148325,1.9178397,534.65716,7.5671421)"
       x1="120.89243"
       y1="64.949829"
       x2="125.26547"
       y2="33.846684" />
  </defs>
  <g
     inkscape:label="Layer 1"
     inkscape:groupmode="layer"
     id="layer1"
     transform="translate(-369.35543,-295.44262)">
    <path
       id="path3789-6-6"
       style="fill:#ffffff;stroke:#000000;stroke-width:0.97638;stroke-linecap:round;stroke-linejoin:round;stroke-dasharray:none"
       d="m 531.4895,364.80479 c 0,-2.77887 -2.23709,-5.01595 -5.01595,-5.01595 h -82.14988 c -2.77886,0 -5.01595,2.23708 -5.01595,5.01595 v 19.11951 c -1.17515,3.09891 -3.25585,4.5286 -10.68508,2.98913 2.46823,4.12152 6.96468,5.37873 10.68508,4.77305 v 5.80433 c 0,2.77886 2.23709,5.01595 5.01595,5.01595 h 82.14988 c 2.77886,0 5.01595,-2.23709 5.01595,-5.01595 z"
       sodipodi:nodetypes="sssscccsssss" />
    <g
       aria-label="E então, adicione 
disciplinas!"
       id="text17948-1-1-1-7"
       style="font-size:8.48178px;font-family:'Noto Sans Yi';-inkscape-font-specification:'Noto Sans Yi';text-align:center;text-anchor:middle;fill:#09090b;stroke-width:2.59396;stroke-linecap:round;stroke-linejoin:round"
       transform="translate(51.473433,-89.771228)">
      <path
         d="m 403.101,469.97055 h -3.38423 v -6.05599 h 3.38423 v 0.67006 h -2.62087 v 1.89144 h 2.4682 v 0.66158 h -2.4682 v 2.16285 h 2.62087 z"
         id="path5509" />
      <path
         d="m 408.29185,465.3395 q 0.58524,0 1.00085,0.25445 0.42409,0.25446 0.64462,0.72095 0.229,0.45802 0.229,1.07719 v 0.44953 h -3.11281 q 0.017,0.77185 0.39016,1.17897 0.38168,0.39864 1.06023,0.39864 0.43257,0 0.76336,-0.0763 0.33927,-0.0848 0.6955,-0.23749 v 0.6531 q -0.34775,0.15267 -0.68702,0.22052 -0.33927,0.0763 -0.80577,0.0763 -0.64462,0 -1.14504,-0.26294 -0.49195,-0.26293 -0.77184,-0.78032 -0.27142,-0.52587 -0.27142,-1.28075 0,-0.7464 0.24597,-1.28075 0.25445,-0.53435 0.70399,-0.82273 0.45801,-0.28838 1.06022,-0.28838 z m -0.008,0.61069 q -0.53435,0 -0.84818,0.34775 -0.30534,0.33927 -0.36472,0.94996 h 2.31553 q -0.008,-0.57676 -0.27142,-0.933 -0.26293,-0.36471 -0.83121,-0.36471 z"
         id="path5511" />
      <path
         d="m 413.50814,465.3395 q 0.81425,0 1.22986,0.39864 0.4156,0.39016 0.4156,1.27227 v 2.96014 h -0.73791 v -2.90925 q 0,-1.09415 -1.01781,-1.09415 -0.75488,0 -1.04326,0.42409 -0.28838,0.42409 -0.28838,1.22138 v 2.35793 h -0.7464 v -4.54623 h 0.60221 l 0.11026,0.61917 h 0.0424 q 0.22052,-0.35624 0.61069,-0.52587 0.39016,-0.17812 0.82273,-0.17812 z"
         id="path5513" />
      <path
         d="m 418.07982,469.44468 q 0.16963,0 0.34775,-0.0254 0.17812,-0.0339 0.28838,-0.0679 v 0.56828 q -0.11874,0.0594 -0.33927,0.0933 -0.22052,0.0424 -0.42409,0.0424 -0.35623,0 -0.66158,-0.11875 -0.29686,-0.12722 -0.48346,-0.43257 -0.1866,-0.30534 -0.1866,-0.85666 v -2.64631 h -0.64461 v -0.35624 l 0.65309,-0.29686 0.29687,-0.96692 h 0.44105 v 1.04326 h 1.31468 v 0.57676 h -1.31468 v 2.62935 q 0,0.41561 0.19508,0.61917 0.20356,0.19508 0.51739,0.19508 z"
         id="path5515" />
      <path
         d="m 421.3453,465.34798 q 0.83122,0 1.22986,0.36472 0.39865,0.36471 0.39865,1.162 v 3.09585 h -0.54284 l -0.14419,-0.64461 h -0.0339 q -0.29686,0.37319 -0.62765,0.55131 -0.3223,0.17812 -0.89907,0.17812 -0.61917,0 -1.02629,-0.32231 -0.40713,-0.33079 -0.40713,-1.02629 0,-0.67855 0.53436,-1.04326 0.53435,-0.3732 1.64546,-0.40713 l 0.77184,-0.0254 v -0.27142 q 0,-0.56828 -0.24597,-0.78881 -0.24597,-0.22052 -0.6955,-0.22052 -0.35624,0 -0.67855,0.11026 -0.3223,0.10178 -0.6022,0.23749 l -0.22901,-0.5598 q 0.29686,-0.16115 0.70399,-0.27141 0.40712,-0.11875 0.84817,-0.11875 z m 0.22053,2.42579 q -0.84818,0.0339 -1.17897,0.27142 -0.3223,0.23749 -0.3223,0.67006 0,0.38168 0.229,0.55979 0.23749,0.17812 0.60221,0.17812 0.57676,0 0.95844,-0.31382 0.38168,-0.32231 0.38168,-0.98389 v -0.40713 z m -1.84055,-2.94318 q 0.0509,-0.50042 0.28838,-0.7888 0.24598,-0.29687 0.64462,-0.29687 0.25445,0 0.47498,0.12723 0.22901,0.11875 0.43257,0.23749 0.20356,0.11875 0.38168,0.11875 0.19508,0 0.29686,-0.11875 0.11027,-0.12723 0.16964,-0.3732 h 0.42409 q -0.0509,0.49195 -0.28838,0.78881 -0.23749,0.29686 -0.63614,0.29686 -0.23749,0 -0.46649,-0.11874 -0.22053,-0.11875 -0.43258,-0.23749 -0.20356,-0.12723 -0.39016,-0.12723 -0.20356,0 -0.30534,0.12723 -0.10178,0.11874 -0.16116,0.36471 z"
         id="path5517" />
      <path
         d="m 428.3343,467.68895 q 0,1.12808 -0.57676,1.74725 -0.56828,0.61917 -1.54369,0.61917 -0.6022,0 -1.07718,-0.27142 -0.4665,-0.2799 -0.73792,-0.80577 -0.27142,-0.53435 -0.27142,-1.28923 0,-1.12808 0.56828,-1.73876 0.56828,-0.61069 1.54369,-0.61069 0.61917,0 1.08567,0.2799 0.47498,0.27141 0.73791,0.79728 0.27142,0.51739 0.27142,1.27227 z m -3.43512,0 q 0,0.80577 0.31382,1.28075 0.32231,0.4665 1.01782,0.4665 0.68702,0 1.00933,-0.4665 0.32231,-0.47498 0.32231,-1.28075 0,-0.80577 -0.32231,-1.26378 -0.32231,-0.45802 -1.01782,-0.45802 -0.6955,0 -1.00933,0.45802 -0.31382,0.45801 -0.31382,1.26378 z"
         id="path5519" />
      <path
         d="m 430.42081,469.07996 q -0.11026,0.44954 -0.32231,0.98389 -0.20356,0.54283 -0.40712,1.00085 h -0.55132 q 0.11875,-0.48346 0.23749,-1.06022 0.12723,-0.57676 0.1866,-1.01782 h 0.79729 z"
         id="path5521" />
      <path
         d="m 435.71344,465.34798 q 0.83122,0 1.22986,0.36472 0.39865,0.36471 0.39865,1.162 v 3.09585 h -0.54284 l -0.14419,-0.64461 h -0.0339 q -0.29686,0.37319 -0.62765,0.55131 -0.32231,0.17812 -0.89907,0.17812 -0.61917,0 -1.02629,-0.32231 -0.40713,-0.33079 -0.40713,-1.02629 0,-0.67855 0.53435,-1.04326 0.53436,-0.3732 1.64547,-0.40713 l 0.77184,-0.0254 v -0.27142 q 0,-0.56828 -0.24597,-0.78881 -0.24597,-0.22052 -0.69551,-0.22052 -0.35623,0 -0.67854,0.11026 -0.32231,0.10178 -0.6022,0.23749 l -0.22901,-0.5598 q 0.29686,-0.16115 0.70399,-0.27141 0.40712,-0.11875 0.84817,-0.11875 z m 0.22053,2.42579 q -0.84818,0.0339 -1.17897,0.27142 -0.32231,0.23749 -0.32231,0.67006 0,0.38168 0.22901,0.55979 0.23749,0.17812 0.60221,0.17812 0.57676,0 0.95844,-0.31382 0.38168,-0.32231 0.38168,-0.98389 v -0.40713 z"
         id="path5523" />
      <path
         d="m 440.36147,470.05537 q -0.84818,0 -1.35709,-0.58524 -0.50891,-0.59373 -0.50891,-1.76421 0,-1.17049 0.50891,-1.76421 0.51739,-0.60221 1.36557,-0.60221 0.52587,0 0.85666,0.19508 0.33927,0.19508 0.55131,0.47498 h 0.0509 q -0.008,-0.11026 -0.0339,-0.32231 -0.017,-0.22052 -0.017,-0.34775 v -1.8151 h 0.7464 v 6.44615 h -0.60221 l -0.11026,-0.61069 h -0.0339 q -0.20356,0.28838 -0.54283,0.49195 -0.33927,0.20356 -0.87362,0.20356 z m 0.11874,-0.61917 q 0.72095,0 1.00933,-0.39016 0.29686,-0.39865 0.29686,-1.19593 v -0.13571 q 0,-0.84818 -0.27989,-1.29772 -0.2799,-0.45801 -1.03478,-0.45801 -0.60221,0 -0.90755,0.48346 -0.29686,0.47498 -0.29686,1.28075 0,0.81425 0.29686,1.26378 0.30534,0.44954 0.91603,0.44954 z"
         id="path5525" />
      <path
         d="m 444.3479,463.71948 q 0.16963,0 0.29686,0.11874 0.13571,0.11027 0.13571,0.35624 0,0.23749 -0.13571,0.35623 -0.12723,0.11875 -0.29686,0.11875 -0.1866,0 -0.31383,-0.11875 -0.12723,-0.11874 -0.12723,-0.35623 0,-0.24597 0.12723,-0.35624 0.12723,-0.11874 0.31383,-0.11874 z m 0.36471,1.70484 v 4.54623 h -0.74639 v -4.54623 z"
         id="path5527" />
      <path
         d="m 447.9781,470.05537 q -0.60221,0 -1.07719,-0.24597 -0.4665,-0.24597 -0.73791,-0.76336 -0.26294,-0.51739 -0.26294,-1.32316 0,-0.8397 0.2799,-1.36557 0.2799,-0.52587 0.75488,-0.77184 0.48346,-0.24597 1.09415,-0.24597 0.34775,0 0.67006,0.0763 0.32231,0.0679 0.52587,0.16964 l -0.22901,0.61917 q -0.20356,-0.0763 -0.47498,-0.14419 -0.27142,-0.0679 -0.50891,-0.0679 -1.34012,0 -1.34012,1.7218 0,0.82273 0.32231,1.26378 0.33079,0.43257 0.97541,0.43257 0.37319,0 0.65309,-0.0763 0.28838,-0.0763 0.52587,-0.1866 v 0.66158 q -0.22901,0.11874 -0.5089,0.17811 -0.27142,0.0679 -0.66158,0.0679 z"
         id="path5529" />
      <path
         d="m 450.60745,463.71948 q 0.16963,0 0.29686,0.11874 0.13571,0.11027 0.13571,0.35624 0,0.23749 -0.13571,0.35623 -0.12723,0.11875 -0.29686,0.11875 -0.1866,0 -0.31383,-0.11875 -0.12723,-0.11874 -0.12723,-0.35623 0,-0.24597 0.12723,-0.35624 0.12723,-0.11874 0.31383,-0.11874 z m 0.36471,1.70484 v 4.54623 h -0.74639 v -4.54623 z"
         id="path5531" />
      <path
         d="m 456.36657,467.68895 q 0,1.12808 -0.57676,1.74725 -0.56828,0.61917 -1.54369,0.61917 -0.6022,0 -1.07718,-0.27142 -0.4665,-0.2799 -0.73792,-0.80577 -0.27141,-0.53435 -0.27141,-1.28923 0,-1.12808 0.56827,-1.73876 0.56828,-0.61069 1.54369,-0.61069 0.61917,0 1.08567,0.2799 0.47498,0.27141 0.73791,0.79728 0.27142,0.51739 0.27142,1.27227 z m -3.43512,0 q 0,0.80577 0.31382,1.28075 0.32231,0.4665 1.01782,0.4665 0.68702,0 1.00933,-0.4665 0.32231,-0.47498 0.32231,-1.28075 0,-0.80577 -0.32231,-1.26378 -0.32231,-0.45802 -1.01782,-0.45802 -0.6955,0 -1.00933,0.45802 -0.31382,0.45801 -0.31382,1.26378 z"
         id="path5533" />
      <path
         d="m 459.73383,465.3395 q 0.81425,0 1.22986,0.39864 0.41561,0.39016 0.41561,1.27227 v 2.96014 h -0.73792 v -2.90925 q 0,-1.09415 -1.01781,-1.09415 -0.75488,0 -1.04326,0.42409 -0.28838,0.42409 -0.28838,1.22138 v 2.35793 h -0.7464 v -4.54623 h 0.60221 l 0.11026,0.61917 h 0.0424 q 0.22053,-0.35624 0.61069,-0.52587 0.39016,-0.17812 0.82273,-0.17812 z"
         id="path5535" />
      <path
         d="m 464.543,465.3395 q 0.58524,0 1.00085,0.25445 0.42409,0.25446 0.64461,0.72095 0.22901,0.45802 0.22901,1.07719 v 0.44953 h -3.11281 q 0.017,0.77185 0.39016,1.17897 0.38168,0.39864 1.06022,0.39864 0.43257,0 0.76336,-0.0763 0.33927,-0.0848 0.69551,-0.23749 v 0.6531 q -0.34775,0.15267 -0.68703,0.22052 -0.33927,0.0763 -0.80576,0.0763 -0.64462,0 -1.14504,-0.26294 -0.49195,-0.26293 -0.77185,-0.78032 -0.27141,-0.52587 -0.27141,-1.28075 0,-0.7464 0.24597,-1.28075 0.25445,-0.53435 0.70399,-0.82273 0.45801,-0.28838 1.06022,-0.28838 z m -0.008,0.61069 q -0.53436,0 -0.84818,0.34775 -0.30535,0.33927 -0.36472,0.94996 h 2.31553 q -0.008,-0.57676 -0.27142,-0.933 -0.26293,-0.36471 -0.83121,-0.36471 z"
         id="path5537" />
      <path
         d="m 414.47507,480.65759 q -0.84818,0 -1.35708,-0.58524 -0.50891,-0.59372 -0.50891,-1.76421 0,-1.17049 0.50891,-1.76421 0.51738,-0.60221 1.36556,-0.60221 0.52587,0 0.85666,0.19508 0.33927,0.19509 0.55132,0.47498 h 0.0509 q -0.008,-0.11026 -0.0339,-0.3223 -0.017,-0.22053 -0.017,-0.34776 v -1.8151 h 0.7464 v 6.44616 h -0.60221 l -0.11026,-0.61069 h -0.0339 q -0.20356,0.28838 -0.54284,0.49194 -0.33927,0.20356 -0.87362,0.20356 z m 0.11875,-0.61917 q 0.72095,0 1.00933,-0.39016 0.29686,-0.39864 0.29686,-1.19593 v -0.13571 q 0,-0.84818 -0.2799,-1.29771 -0.2799,-0.45802 -1.03478,-0.45802 -0.6022,0 -0.90755,0.48347 -0.29686,0.47497 -0.29686,1.28074 0,0.81425 0.29686,1.26379 0.30535,0.44953 0.91604,0.44953 z"
         id="path5539" />
      <path
         d="m 418.46151,474.3217 q 0.16963,0 0.29686,0.11875 0.13571,0.11026 0.13571,0.35623 0,0.23749 -0.13571,0.35624 -0.12723,0.11874 -0.29686,0.11874 -0.1866,0 -0.31383,-0.11874 -0.12723,-0.11875 -0.12723,-0.35624 0,-0.24597 0.12723,-0.35623 0.12723,-0.11875 0.31383,-0.11875 z m 0.36471,1.70484 v 4.54624 h -0.74639 v -4.54624 z"
         id="path5541" />
      <path
         d="m 423.22826,479.31747 q 0,0.66158 -0.49194,1.00085 -0.49194,0.33927 -1.32316,0.33927 -0.47498,0 -0.82273,-0.0763 -0.33927,-0.0763 -0.60221,-0.21205 v -0.67854 q 0.27142,0.13571 0.6531,0.25445 0.39016,0.11027 0.7888,0.11027 0.56828,0 0.82274,-0.17812 0.25445,-0.1866 0.25445,-0.49194 0,-0.16964 -0.0933,-0.30535 -0.0933,-0.13571 -0.33927,-0.27141 -0.23749,-0.13571 -0.68702,-0.30535 -0.44106,-0.16963 -0.75488,-0.33927 -0.31383,-0.16964 -0.48346,-0.40713 -0.16964,-0.23749 -0.16964,-0.61068 0,-0.57676 0.4665,-0.89059 0.47498,-0.31383 1.23834,-0.31383 0.4156,0 0.77184,0.0848 0.36472,0.0763 0.67854,0.22053 l -0.25445,0.59372 q -0.28838,-0.11874 -0.60221,-0.20356 -0.31382,-0.0848 -0.64461,-0.0848 -0.45802,0 -0.70399,0.15267 -0.23749,0.14419 -0.23749,0.39865 0,0.1866 0.11026,0.32231 0.11027,0.12722 0.36472,0.25445 0.26293,0.11874 0.6955,0.28838 0.43258,0.16115 0.73792,0.33079 0.30534,0.16963 0.4665,0.41561 0.16115,0.23749 0.16115,0.6022 z"
         id="path5543" />
      <path
         d="m 426.15448,480.65759 q -0.60221,0 -1.07719,-0.24597 -0.4665,-0.24597 -0.73791,-0.76336 -0.26294,-0.51739 -0.26294,-1.32316 0,-0.83969 0.2799,-1.36556 0.2799,-0.52587 0.75488,-0.77184 0.48346,-0.24598 1.09415,-0.24598 0.34775,0 0.67006,0.0763 0.32231,0.0679 0.52587,0.16964 l -0.22901,0.61917 q -0.20356,-0.0763 -0.47498,-0.1442 -0.27142,-0.0678 -0.50891,-0.0678 -1.34012,0 -1.34012,1.7218 0,0.82273 0.32231,1.26379 0.33079,0.43257 0.9754,0.43257 0.3732,0 0.6531,-0.0763 0.28838,-0.0763 0.52587,-0.1866 v 0.66158 q -0.22901,0.11875 -0.5089,0.17812 -0.27142,0.0679 -0.66158,0.0679 z"
         id="path5545" />
      <path
         d="m 428.78382,474.3217 q 0.16964,0 0.29687,0.11875 0.1357,0.11026 0.1357,0.35623 0,0.23749 -0.1357,0.35624 -0.12723,0.11874 -0.29687,0.11874 -0.1866,0 -0.31382,-0.11874 -0.12723,-0.11875 -0.12723,-0.35624 0,-0.24597 0.12723,-0.35623 0.12722,-0.11875 0.31382,-0.11875 z m 0.36472,1.70484 v 4.54624 h -0.7464 v -4.54624 z"
         id="path5547" />
      <path
         d="m 432.75329,475.94172 q 0.8397,0 1.34861,0.58525 0.51738,0.58524 0.51738,1.76421 0,1.162 -0.51738,1.76421 -0.50891,0.6022 -1.35709,0.6022 -0.52587,0 -0.87362,-0.19508 -0.33927,-0.20356 -0.53435,-0.4665 h -0.0509 q 0.017,0.14419 0.0339,0.36472 0.017,0.22053 0.017,0.38168 v 1.86599 h -0.7464 v -6.58186 h 0.61069 l 0.10178,0.61917 h 0.0339 q 0.20356,-0.29686 0.53435,-0.50042 0.33079,-0.20357 0.8821,-0.20357 z m -0.13571,0.62766 q -0.6955,0 -0.98388,0.39016 -0.2799,0.39016 -0.29686,1.18745 v 0.14419 q 0,0.83969 0.27141,1.29771 0.2799,0.44953 1.0263,0.44953 0.41561,0 0.67854,-0.229 0.27142,-0.22901 0.39864,-0.61917 0.13571,-0.39865 0.13571,-0.90756 0,-0.78032 -0.30534,-1.24682 -0.29686,-0.46649 -0.92452,-0.46649 z"
         id="path5549" />
      <path
         d="m 436.55313,480.57278 h -0.7464 v -6.44616 h 0.7464 z"
         id="path5551" />
      <path
         d="m 438.37671,474.3217 q 0.16963,0 0.29686,0.11875 0.13571,0.11026 0.13571,0.35623 0,0.23749 -0.13571,0.35624 -0.12723,0.11874 -0.29686,0.11874 -0.1866,0 -0.31383,-0.11874 -0.12723,-0.11875 -0.12723,-0.35624 0,-0.24597 0.12723,-0.35623 0.12723,-0.11875 0.31383,-0.11875 z m 0.36471,1.70484 v 4.54624 h -0.74639 v -4.54624 z"
         id="path5553" />
      <path
         d="m 442.37162,475.94172 q 0.81425,0 1.22986,0.39865 0.4156,0.39016 0.4156,1.27226 v 2.96015 h -0.73791 v -2.90925 q 0,-1.09415 -1.01781,-1.09415 -0.75488,0 -1.04326,0.42408 -0.28838,0.42409 -0.28838,1.22138 v 2.35794 h -0.7464 v -4.54624 h 0.60221 l 0.11026,0.61917 h 0.0424 q 0.22052,-0.35623 0.61069,-0.52587 0.39016,-0.17812 0.82273,-0.17812 z"
         id="path5555" />
      <path
         d="m 447.14686,475.95021 q 0.83122,0 1.22986,0.36471 0.39864,0.36472 0.39864,1.16201 v 3.09585 h -0.54283 l -0.14419,-0.64462 h -0.0339 q -0.29686,0.3732 -0.62765,0.55132 -0.32231,0.17811 -0.89907,0.17811 -0.61917,0 -1.02629,-0.3223 -0.40713,-0.33079 -0.40713,-1.0263 0,-0.67854 0.53435,-1.04326 0.53436,-0.3732 1.64547,-0.40712 l 0.77184,-0.0254 v -0.27142 q 0,-0.56828 -0.24597,-0.7888 -0.24597,-0.22053 -0.69551,-0.22053 -0.35623,0 -0.67854,0.11026 -0.32231,0.10179 -0.60221,0.23749 l -0.229,-0.55979 q 0.29686,-0.16116 0.70398,-0.27142 0.40713,-0.11874 0.84818,-0.11874 z m 0.22053,2.42578 q -0.84818,0.0339 -1.17897,0.27142 -0.32231,0.23749 -0.32231,0.67006 0,0.38168 0.22901,0.5598 0.23749,0.17812 0.60221,0.17812 0.57676,0 0.95844,-0.31383 0.38168,-0.32231 0.38168,-0.98389 v -0.40712 z"
         id="path5557" />
      <path
         d="m 453.14349,479.31747 q 0,0.66158 -0.49195,1.00085 -0.49194,0.33927 -1.32315,0.33927 -0.47498,0 -0.82274,-0.0763 -0.33927,-0.0763 -0.6022,-0.21205 v -0.67854 q 0.27141,0.13571 0.65309,0.25445 0.39017,0.11027 0.78881,0.11027 0.56828,0 0.82273,-0.17812 0.25446,-0.1866 0.25446,-0.49194 0,-0.16964 -0.0933,-0.30535 -0.0933,-0.13571 -0.33928,-0.27141 -0.23748,-0.13571 -0.68702,-0.30535 -0.44105,-0.16963 -0.75488,-0.33927 -0.31382,-0.16964 -0.48346,-0.40713 -0.16963,-0.23749 -0.16963,-0.61068 0,-0.57676 0.46649,-0.89059 0.47498,-0.31383 1.23834,-0.31383 0.41561,0 0.77185,0.0848 0.36471,0.0763 0.67854,0.22053 l -0.25446,0.59372 q -0.28838,-0.11874 -0.6022,-0.20356 -0.31383,-0.0848 -0.64462,-0.0848 -0.45801,0 -0.70399,0.15267 -0.23749,0.14419 -0.23749,0.39865 0,0.1866 0.11027,0.32231 0.11026,0.12722 0.36471,0.25445 0.26294,0.11874 0.69551,0.28838 0.43257,0.16115 0.73792,0.33079 0.30534,0.16963 0.46649,0.41561 0.16116,0.23749 0.16116,0.6022 z"
         id="path5559" />
      <path
         d="m 454.9077,478.86794 h -0.48346 l -0.21205,-4.35116 h 0.90755 z m -0.77184,1.24682 q 0,-0.31383 0.15267,-0.44105 0.15267,-0.12723 0.3732,-0.12723 0.21204,0 0.36471,0.12723 0.16116,0.12722 0.16116,0.44105 0,0.30534 -0.16116,0.44105 -0.15267,0.13571 -0.36471,0.13571 -0.22053,0 -0.3732,-0.13571 -0.15267,-0.13571 -0.15267,-0.44105 z"
         id="path5561" />
    </g>
    <path
       id="path3789-6-2"
       style="fill:#ffffff;stroke:#000000;stroke-width:0.97638;stroke-linecap:round;stroke-linejoin:round;stroke-dasharray:none"
       d="m 409.2656,295.93082 c -2.77887,0 -5.01595,2.23709 -5.01595,5.01595 v 39.28738 c 0,2.77885 2.23708,5.01594 5.01595,5.01594 h 31.29034 c 0.10588,1.92341 -0.12022,5.31355 -2.50148,8.06618 8.07219,-2.98701 9.73145,-5.7078 10.26366,-8.06618 h 64.01266 c 2.77886,0 5.01595,-2.23709 5.01595,-5.01594 v -39.28738 c 0,-2.77886 -2.23709,-5.01595 -5.01595,-5.01595 z"
       sodipodi:nodetypes="sssscccsssss"
       inkscape:export-filename="cronograma-educacional-react/frontend/public/assets/gatinho_balao_disciplinas.svg"
       inkscape:export-xdpi="96"
       inkscape:export-ydpi="96" />
    <path
       d="m 426.87534,312.05543 q -0.9754,0 -1.5352,0.65309 -0.5598,0.6531 -0.5598,1.78966 0,1.12808 0.51739,1.78965 0.52587,0.6531 1.56913,0.6531 0.39864,0 0.75488,-0.0679 0.35623,-0.0679 0.69551,-0.16964 v 0.66158 q -0.33928,0.12723 -0.70399,0.1866 -0.35624,0.0594 -0.85666,0.0594 -0.92452,0 -1.54369,-0.38168 -0.61917,-0.38168 -0.93299,-1.08567 -0.30535,-0.70398 -0.30535,-1.65394 0,-0.91603 0.33079,-1.61154 0.33927,-0.70399 0.99237,-1.09415 0.6531,-0.39864 1.58609,-0.39864 0.95845,0 1.67091,0.35623 l -0.30534,0.64462 q -0.2799,-0.12723 -0.62765,-0.22901 -0.33927,-0.10178 -0.7464,-0.10178 z"
       id="path5564"
       style="font-size:8.48178px;font-family:'Noto Sans Yi';-inkscape-font-specification:'Noto Sans Yi';text-align:center;text-anchor:middle;fill:#09090b;stroke-width:2.59396;stroke-linecap:round;stroke-linejoin:round" />
    <path
       d="m 433.49113,315.24458 q 0,1.12807 -0.57676,1.74724 -0.56828,0.61917 -1.54368,0.61917 -0.60221,0 -1.07719,-0.27141 -0.4665,-0.2799 -0.73792,-0.80577 -0.27141,-0.53436 -0.27141,-1.28923 0,-1.12808 0.56828,-1.73877 0.56828,-0.61069 1.54368,-0.61069 0.61917,0 1.08567,0.2799 0.47498,0.27142 0.73791,0.79729 0.27142,0.51739 0.27142,1.27227 z m -3.43512,0 q 0,0.80576 0.31383,1.28074 0.3223,0.4665 1.01781,0.4665 0.68702,0 1.00933,-0.4665 0.32231,-0.47498 0.32231,-1.28074 0,-0.80577 -0.32231,-1.26379 -0.32231,-0.45802 -1.01781,-0.45802 -0.69551,0 -1.00933,0.45802 -0.31383,0.45802 -0.31383,1.26379 z"
       id="path5566"
       style="font-size:8.48178px;font-family:'Noto Sans Yi';-inkscape-font-specification:'Noto Sans Yi';text-align:center;text-anchor:middle;fill:#09090b;stroke-width:2.59396;stroke-linecap:round;stroke-linejoin:round" />
    <path
       d="m 439.65738,312.89512 q 0.77184,0 1.15352,0.39865 0.38168,0.39016 0.38168,1.27226 v 2.96014 h -0.73791 v -2.92621 q 0,-1.07719 -0.92452,-1.07719 -0.66157,0 -0.94996,0.38168 -0.27989,0.38168 -0.27989,1.11112 v 2.5106 h -0.73792 v -2.92621 q 0,-1.07719 -0.93299,-1.07719 -0.68703,0 -0.94996,0.42409 -0.26294,0.42409 -0.26294,1.22138 v 2.35793 h -0.7464 v -4.54623 h 0.60221 l 0.11026,0.61917 h 0.0424 q 0.21205,-0.35623 0.56828,-0.52587 0.36472,-0.17812 0.77184,-0.17812 1.06871,0 1.39102,0.76336 h 0.0424 q 0.22901,-0.39016 0.61917,-0.57676 0.39865,-0.1866 0.8397,-0.1866 z"
       id="path5568"
       style="font-size:8.48178px;font-family:'Noto Sans Yi';-inkscape-font-specification:'Noto Sans Yi';text-align:center;text-anchor:middle;fill:#09090b;stroke-width:2.59396;stroke-linecap:round;stroke-linejoin:round" />
    <path
       d="m 444.35628,312.89512 q 0.58524,0 1.00085,0.25446 0.42409,0.25445 0.64462,0.72095 0.229,0.45801 0.229,1.07718 v 0.44954 h -3.11281 q 0.017,0.77184 0.39016,1.17897 0.38168,0.39864 1.06023,0.39864 0.43257,0 0.76336,-0.0763 0.33927,-0.0848 0.6955,-0.23749 v 0.6531 q -0.34775,0.15267 -0.68702,0.22053 -0.33927,0.0763 -0.80577,0.0763 -0.64462,0 -1.14504,-0.26293 -0.49194,-0.26294 -0.77184,-0.78033 -0.27142,-0.52587 -0.27142,-1.28075 0,-0.74639 0.24597,-1.28074 0.25445,-0.53436 0.70399,-0.82274 0.45802,-0.28838 1.06022,-0.28838 z m -0.008,0.61069 q -0.53435,0 -0.84818,0.34775 -0.30534,0.33928 -0.36471,0.94996 h 2.31552 q -0.008,-0.57676 -0.27142,-0.93299 -0.26293,-0.36472 -0.83121,-0.36472 z"
       id="path5570"
       style="font-size:8.48178px;font-family:'Noto Sans Yi';-inkscape-font-specification:'Noto Sans Yi';text-align:center;text-anchor:middle;fill:#09090b;stroke-width:2.59396;stroke-linecap:round;stroke-linejoin:round" />
    <path
       d="m 449.20785,317.61099 q -0.6022,0 -1.07718,-0.24597 -0.4665,-0.24597 -0.73792,-0.76336 -0.26293,-0.51739 -0.26293,-1.32316 0,-0.83969 0.2799,-1.36556 0.2799,-0.52587 0.75487,-0.77185 0.48347,-0.24597 1.09415,-0.24597 0.34776,0 0.67007,0.0763 0.3223,0.0678 0.52587,0.16963 l -0.22901,0.61917 q -0.20357,-0.0763 -0.47498,-0.14419 -0.27142,-0.0679 -0.50891,-0.0679 -1.34012,0 -1.34012,1.7218 0,0.82273 0.32231,1.26379 0.33079,0.43257 0.9754,0.43257 0.3732,0 0.6531,-0.0763 0.28838,-0.0763 0.52587,-0.1866 v 0.66158 q -0.22901,0.11875 -0.50891,0.17812 -0.27141,0.0678 -0.66158,0.0678 z"
       id="path5572"
       style="font-size:8.48178px;font-family:'Noto Sans Yi';-inkscape-font-specification:'Noto Sans Yi';text-align:center;text-anchor:middle;fill:#09090b;stroke-width:2.59396;stroke-linecap:round;stroke-linejoin:round" />
    <path
       d="m 453.21125,312.89512 q 0.58524,0 1.00085,0.25446 0.42409,0.25445 0.64462,0.72095 0.229,0.45801 0.229,1.07718 v 0.44954 h -3.11281 q 0.017,0.77184 0.39016,1.17897 0.38168,0.39864 1.06023,0.39864 0.43257,0 0.76336,-0.0763 0.33927,-0.0848 0.6955,-0.23749 v 0.6531 q -0.34775,0.15267 -0.68702,0.22053 -0.33927,0.0763 -0.80577,0.0763 -0.64462,0 -1.14504,-0.26293 -0.49195,-0.26294 -0.77184,-0.78033 -0.27142,-0.52587 -0.27142,-1.28075 0,-0.74639 0.24597,-1.28074 0.25445,-0.53436 0.70399,-0.82274 0.45801,-0.28838 1.06022,-0.28838 z m -0.008,0.61069 q -0.53435,0 -0.84818,0.34775 -0.30534,0.33928 -0.36472,0.94996 h 2.31553 q -0.008,-0.57676 -0.27142,-0.93299 -0.26293,-0.36472 -0.83121,-0.36472 z"
       id="path5574"
       style="font-size:8.48178px;font-family:'Noto Sans Yi';-inkscape-font-specification:'Noto Sans Yi';text-align:center;text-anchor:middle;fill:#09090b;stroke-width:2.59396;stroke-linecap:round;stroke-linejoin:round" />
    <path
       d="m 463.43179,312.89512 q 0.77184,0 1.15352,0.39865 0.38168,0.39016 0.38168,1.27226 v 2.96014 h -0.73791 v -2.92621 q 0,-1.07719 -0.92451,-1.07719 -0.66158,0 -0.94996,0.38168 -0.2799,0.38168 -0.2799,1.11112 v 2.5106 h -0.73792 v -2.92621 q 0,-1.07719 -0.93299,-1.07719 -0.68703,0 -0.94996,0.42409 -0.26294,0.42409 -0.26294,1.22138 v 2.35793 h -0.74639 v -4.54623 h 0.6022 l 0.11026,0.61917 h 0.0424 q 0.21205,-0.35623 0.56828,-0.52587 0.36472,-0.17812 0.77184,-0.17812 1.06871,0 1.39102,0.76336 h 0.0424 q 0.229,-0.39016 0.61917,-0.57676 0.39864,-0.1866 0.83969,-0.1866 z"
       id="path5576"
       style="font-size:8.48178px;font-family:'Noto Sans Yi';-inkscape-font-specification:'Noto Sans Yi';text-align:center;text-anchor:middle;fill:#09090b;stroke-width:2.59396;stroke-linecap:round;stroke-linejoin:round" />
    <path
       d="m 468.09676,312.9036 q 0.83122,0 1.22986,0.36472 0.39865,0.36472 0.39865,1.162 v 3.09585 h -0.54284 l -0.14419,-0.64461 h -0.0339 q -0.29687,0.3732 -0.62766,0.55132 -0.3223,0.17811 -0.89907,0.17811 -0.61917,0 -1.02629,-0.32231 -0.40713,-0.33078 -0.40713,-1.02629 0,-0.67854 0.53436,-1.04326 0.53435,-0.3732 1.64546,-0.40713 l 0.77184,-0.0254 v -0.27142 q 0,-0.56828 -0.24597,-0.7888 -0.24597,-0.22053 -0.6955,-0.22053 -0.35624,0 -0.67855,0.11026 -0.3223,0.10179 -0.6022,0.23749 l -0.22901,-0.55979 q 0.29686,-0.16116 0.70399,-0.27142 0.40712,-0.11875 0.84817,-0.11875 z m 0.22053,2.42579 q -0.84818,0.0339 -1.17897,0.27142 -0.3223,0.23749 -0.3223,0.67006 0,0.38168 0.229,0.5598 0.23749,0.17812 0.60221,0.17812 0.57676,0 0.95844,-0.31383 0.38168,-0.32231 0.38168,-0.98389 v -0.40712 z"
       id="path5578"
       style="font-size:8.48178px;font-family:'Noto Sans Yi';-inkscape-font-specification:'Noto Sans Yi';text-align:center;text-anchor:middle;fill:#09090b;stroke-width:2.59396;stroke-linecap:round;stroke-linejoin:round" />
    <path
       d="m 473.25369,312.89512 q 0.12723,0 0.27142,0.017 0.15267,0.008 0.26294,0.0339 l -0.0933,0.68703 q -0.11027,-0.0255 -0.24598,-0.0424 -0.12722,-0.017 -0.24597,-0.017 -0.34775,0 -0.65309,0.19508 -0.30535,0.1866 -0.49195,0.53435 -0.17811,0.33927 -0.17811,0.79729 v 2.42578 h -0.7464 v -4.54623 h 0.61069 l 0.0848,0.83121 h 0.0339 q 0.22053,-0.37319 0.56828,-0.64461 0.34775,-0.27142 0.82273,-0.27142 z"
       id="path5580"
       style="font-size:8.48178px;font-family:'Noto Sans Yi';-inkscape-font-specification:'Noto Sans Yi';text-align:center;text-anchor:middle;fill:#09090b;stroke-width:2.59396;stroke-linecap:round;stroke-linejoin:round" />
    <path
       d="m 476.29017,317.61099 q -0.60221,0 -1.07719,-0.24597 -0.4665,-0.24597 -0.73791,-0.76336 -0.26294,-0.51739 -0.26294,-1.32316 0,-0.83969 0.2799,-1.36556 0.2799,-0.52587 0.75488,-0.77185 0.48346,-0.24597 1.09415,-0.24597 0.34775,0 0.67006,0.0763 0.32231,0.0678 0.52587,0.16963 l -0.22901,0.61917 q -0.20356,-0.0763 -0.47498,-0.14419 -0.27142,-0.0679 -0.50891,-0.0679 -1.34012,0 -1.34012,1.7218 0,0.82273 0.32231,1.26379 0.33079,0.43257 0.97541,0.43257 0.37319,0 0.65309,-0.0763 0.28838,-0.0763 0.52587,-0.1866 v 0.66158 q -0.229,0.11875 -0.5089,0.17812 -0.27142,0.0678 -0.66158,0.0678 z"
       id="path5582"
       style="font-size:8.48178px;font-family:'Noto Sans Yi';-inkscape-font-specification:'Noto Sans Yi';text-align:center;text-anchor:middle;fill:#09090b;stroke-width:2.59396;stroke-linecap:round;stroke-linejoin:round" />
    <path
       d="m 480.25964,312.9036 q 0.83121,0 1.22986,0.36472 0.39864,0.36472 0.39864,1.162 v 3.09585 h -0.54284 l -0.14419,-0.64461 h -0.0339 q -0.29686,0.3732 -0.62765,0.55132 -0.32231,0.17811 -0.89907,0.17811 -0.61917,0 -1.0263,-0.32231 -0.40712,-0.33078 -0.40712,-1.02629 0,-0.67854 0.53435,-1.04326 0.53435,-0.3732 1.64546,-0.40713 l 0.77185,-0.0254 v -0.27142 q 0,-0.56828 -0.24598,-0.7888 -0.24597,-0.22053 -0.6955,-0.22053 -0.35624,0 -0.67854,0.11026 -0.32231,0.10179 -0.60221,0.23749 l -0.22901,-0.55979 q 0.29686,-0.16116 0.70399,-0.27142 0.40712,-0.11875 0.84818,-0.11875 z m 0.22052,2.42579 q -0.84817,0.0339 -1.17896,0.27142 -0.32231,0.23749 -0.32231,0.67006 0,0.38168 0.22901,0.5598 0.23749,0.17812 0.6022,0.17812 0.57676,0 0.95844,-0.31383 0.38168,-0.32231 0.38168,-0.98389 v -0.40712 z"
       id="path5584"
       style="font-size:8.48178px;font-family:'Noto Sans Yi';-inkscape-font-specification:'Noto Sans Yi';text-align:center;text-anchor:middle;fill:#09090b;stroke-width:2.59396;stroke-linecap:round;stroke-linejoin:round" />
    <path
       d="m 485.48442,312.89512 q 0.81425,0 1.22986,0.39865 0.41561,0.39016 0.41561,1.27226 v 2.96014 h -0.73792 v -2.90925 q 0,-1.09415 -1.01781,-1.09415 -0.75488,0 -1.04326,0.42409 -0.28838,0.42409 -0.28838,1.22138 v 2.35793 h -0.7464 v -4.54623 h 0.60221 l 0.11026,0.61917 h 0.0424 q 0.22053,-0.35623 0.61069,-0.52587 0.39016,-0.17812 0.82273,-0.17812 z"
       id="path5586"
       style="font-size:8.48178px;font-family:'Noto Sans Yi';-inkscape-font-specification:'Noto Sans Yi';text-align:center;text-anchor:middle;fill:#09090b;stroke-width:2.59396;stroke-linecap:round;stroke-linejoin:round" />
    <path
       d="m 490.1494,317.61099 q -0.84818,0 -1.35708,-0.58524 -0.50891,-0.59373 -0.50891,-1.76421 0,-1.17049 0.50891,-1.76421 0.51738,-0.60221 1.36556,-0.60221 0.52587,0 0.85666,0.19508 0.33927,0.19508 0.55132,0.47498 h 0.0509 q -0.008,-0.11026 -0.0339,-0.3223 -0.017,-0.22053 -0.017,-0.34776 v -1.8151 h 0.74639 v 6.44615 h -0.6022 l -0.11027,-0.61068 h -0.0339 q -0.20356,0.28838 -0.54284,0.49194 -0.33927,0.20356 -0.87362,0.20356 z m 0.11875,-0.61917 q 0.72095,0 1.00933,-0.39016 0.29686,-0.39864 0.29686,-1.19593 v -0.13571 q 0,-0.84818 -0.2799,-1.29771 -0.2799,-0.45802 -1.03478,-0.45802 -0.6022,0 -0.90755,0.48346 -0.29686,0.47498 -0.29686,1.28075 0,0.81425 0.29686,1.26379 0.30535,0.44953 0.91604,0.44953 z"
       id="path5588"
       style="font-size:8.48178px;font-family:'Noto Sans Yi';-inkscape-font-specification:'Noto Sans Yi';text-align:center;text-anchor:middle;fill:#09090b;stroke-width:2.59396;stroke-linecap:round;stroke-linejoin:round" />
    <path
       d="m 497.70667,315.24458 q 0,1.12807 -0.57677,1.74724 -0.56828,0.61917 -1.54368,0.61917 -0.60221,0 -1.07719,-0.27141 -0.46649,-0.2799 -0.73791,-0.80577 -0.27142,-0.53436 -0.27142,-1.28923 0,-1.12808 0.56828,-1.73877 0.56828,-0.61069 1.54369,-0.61069 0.61917,0 1.08566,0.2799 0.47498,0.27142 0.73792,0.79729 0.27142,0.51739 0.27142,1.27227 z m -3.43513,0 q 0,0.80576 0.31383,1.28074 0.32231,0.4665 1.01781,0.4665 0.68703,0 1.00934,-0.4665 0.3223,-0.47498 0.3223,-1.28074 0,-0.80577 -0.3223,-1.26379 -0.32231,-0.45802 -1.01782,-0.45802 -0.6955,0 -1.00933,0.45802 -0.31383,0.45802 -0.31383,1.26379 z"
       id="path5590"
       style="font-size:8.48178px;font-family:'Noto Sans Yi';-inkscape-font-specification:'Noto Sans Yi';text-align:center;text-anchor:middle;fill:#09090b;stroke-width:2.59396;stroke-linecap:round;stroke-linejoin:round" />
    <path
       d="m 416.68448,326.8731 q 0,0.66158 -0.49194,1.00085 -0.49194,0.33927 -1.32316,0.33927 -0.47498,0 -0.82273,-0.0763 -0.33927,-0.0763 -0.60221,-0.21204 v -0.67855 q 0.27142,0.13571 0.6531,0.25446 0.39016,0.11026 0.78881,0.11026 0.56827,0 0.82273,-0.17812 0.25445,-0.1866 0.25445,-0.49194 0,-0.16964 -0.0933,-0.30534 -0.0933,-0.13571 -0.33927,-0.27142 -0.23749,-0.13571 -0.68702,-0.30534 -0.44106,-0.16964 -0.75488,-0.33928 -0.31383,-0.16963 -0.48346,-0.40712 -0.16964,-0.23749 -0.16964,-0.61069 0,-0.57676 0.4665,-0.89059 0.47498,-0.31382 1.23834,-0.31382 0.41561,0 0.77184,0.0848 0.36472,0.0763 0.67854,0.22052 l -0.25445,0.59373 q -0.28838,-0.11875 -0.60221,-0.20357 -0.31382,-0.0848 -0.64461,-0.0848 -0.45802,0 -0.70399,0.15267 -0.23749,0.14419 -0.23749,0.39864 0,0.1866 0.11026,0.32231 0.11027,0.12723 0.36472,0.25445 0.26294,0.11875 0.69551,0.28838 0.43257,0.16116 0.73791,0.33079 0.30535,0.16964 0.4665,0.41561 0.16115,0.23749 0.16115,0.60221 z"
       id="path5592"
       style="font-size:8.48178px;font-family:'Noto Sans Yi';-inkscape-font-specification:'Noto Sans Yi';text-align:center;text-anchor:middle;fill:#09090b;stroke-width:2.59396;stroke-linecap:round;stroke-linejoin:round" />
    <path
       d="m 419.54284,323.49735 q 0.58525,0 1.00085,0.25445 0.42409,0.25445 0.64462,0.72095 0.22901,0.45802 0.22901,1.07719 v 0.44953 h -3.11282 q 0.017,0.77184 0.39017,1.17897 0.38168,0.39864 1.06022,0.39864 0.43257,0 0.76336,-0.0763 0.33927,-0.0848 0.6955,-0.23749 v 0.6531 q -0.34775,0.15267 -0.68702,0.22052 -0.33927,0.0763 -0.80577,0.0763 -0.64461,0 -1.14504,-0.26294 -0.49194,-0.26293 -0.77184,-0.78032 -0.27142,-0.52587 -0.27142,-1.28075 0,-0.7464 0.24597,-1.28075 0.25446,-0.53435 0.70399,-0.82273 0.45802,-0.28838 1.06022,-0.28838 z m -0.008,0.61069 q -0.53435,0 -0.84818,0.34775 -0.30534,0.33927 -0.36471,0.94996 h 2.31552 q -0.008,-0.57676 -0.27141,-0.933 -0.26294,-0.36471 -0.83122,-0.36471 z"
       id="path5594"
       style="font-size:8.48178px;font-family:'Noto Sans Yi';-inkscape-font-specification:'Noto Sans Yi';text-align:center;text-anchor:middle;fill:#09090b;stroke-width:2.59396;stroke-linecap:round;stroke-linejoin:round" />
    <path
       d="m 426.37067,323.58217 v 4.54623 h -0.61069 l -0.11026,-0.60221 h -0.0339 q -0.22052,0.35624 -0.61069,0.52587 -0.39016,0.16116 -0.83121,0.16116 -0.82273,0 -1.23834,-0.39016 -0.41561,-0.39865 -0.41561,-1.26379 v -2.9771 h 0.75488 v 2.92621 q 0,1.08567 1.00933,1.08567 0.75488,0 1.04326,-0.42409 0.29686,-0.42409 0.29686,-1.22138 v -2.36641 z"
       id="path5596"
       style="font-size:8.48178px;font-family:'Noto Sans Yi';-inkscape-font-specification:'Noto Sans Yi';text-align:center;text-anchor:middle;fill:#09090b;stroke-width:2.59396;stroke-linecap:round;stroke-linejoin:round" />
    <path
       d="m 430.77271,326.8731 q 0,0.66158 -0.49194,1.00085 -0.49194,0.33927 -1.32316,0.33927 -0.47498,0 -0.82273,-0.0763 -0.33927,-0.0763 -0.60221,-0.21204 v -0.67855 q 0.27142,0.13571 0.6531,0.25446 0.39016,0.11026 0.78881,0.11026 0.56828,0 0.82273,-0.17812 0.25445,-0.1866 0.25445,-0.49194 0,-0.16964 -0.0933,-0.30534 -0.0933,-0.13571 -0.33927,-0.27142 -0.23749,-0.13571 -0.68702,-0.30534 -0.44106,-0.16964 -0.75488,-0.33928 -0.31383,-0.16963 -0.48346,-0.40712 -0.16964,-0.23749 -0.16964,-0.61069 0,-0.57676 0.4665,-0.89059 0.47498,-0.31382 1.23834,-0.31382 0.41561,0 0.77184,0.0848 0.36472,0.0763 0.67854,0.22052 l -0.25445,0.59373 q -0.28838,-0.11875 -0.60221,-0.20357 -0.31382,-0.0848 -0.64461,-0.0848 -0.45802,0 -0.70399,0.15267 -0.23749,0.14419 -0.23749,0.39864 0,0.1866 0.11026,0.32231 0.11027,0.12723 0.36472,0.25445 0.26294,0.11875 0.69551,0.28838 0.43257,0.16116 0.73791,0.33079 0.30535,0.16964 0.4665,0.41561 0.16115,0.23749 0.16115,0.60221 z"
       id="path5598"
       style="font-size:8.48178px;font-family:'Noto Sans Yi';-inkscape-font-specification:'Noto Sans Yi';text-align:center;text-anchor:middle;fill:#09090b;stroke-width:2.59396;stroke-linecap:round;stroke-linejoin:round" />
    <path
       d="m 434.82701,323.57368 q 0,0.33927 -0.0424,0.63614 h 0.0509 q 0.22052,-0.34776 0.59372,-0.52587 0.38168,-0.17812 0.82274,-0.17812 0.83121,0 1.24682,0.39864 0.4156,0.39017 0.4156,1.26379 v 2.96014 h -0.73791 v -2.90925 q 0,-1.09415 -1.01781,-1.09415 -0.76336,0 -1.05174,0.43257 -0.2799,0.42409 -0.2799,1.22138 v 2.34945 h -0.7464 v -6.44615 h 0.7464 z"
       id="path5600"
       style="font-size:8.48178px;font-family:'Noto Sans Yi';-inkscape-font-specification:'Noto Sans Yi';text-align:center;text-anchor:middle;fill:#09090b;stroke-width:2.59396;stroke-linecap:round;stroke-linejoin:round" />
    <path
       d="m 443.27486,325.8468 q 0,1.12808 -0.57676,1.74725 -0.56828,0.61917 -1.54368,0.61917 -0.60221,0 -1.07719,-0.27142 -0.4665,-0.2799 -0.73792,-0.80577 -0.27141,-0.53435 -0.27141,-1.28923 0,-1.12808 0.56828,-1.73876 0.56828,-0.61069 1.54368,-0.61069 0.61917,0 1.08567,0.2799 0.47498,0.27141 0.73791,0.79728 0.27142,0.51739 0.27142,1.27227 z m -3.43512,0 q 0,0.80577 0.31383,1.28075 0.3223,0.4665 1.01781,0.4665 0.68702,0 1.00933,-0.4665 0.32231,-0.47498 0.32231,-1.28075 0,-0.80577 -0.32231,-1.26378 -0.32231,-0.45802 -1.01781,-0.45802 -0.69551,0 -1.00933,0.45802 -0.31383,0.45801 -0.31383,1.26378 z"
       id="path5602"
       style="font-size:8.48178px;font-family:'Noto Sans Yi';-inkscape-font-specification:'Noto Sans Yi';text-align:center;text-anchor:middle;fill:#09090b;stroke-width:2.59396;stroke-linecap:round;stroke-linejoin:round" />
    <path
       d="m 446.57427,323.49735 q 0.12723,0 0.27142,0.017 0.15267,0.008 0.26293,0.0339 l -0.0933,0.68702 q -0.11026,-0.0254 -0.24597,-0.0424 -0.12723,-0.017 -0.24597,-0.017 -0.34775,0 -0.6531,0.19508 -0.30534,0.1866 -0.49194,0.53435 -0.17812,0.33927 -0.17812,0.79729 v 2.42579 h -0.7464 v -4.54623 h 0.61069 l 0.0848,0.83121 h 0.0339 q 0.22052,-0.3732 0.56828,-0.64462 0.34775,-0.27141 0.82273,-0.27141 z"
       id="path5604"
       style="font-size:8.48178px;font-family:'Noto Sans Yi';-inkscape-font-specification:'Noto Sans Yi';text-align:center;text-anchor:middle;fill:#09090b;stroke-width:2.59396;stroke-linecap:round;stroke-linejoin:round" />
    <path
       d="m 449.50896,323.50583 q 0.83122,0 1.22986,0.36472 0.39865,0.36471 0.39865,1.162 v 3.09585 h -0.54284 l -0.14419,-0.64462 h -0.0339 q -0.29686,0.3732 -0.62765,0.55132 -0.32231,0.17812 -0.89907,0.17812 -0.61917,0 -1.02629,-0.32231 -0.40713,-0.33079 -0.40713,-1.0263 0,-0.67854 0.53435,-1.04325 0.53436,-0.3732 1.64547,-0.40713 l 0.77184,-0.0254 v -0.27141 q 0,-0.56828 -0.24597,-0.78881 -0.24597,-0.22052 -0.69551,-0.22052 -0.35623,0 -0.67854,0.11026 -0.32231,0.10178 -0.6022,0.23749 l -0.22901,-0.5598 q 0.29686,-0.16115 0.70399,-0.27142 0.40712,-0.11874 0.84817,-0.11874 z m 0.22053,2.42579 q -0.84818,0.0339 -1.17897,0.27142 -0.32231,0.23749 -0.32231,0.67006 0,0.38168 0.22901,0.55979 0.23749,0.17812 0.60221,0.17812 0.57676,0 0.95844,-0.31382 0.38168,-0.32231 0.38168,-0.98389 v -0.40713 z m 0.91603,-4.21545 q -0.10178,0.15268 -0.31382,0.39865 -0.21205,0.23749 -0.45802,0.48346 -0.23749,0.23749 -0.44105,0.39016 h -0.49195 v -0.10178 q 0.12723,-0.16115 0.27142,-0.38168 0.15267,-0.22053 0.29686,-0.44953 0.14419,-0.23749 0.23749,-0.42409 h 0.89907 z"
       id="path5606"
       style="font-size:8.48178px;font-family:'Noto Sans Yi';-inkscape-font-specification:'Noto Sans Yi';text-align:center;text-anchor:middle;fill:#09090b;stroke-width:2.59396;stroke-linecap:round;stroke-linejoin:round" />
    <path
       d="m 454.66589,323.49735 q 0.12723,0 0.27142,0.017 0.15267,0.008 0.26293,0.0339 l -0.0933,0.68702 q -0.11027,-0.0254 -0.24598,-0.0424 -0.12722,-0.017 -0.24597,-0.017 -0.34775,0 -0.65309,0.19508 -0.30535,0.1866 -0.49195,0.53435 -0.17812,0.33927 -0.17812,0.79729 v 2.42579 h -0.74639 v -4.54623 h 0.61069 l 0.0848,0.83121 h 0.0339 q 0.22053,-0.3732 0.56828,-0.64462 0.34775,-0.27141 0.82273,-0.27141 z"
       id="path5608"
       style="font-size:8.48178px;font-family:'Noto Sans Yi';-inkscape-font-specification:'Noto Sans Yi';text-align:center;text-anchor:middle;fill:#09090b;stroke-width:2.59396;stroke-linecap:round;stroke-linejoin:round" />
    <path
       d="m 456.4301,321.87733 q 0.16964,0 0.29687,0.11874 0.1357,0.11027 0.1357,0.35624 0,0.23749 -0.1357,0.35623 -0.12723,0.11875 -0.29687,0.11875 -0.1866,0 -0.31382,-0.11875 -0.12723,-0.11874 -0.12723,-0.35623 0,-0.24597 0.12723,-0.35624 0.12722,-0.11874 0.31382,-0.11874 z m 0.36472,1.70484 v 4.54623 h -0.7464 v -4.54623 z"
       id="path5610"
       style="font-size:8.48178px;font-family:'Noto Sans Yi';-inkscape-font-specification:'Noto Sans Yi';text-align:center;text-anchor:middle;fill:#09090b;stroke-width:2.59396;stroke-linecap:round;stroke-linejoin:round" />
    <path
       d="m 462.18923,325.8468 q 0,1.12808 -0.57676,1.74725 -0.56828,0.61917 -1.54369,0.61917 -0.60221,0 -1.07718,-0.27142 -0.4665,-0.2799 -0.73792,-0.80577 -0.27142,-0.53435 -0.27142,-1.28923 0,-1.12808 0.56828,-1.73876 0.56828,-0.61069 1.54369,-0.61069 0.61917,0 1.08566,0.2799 0.47498,0.27141 0.73792,0.79728 0.27142,0.51739 0.27142,1.27227 z m -3.43512,0 q 0,0.80577 0.31382,1.28075 0.32231,0.4665 1.01781,0.4665 0.68703,0 1.00934,-0.4665 0.3223,-0.47498 0.3223,-1.28075 0,-0.80577 -0.3223,-1.26378 -0.32231,-0.45802 -1.01782,-0.45802 -0.6955,0 -1.00933,0.45802 -0.31382,0.45801 -0.31382,1.26378 z"
       id="path5612"
       style="font-size:8.48178px;font-family:'Noto Sans Yi';-inkscape-font-specification:'Noto Sans Yi';text-align:center;text-anchor:middle;fill:#09090b;stroke-width:2.59396;stroke-linecap:round;stroke-linejoin:round" />
    <path
       d="m 466.32833,326.8731 q 0,0.66158 -0.49194,1.00085 -0.49195,0.33927 -1.32316,0.33927 -0.47498,0 -0.82273,-0.0763 -0.33927,-0.0763 -0.60221,-0.21204 v -0.67855 q 0.27142,0.13571 0.6531,0.25446 0.39016,0.11026 0.7888,0.11026 0.56828,0 0.82274,-0.17812 0.25445,-0.1866 0.25445,-0.49194 0,-0.16964 -0.0933,-0.30534 -0.0933,-0.13571 -0.33927,-0.27142 -0.23749,-0.13571 -0.68702,-0.30534 -0.44106,-0.16964 -0.75488,-0.33928 -0.31383,-0.16963 -0.48346,-0.40712 -0.16964,-0.23749 -0.16964,-0.61069 0,-0.57676 0.4665,-0.89059 0.47498,-0.31382 1.23834,-0.31382 0.4156,0 0.77184,0.0848 0.36472,0.0763 0.67854,0.22052 l -0.25445,0.59373 q -0.28838,-0.11875 -0.60221,-0.20357 -0.31382,-0.0848 -0.64461,-0.0848 -0.45802,0 -0.70399,0.15267 -0.23749,0.14419 -0.23749,0.39864 0,0.1866 0.11026,0.32231 0.11027,0.12723 0.36472,0.25445 0.26293,0.11875 0.6955,0.28838 0.43258,0.16116 0.73792,0.33079 0.30534,0.16964 0.4665,0.41561 0.16115,0.23749 0.16115,0.60221 z"
       id="path5614"
       style="font-size:8.48178px;font-family:'Noto Sans Yi';-inkscape-font-specification:'Noto Sans Yi';text-align:center;text-anchor:middle;fill:#09090b;stroke-width:2.59396;stroke-linecap:round;stroke-linejoin:round" />
    <path
       d="m 471.24776,328.21322 q -0.84817,0 -1.35708,-0.58525 -0.50891,-0.59372 -0.50891,-1.76421 0,-1.17048 0.50891,-1.76421 0.51739,-0.6022 1.36557,-0.6022 0.52587,0 0.85666,0.19508 0.33927,0.19508 0.55131,0.47498 h 0.0509 q -0.008,-0.11026 -0.0339,-0.32231 -0.017,-0.22053 -0.017,-0.34775 v -1.8151 h 0.7464 v 6.44615 h -0.60221 l -0.11026,-0.61069 h -0.0339 q -0.20356,0.28838 -0.54283,0.49194 -0.33927,0.20357 -0.87363,0.20357 z m 0.11875,-0.61917 q 0.72095,0 1.00933,-0.39016 0.29686,-0.39865 0.29686,-1.19594 v -0.1357 q 0,-0.84818 -0.2799,-1.29772 -0.27989,-0.45801 -1.03477,-0.45801 -0.60221,0 -0.90755,0.48346 -0.29687,0.47498 -0.29687,1.28075 0,0.81425 0.29687,1.26378 0.30534,0.44954 0.91603,0.44954 z"
       id="path5616"
       style="font-size:8.48178px;font-family:'Noto Sans Yi';-inkscape-font-specification:'Noto Sans Yi';text-align:center;text-anchor:middle;fill:#09090b;stroke-width:2.59396;stroke-linecap:round;stroke-linejoin:round" />
    <path
       d="m 476.60825,323.49735 q 0.58524,0 1.00085,0.25445 0.42409,0.25445 0.64461,0.72095 0.22901,0.45802 0.22901,1.07719 v 0.44953 h -3.11281 q 0.017,0.77184 0.39016,1.17897 0.38168,0.39864 1.06022,0.39864 0.43257,0 0.76336,-0.0763 0.33927,-0.0848 0.69551,-0.23749 v 0.6531 q -0.34775,0.15267 -0.68703,0.22052 -0.33927,0.0763 -0.80576,0.0763 -0.64462,0 -1.14505,-0.26294 -0.49194,-0.26293 -0.77184,-0.78032 -0.27141,-0.52587 -0.27141,-1.28075 0,-0.7464 0.24597,-1.28075 0.25445,-0.53435 0.70399,-0.82273 0.45801,-0.28838 1.06022,-0.28838 z m -0.008,0.61069 q -0.53436,0 -0.84818,0.34775 -0.30535,0.33927 -0.36472,0.94996 h 2.31553 q -0.008,-0.57676 -0.27142,-0.933 -0.26293,-0.36471 -0.83121,-0.36471 z"
       id="path5618"
       style="font-size:8.48178px;font-family:'Noto Sans Yi';-inkscape-font-specification:'Noto Sans Yi';text-align:center;text-anchor:middle;fill:#09090b;stroke-width:2.59396;stroke-linecap:round;stroke-linejoin:round" />
    <path
       d="m 483.59723,323.49735 q 0.58524,0 1.00085,0.25445 0.42409,0.25445 0.64461,0.72095 0.22901,0.45802 0.22901,1.07719 v 0.44953 h -3.11281 q 0.017,0.77184 0.39016,1.17897 0.38168,0.39864 1.06022,0.39864 0.43257,0 0.76336,-0.0763 0.33927,-0.0848 0.69551,-0.23749 v 0.6531 q -0.34776,0.15267 -0.68703,0.22052 -0.33927,0.0763 -0.80577,0.0763 -0.64461,0 -1.14504,-0.26294 -0.49194,-0.26293 -0.77184,-0.78032 -0.27141,-0.52587 -0.27141,-1.28075 0,-0.7464 0.24597,-1.28075 0.25445,-0.53435 0.70398,-0.82273 0.45802,-0.28838 1.06023,-0.28838 z m -0.008,0.61069 q -0.53436,0 -0.84818,0.34775 -0.30535,0.33927 -0.36472,0.94996 h 2.31553 q -0.008,-0.57676 -0.27142,-0.933 -0.26294,-0.36471 -0.83121,-0.36471 z"
       id="path5620"
       style="font-size:8.48178px;font-family:'Noto Sans Yi';-inkscape-font-specification:'Noto Sans Yi';text-align:center;text-anchor:middle;fill:#09090b;stroke-width:2.59396;stroke-linecap:round;stroke-linejoin:round" />
    <path
       d="m 489.58536,326.8731 q 0,0.66158 -0.49194,1.00085 -0.49194,0.33927 -1.32316,0.33927 -0.47498,0 -0.82273,-0.0763 -0.33927,-0.0763 -0.60221,-0.21204 v -0.67855 q 0.27142,0.13571 0.6531,0.25446 0.39016,0.11026 0.7888,0.11026 0.56828,0 0.82274,-0.17812 0.25445,-0.1866 0.25445,-0.49194 0,-0.16964 -0.0933,-0.30534 -0.0933,-0.13571 -0.33927,-0.27142 -0.23749,-0.13571 -0.68702,-0.30534 -0.44106,-0.16964 -0.75488,-0.33928 -0.31383,-0.16963 -0.48346,-0.40712 -0.16964,-0.23749 -0.16964,-0.61069 0,-0.57676 0.4665,-0.89059 0.47498,-0.31382 1.23834,-0.31382 0.41561,0 0.77184,0.0848 0.36472,0.0763 0.67854,0.22052 l -0.25445,0.59373 q -0.28838,-0.11875 -0.60221,-0.20357 -0.31382,-0.0848 -0.64461,-0.0848 -0.45802,0 -0.70399,0.15267 -0.23749,0.14419 -0.23749,0.39864 0,0.1866 0.11026,0.32231 0.11027,0.12723 0.36472,0.25445 0.26293,0.11875 0.69551,0.28838 0.43257,0.16116 0.73791,0.33079 0.30534,0.16964 0.4665,0.41561 0.16115,0.23749 0.16115,0.60221 z"
       id="path5622"
       style="font-size:8.48178px;font-family:'Noto Sans Yi';-inkscape-font-specification:'Noto Sans Yi';text-align:center;text-anchor:middle;fill:#09090b;stroke-width:2.59396;stroke-linecap:round;stroke-linejoin:round" />
    <path
       d="m 492.20623,327.60253 q 0.16964,0 0.34776,-0.0254 0.17811,-0.0339 0.28838,-0.0679 v 0.56828 q -0.11875,0.0594 -0.33927,0.0933 -0.22053,0.0424 -0.42409,0.0424 -0.35624,0 -0.66158,-0.11875 -0.29686,-0.12722 -0.48346,-0.43257 -0.1866,-0.30534 -0.1866,-0.85666 v -2.64631 h -0.64462 v -0.35624 l 0.6531,-0.29686 0.29686,-0.96692 h 0.44105 v 1.04326 h 1.31468 v 0.57676 h -1.31468 v 2.62935 q 0,0.41561 0.19509,0.61917 0.20356,0.19508 0.51738,0.19508 z"
       id="path5624"
       style="font-size:8.48178px;font-family:'Noto Sans Yi';-inkscape-font-specification:'Noto Sans Yi';text-align:center;text-anchor:middle;fill:#09090b;stroke-width:2.59396;stroke-linecap:round;stroke-linejoin:round" />
    <path
       d="m 497.54975,323.58217 v 4.54623 h -0.61069 l -0.11026,-0.60221 h -0.0339 q -0.22052,0.35624 -0.61068,0.52587 -0.39017,0.16116 -0.83122,0.16116 -0.82273,0 -1.23834,-0.39016 -0.41561,-0.39865 -0.41561,-1.26379 v -2.9771 h 0.75488 v 2.92621 q 0,1.08567 1.00934,1.08567 0.75487,0 1.04325,-0.42409 0.29687,-0.42409 0.29687,-1.22138 v -2.36641 z"
       id="path5626"
       style="font-size:8.48178px;font-family:'Noto Sans Yi';-inkscape-font-specification:'Noto Sans Yi';text-align:center;text-anchor:middle;fill:#09090b;stroke-width:2.59396;stroke-linecap:round;stroke-linejoin:round" />
    <path
       d="m 500.60319,328.21322 q -0.84818,0 -1.35708,-0.58525 -0.50891,-0.59372 -0.50891,-1.76421 0,-1.17048 0.50891,-1.76421 0.51738,-0.6022 1.36556,-0.6022 0.52587,0 0.85666,0.19508 0.33927,0.19508 0.55132,0.47498 h 0.0509 q -0.008,-0.11026 -0.0339,-0.32231 -0.017,-0.22053 -0.017,-0.34775 v -1.8151 h 0.7464 v 6.44615 h -0.60221 l -0.11026,-0.61069 h -0.0339 q -0.20356,0.28838 -0.54284,0.49194 -0.33927,0.20357 -0.87362,0.20357 z m 0.11875,-0.61917 q 0.72095,0 1.00933,-0.39016 0.29686,-0.39865 0.29686,-1.19594 v -0.1357 q 0,-0.84818 -0.2799,-1.29772 -0.2799,-0.45801 -1.03478,-0.45801 -0.6022,0 -0.90755,0.48346 -0.29686,0.47498 -0.29686,1.28075 0,0.81425 0.29686,1.26378 0.30535,0.44954 0.91604,0.44954 z"
       id="path5628"
       style="font-size:8.48178px;font-family:'Noto Sans Yi';-inkscape-font-specification:'Noto Sans Yi';text-align:center;text-anchor:middle;fill:#09090b;stroke-width:2.59396;stroke-linecap:round;stroke-linejoin:round" />
    <path
       d="m 508.16046,325.8468 q 0,1.12808 -0.57677,1.74725 -0.56827,0.61917 -1.54368,0.61917 -0.60221,0 -1.07719,-0.27142 -0.46649,-0.2799 -0.73791,-0.80577 -0.27142,-0.53435 -0.27142,-1.28923 0,-1.12808 0.56828,-1.73876 0.56828,-0.61069 1.54369,-0.61069 0.61917,0 1.08566,0.2799 0.47498,0.27141 0.73792,0.79728 0.27142,0.51739 0.27142,1.27227 z m -3.43513,0 q 0,0.80577 0.31383,1.28075 0.32231,0.4665 1.01781,0.4665 0.68703,0 1.00934,-0.4665 0.3223,-0.47498 0.3223,-1.28075 0,-0.80577 -0.3223,-1.26378 -0.32231,-0.45802 -1.01782,-0.45802 -0.6955,0 -1.00933,0.45802 -0.31383,0.45801 -0.31383,1.26378 z"
       id="path5630"
       style="font-size:8.48178px;font-family:'Noto Sans Yi';-inkscape-font-specification:'Noto Sans Yi';text-align:center;text-anchor:middle;fill:#09090b;stroke-width:2.59396;stroke-linecap:round;stroke-linejoin:round" />
    <g
       id="g2082"
       transform="translate(99.022671,251.15457)">
      <path
         id="path982-6-9-4-9-6-5"
         style="fill:url(#linearGradient24723);fill-opacity:1;stroke:#09090b;stroke-width:1.10115;stroke-linecap:round;stroke-linejoin:round;stroke-dasharray:none;stroke-opacity:1"
         d="m 299.81967,108.19227 c 0.77127,-0.14219 1.54983,-0.25055 2.33236,-0.32411 4.26086,-0.37924 7.35855,0.028 11.07909,1.63256 0.81797,-1.30866 4.36292,-4.22163 9.04113,-5.66821 0,0 3.89331,6.15389 1.25779,13.83578 1.04009,1.85501 1.66858,3.85642 1.85707,5.91378 0.82527,9.24089 -7.2343,17.69886 -18.48025,19.39378 -0.0711,1.9442 1.03322,15.24302 1.73055,21.92022 0,0 -11.06977,0.31166 -24.47659,0 -3.87992,-19.23302 2.95411,-23.53647 5.35483,-25.53988 -4.34717,-2.9466 -7.02345,-7.22666 -7.44171,-11.90113 -0.21416,-2.43386 -0.26279,-4.25276 0.73721,-6.58865 -4.70607,-10.35421 3.34192,-22.017622 3.34192,-22.017622 8.15233,2.524042 12.45806,7.813692 13.6666,9.343482 z"
         sodipodi:nodetypes="cccccccccccccc"
         inkscape:label="corpo_inteiro"
         inkscape:export-filename="gatinho07.svg"
         inkscape:export-xdpi="96"
         inkscape:export-ydpi="96" />
      <g
         id="g13841-48-4-3-0-1"
         inkscape:label="antenas"
         transform="matrix(-1.3937911,0.31624455,0.31624455,1.3937911,460.48863,-46.249602)">
        <circle
           style="fill:#09090b;fill-opacity:1;stroke:#09090b;stroke-width:0.716826;stroke-dasharray:none;stroke-opacity:1"
           id="path3345-36-1-4-6-2-1"
           cx="123.4136"
           cy="76.212181"
           r="1.7047741" />
        <circle
           style="fill:#09090b;fill-opacity:1;stroke:#09090b;stroke-width:0.716826;stroke-dasharray:none;stroke-opacity:1"
           id="path3345-3-1-2-7-8-7-0"
           cx="114.35101"
           cy="83.406479"
           r="1.7047741" />
        <path
           style="fill:none;stroke:#09090b;stroke-width:0.825034;stroke-linecap:round;stroke-dasharray:none;stroke-opacity:1"
           d="m 124.28165,76.892283 c 0,0 6.16634,2.730808 6.03421,10.218506"
           id="path3480-0-9-6-0-6-8" />
        <path
           style="fill:none;stroke:#09090b;stroke-width:0.825034;stroke-linecap:round;stroke-dasharray:none;stroke-opacity:1"
           d="m 114.8996,83.092811 c 0,0 6.6521,-1.109253 10.6585,5.21782"
           id="path3480-6-6-3-3-2-1-5" />
      </g>
      <g
         id="g13834-9-1-1-3-0"
         inkscape:label="rosto"
         transform="matrix(-1.2947389,0.29377008,0.29377008,1.2947389,449.53351,-34.523288)">
        <path
           style="fill:none;stroke:#09090b;stroke-width:0.825034;stroke-linecap:round;stroke-linejoin:round;stroke-dasharray:none;stroke-opacity:1"
           d="m 133.16189,97.764325 c 0,0 0.12461,-7.225574 9.21883,-10.589203"
           id="path3509-3-0-7-0-2-6" />
        <path
           style="fill:none;stroke:#09090b;stroke-width:0.825034;stroke-linecap:round;stroke-linejoin:round;stroke-dasharray:none;stroke-opacity:1"
           d="m 120.04997,93.435211 c 0,0 4.57827,0.03115 6.88299,5.512615"
           id="path3511-2-88-5-5-1-4"
           sodipodi:nodetypes="cc" />
        <path
           style="fill:none;stroke:#09090b;stroke-width:0.825034;stroke-linecap:round;stroke-linejoin:round;stroke-dasharray:none;stroke-opacity:1"
           d="m 127.02638,101.50169 c -0.0502,0.043 1.55673,0.82133 2.61617,-0.35816 0,0 3.08332,1.23021 5.09215,-1.37037"
           id="path3600-0-5-9-1-5-6"
           sodipodi:nodetypes="ccc" />
        <ellipse
           style="fill:#09090b;fill-opacity:1;stroke:#09090b;stroke-width:0.0242048;stroke-dasharray:none;stroke-opacity:1"
           id="path982-7-7-0-6-1-9-2"
           cx="114.72797"
           cy="116.07372"
           rx="0.47794119"
           ry="0.38952991"
           transform="rotate(-7.6741943)"
           inkscape:label="nariz" />
      </g>
      <path
         id="path3614-5-9-2-0-9-5-3"
         style="fill:#ffffff;stroke:#09090b;stroke-width:1.09531;stroke-linecap:round;stroke-linejoin:round;stroke-dasharray:none;stroke-opacity:1"
         d="m 272.34099,130.10846 c -3.42563,-0.0349 -0.25511,8.38912 3.72071,10.89752 0.71578,0.43848 1.41968,0.81358 2.09961,1.13585 l -0.0754,0.12351 c -1.59298,0.82785 -1.43982,2.99791 1.1989,4.3496 2.63869,1.35171 4.81469,0.47646 4.81469,0.47646 l 1.42317,-2.92024 2.80603,0.58446 -1.76682,-2.90266 c 0,0 -1.51204,-2.76686 -9.36687,-9.17515 -2.28109,-1.82316 -3.8505,-2.55913 -4.85397,-2.56935 z" />
      <path
         style="fill:none;stroke:#09090b;stroke-width:1.09531;stroke-linecap:round;stroke-linejoin:round;stroke-dasharray:none;stroke-opacity:1"
         d="m 286.56204,141.85272 c 0,0 -1.51233,-2.7664 -9.36717,-9.1747 -10.06829,-8.04705 -6.2735,5.08471 -1.13304,8.3279 4.7401,2.90372 9.42016,3.13462 9.42016,3.13462"
         id="path3614-5-9-2-0-9-5"
         sodipodi:nodetypes="cccc" />
      <path
         style="fill:none;stroke:#09090b;stroke-width:1.09535;stroke-linecap:round;stroke-linejoin:round;stroke-dasharray:none;stroke-opacity:1"
         d="m 284.0992,147.09115 c 0,0 -2.17584,0.8753 -4.81454,-0.47641 -2.63872,-1.35169 -2.79189,-3.52174 -1.19891,-4.34959"
         id="path3616-4-6-1-8-1-8" />
      <g
         id="g13853-3-7-5-4-6"
         inkscape:label="listras"
         transform="matrix(-1.2947389,0.29377008,0.29377008,1.2947389,449.53351,-34.523288)"
         style="fill:#09090b;fill-opacity:1;stroke:#09090b;stroke-opacity:1">
        <path
           style="fill:#09090b;fill-opacity:1;stroke:#09090b;stroke-width:0.825034;stroke-linecap:round;stroke-linejoin:round;stroke-dasharray:none;stroke-opacity:1"
           d="m 134.88878,108.12095 c 0,0 6.83808,1.01866 13.40902,-5.8334 l 1.49538,1.45656 c 0,0 -4.42175,7.05374 -14.73185,6.60265 z"
           id="path3618-7-8-8-0-9-2"
           sodipodi:nodetypes="ccccc" />
        <path
           style="fill:#09090b;fill-opacity:1;stroke:#09090b;stroke-width:0.825034;stroke-linecap:round;stroke-linejoin:round;stroke-dasharray:none;stroke-opacity:1"
           d="m 135.5472,112.96395 c 0,0 9.98471,1.24371 16.08559,-6.87315 l 0.89366,2.52823 c 0,0 -6.7881,7.80879 -16.75519,6.62584 z"
           id="path3620-6-5-5-6-1-8"
           sodipodi:nodetypes="ccccc" />
      </g>
      <path
         style="fill:#09090b;fill-opacity:1;stroke:#09090b;stroke-width:1.09535;stroke-linecap:round;stroke-linejoin:round;stroke-dasharray:none;stroke-opacity:1"
         d="m 307.60073,158.58699 c 0,0 -14.18345,4.60584 -24.46699,-4.11112 l 1.20688,10.27025 c 0,0 9.83572,-0.61347 24.07655,-0.33416 z"
         id="path3620-6-5-5-6-1-8-3"
         sodipodi:nodetypes="ccccc" />
      <path
         style="fill:none;stroke:#09090b;stroke-width:1.09535;stroke-linecap:round;stroke-linejoin:round;stroke-dasharray:none;stroke-opacity:1"
         d="m 325.17524,128.04125 1.09056,0.0236"
         id="path3608-6-61-7-4-0-4"
         sodipodi:nodetypes="cc" />
      <path
         style="fill:none;stroke:#09090b;stroke-width:1.09535;stroke-linecap:round;stroke-linejoin:round;stroke-dasharray:none;stroke-opacity:1"
         d="m 323.7058,131.99823 1.55937,0.45604"
         id="path3610-1-1-4-6-7-7"
         sodipodi:nodetypes="cc" />
      <path
         style="fill:none;stroke:#09090b;stroke-width:1.09535;stroke-linecap:round;stroke-linejoin:round;stroke-dasharray:none;stroke-opacity:1"
         d="m 321.28904,135.53221 0.91425,0.63755"
         id="path3612-5-5-1-2-5-2"
         sodipodi:nodetypes="cc" />
      <path
         style="fill:#ff6b00;fill-opacity:1;stroke:#09090b;stroke-width:1.09535;stroke-linecap:round;stroke-linejoin:round;stroke-dasharray:none;stroke-opacity:1"
         d="m 285.40509,127.57761 -5.31411,-0.82422"
         id="path10252-5-9-8-5-8-4"
         sodipodi:nodetypes="cc" />
      <path
         style="fill:#ff6b00;fill-opacity:1;stroke:#09090b;stroke-width:1.09535;stroke-linecap:round;stroke-linejoin:round;stroke-dasharray:none;stroke-opacity:1"
         d="m 285.69828,131.15749 -4.94904,1.26775"
         id="path10254-69-8-5-8-7-0"
         sodipodi:nodetypes="cc" />
      <path
         style="fill:#ff6b00;fill-opacity:1;stroke:#09090b;stroke-width:1.09535;stroke-linecap:round;stroke-linejoin:round;stroke-dasharray:none;stroke-opacity:1"
         d="m 287.02474,134.56115 -3.44809,1.98909"
         id="path10256-3-4-9-6-04-6"
         sodipodi:nodetypes="cc" />
      <g
         id="path10252-5-9-8-5-9-8-2"
         transform="matrix(-1.2947389,0.29377008,0.29377008,1.2947389,528.81041,-63.435527)">
        <path
           style="color:#000000;fill:#ff6b00;stroke-width:0.825034;stroke-linecap:round;stroke-linejoin:round;-inkscape-stroke:none"
           d="m 210.66653,99.708493 3.76606,-1.4911"
           id="path23727-0-9" />
        <path
           style="color:#000000;fill:#09090b;stroke-linecap:round;stroke-linejoin:round;-inkscape-stroke:none"
           d="m 214.28125,97.833984 -3.76563,1.490235 a 0.41251701,0.41251701 0 0 0 -0.23242,0.537109 0.41251701,0.41251701 0 0 0 0.53516,0.230472 l 3.76562,-1.490238 a 0.41251701,0.41251701 0 0 0 0.23243,-0.535156 0.41251701,0.41251701 0 0 0 -0.53516,-0.232422 z"
           id="path23724-4-9" />
      </g>
      <g
         id="path10254-69-8-5-8-9-2-0"
         transform="matrix(-1.2947389,0.29377008,0.29377008,1.2947389,528.81041,-63.435527)">
        <path
           style="color:#000000;fill:#ff6b00;stroke-width:0.825034;stroke-linecap:round;stroke-linejoin:round;-inkscape-stroke:none"
           d="m 211.04781,102.38693 3.84656,0.10638"
           id="path23711-9-8" />
        <path
           style="color:#000000;fill:#09090b;stroke-linecap:round;stroke-linejoin:round;-inkscape-stroke:none"
           d="m 211.05859,101.97461 a 0.41251701,0.41251701 0 0 0 -0.42382,0.40039 0.41251701,0.41251701 0 0 0 0.40234,0.42383 l 3.8457,0.10742 a 0.41251701,0.41251701 0 0 0 0.42383,-0.40234 0.41251701,0.41251701 0 0 0 -0.40039,-0.42383 z"
           id="path23708-6-1" />
      </g>
      <g
         id="path10256-3-4-9-6-0-1-3"
         transform="matrix(-1.2947389,0.29377008,0.29377008,1.2947389,528.81041,-63.435527)">
        <path
           style="color:#000000;fill:#ff6b00;stroke-width:0.825034;stroke-linecap:round;stroke-linejoin:round;-inkscape-stroke:none"
           d="m 210.64073,105.10813 2.86428,0.8864"
           id="path23717-0-1" />
        <path
           style="color:#000000;fill:#09090b;stroke-linecap:round;stroke-linejoin:round;-inkscape-stroke:none"
           d="m 210.76172,104.71484 a 0.41251701,0.41251701 0 0 0 -0.51563,0.27149 0.41251701,0.41251701 0 0 0 0.27344,0.51562 l 2.86328,0.88672 a 0.41251701,0.41251701 0 0 0 0.51563,-0.27148 0.41251701,0.41251701 0 0 0 -0.27149,-0.51758 z"
           id="path23714-4-1" />
      </g>
    </g>
  </g>
</svg>
