<?xml version="1.0" encoding="UTF-8" standalone="no"?>
<!-- Created with Inkscape (http://www.inkscape.org/) -->

<svg
   width="157.41531mm"
   height="54.022308mm"
   viewBox="0 0 157.41531 54.022309"
   version="1.1"
   id="svg5"
   xml:space="preserve"
   inkscape:version="1.2.2 (b0a8486541, 2022-12-01)"
   sodipodi:docname="logo_bezzer.svg"
   inkscape:export-filename="cronograma-educacional-react/frontend/public/assets/logo.svg"
   inkscape:export-xdpi="96"
   inkscape:export-ydpi="96"
   xmlns:inkscape="http://www.inkscape.org/namespaces/inkscape"
   xmlns:sodipodi="http://sodipodi.sourceforge.net/DTD/sodipodi-0.dtd"
   xmlns:xlink="http://www.w3.org/1999/xlink"
   xmlns="http://www.w3.org/2000/svg"
   xmlns:svg="http://www.w3.org/2000/svg"><sodipodi:namedview
     id="namedview7"
     pagecolor="#ffffff"
     bordercolor="#000000"
     borderopacity="0.25"
     inkscape:showpageshadow="2"
     inkscape:pageopacity="0.0"
     inkscape:pagecheckerboard="0"
     inkscape:deskcolor="#d1d1d1"
     inkscape:document-units="mm"
     showgrid="false"
     inkscape:zoom="3.0003928"
     inkscape:cx="160.64563"
     inkscape:cy="148.48056"
     inkscape:window-width="1854"
     inkscape:window-height="1009"
     inkscape:window-x="66"
     inkscape:window-y="1112"
     inkscape:window-maximized="1"
     inkscape:current-layer="layer1" /><defs
     id="defs2"><linearGradient
       id="linearGradient5323"><stop
         style="stop-color:#ffd214;stop-opacity:1;"
         offset="0"
         id="stop5327" /><stop
         style="stop-color:#ff7300;stop-opacity:1;"
         offset="1"
         id="stop5329" /></linearGradient><linearGradient
       inkscape:collect="always"
       xlink:href="#linearGradient5323"
       id="linearGradient5325"
       x1="113.141"
       y1="30.553816"
       x2="149.9959"
       y2="30.553816"
       gradientUnits="userSpaceOnUse"
       gradientTransform="matrix(1.4127327,0,0,1.4127327,-118.98354,-164.50828)" /><linearGradient
       id="paint0_linear_58_308"
       x1="181.625"
       y1="-22.625"
       x2="181.625"
       y2="118.375"
       gradientUnits="userSpaceOnUse"><stop
         stop-color="#FFDB1C"
         id="stop16424" /><stop
         offset="1"
         stop-color="#FF6D00"
         id="stop16426" /></linearGradient></defs><g
     inkscape:label="Layer 1"
     inkscape:groupmode="layer"
     id="layer1"
     transform="translate(-100.68065,-6.5965714)"><circle
       style="fill:url(#linearGradient5325);fill-opacity:1;stroke:#09090b;stroke-width:0.832074;stroke-dasharray:none;stroke-opacity:1"
       id="path249"
       cx="66.887512"
       cy="-121.3439"
       r="25.61702"
       transform="rotate(75)" /><ellipse
       style="fill:none;stroke:#09090b;stroke-width:0.807918;stroke-dasharray:none;stroke-opacity:1"
       id="path982"
       cx="126.91004"
       cy="54.291828"
       rx="15.95295"
       ry="13.001916"
       transform="rotate(-7.6741943)" /><ellipse
       style="fill:#09090b;fill-opacity:1;stroke:#09090b;stroke-width:0.0242048;stroke-dasharray:none;stroke-opacity:1"
       id="path982-7"
       cx="121.09341"
       cy="59.424675"
       rx="0.47794119"
       ry="0.38952991"
       transform="rotate(-7.6741943)" /><path
       style="fill:none;stroke:#09090b;stroke-width:0.825034;stroke-dasharray:none;stroke-opacity:1"
       d="m 133.64009,49.895423 c 0,0 1.27731,2.906986 -0.39641,8.765009"
       id="path1038" /><path
       style="fill:none;stroke:#09090b;stroke-width:0.825034;stroke-dasharray:none;stroke-opacity:1"
       d="m 145.26804,44.87426 c 0,0 6.56275,1.893946 5.63779,8.060286"
       id="path1040"
       sodipodi:nodetypes="cc" /><path
       style="fill:none;stroke:#09090b;stroke-width:0.825034;stroke-linecap:round;stroke-linejoin:round;stroke-dasharray:none;stroke-opacity:1"
       d="m 132.84728,23.688481 c 0,0 2.29035,-5.021163 8.45669,-8.720965 0,0 7.25992,6.987168 5.85046,14.915318"
       id="path2615"
       sodipodi:nodetypes="ccc" /><path
       style="fill:none;stroke:#09090b;stroke-width:0.825034;stroke-linecap:round;stroke-linejoin:round;stroke-dasharray:none;stroke-opacity:1"
       d="m 123.55122,26.75731 c 0,0 -2.7283,-1.967697 -7.30902,-2.320059 0,0 -1.75424,4.904139 1.0206,10.718116"
       id="path2617"
       sodipodi:nodetypes="ccc" /><circle
       style="fill:#09090b;fill-opacity:1;stroke:#09090b;stroke-width:0.716826;stroke-dasharray:none;stroke-opacity:1"
       id="path3345"
       cx="122.15713"
       cy="19.220486"
       r="1.7047741" /><circle
       style="fill:#09090b;fill-opacity:1;stroke:#09090b;stroke-width:0.716826;stroke-dasharray:none;stroke-opacity:1"
       id="path3345-3"
       cx="113.09454"
       cy="26.414785"
       r="1.7047741" /><path
       style="fill:none;stroke:#09090b;stroke-width:0.825034;stroke-linecap:round;stroke-dasharray:none;stroke-opacity:1"
       d="m 123.02518,19.900586 c 0,0 6.16634,2.730808 6.03421,10.218506"
       id="path3480" /><path
       style="fill:none;stroke:#09090b;stroke-width:0.825034;stroke-linecap:round;stroke-dasharray:none;stroke-opacity:1"
       d="m 113.64313,26.101114 c 0,0 6.6521,-1.109253 10.6585,5.21782"
       id="path3480-6" /><path
       style="fill:none;stroke:#09090b;stroke-width:0.825034;stroke-linecap:round;stroke-linejoin:round;stroke-dasharray:none;stroke-opacity:1"
       d="m 131.90542,40.772628 c 0,0 0.12461,-7.225574 9.21883,-10.589203"
       id="path3509" /><path
       style="fill:none;stroke:#09090b;stroke-width:0.825034;stroke-linecap:round;stroke-linejoin:round;stroke-dasharray:none;stroke-opacity:1"
       d="m 118.7935,36.443514 c 0,0 4.57827,0.03115 6.88299,5.512615"
       id="path3511"
       sodipodi:nodetypes="cc" /><path
       style="fill:none;stroke:#09090b;stroke-width:0.825034;stroke-linecap:round;stroke-linejoin:round;stroke-dasharray:none;stroke-opacity:1"
       d="m 125.76991,44.509994 c -0.0502,0.043 1.55673,0.821332 2.61617,-0.358163 0,0 3.08332,1.230216 5.09215,-1.370368"
       id="path3600"
       sodipodi:nodetypes="ccc" /><path
       style="fill:none;stroke:#09090b;stroke-width:0.825034;stroke-linecap:round;stroke-linejoin:round;stroke-dasharray:none;stroke-opacity:1"
       d="m 117.73458,41.582391 -0.79713,0.199126"
       id="path3608"
       sodipodi:nodetypes="cc" /><path
       style="fill:none;stroke:#09090b;stroke-width:0.825034;stroke-linecap:round;stroke-linejoin:round;stroke-dasharray:none;stroke-opacity:1"
       d="m 119.38525,44.354273 -1.06942,0.594876"
       id="path3610"
       sodipodi:nodetypes="cc" /><path
       style="fill:none;stroke:#09090b;stroke-width:0.825034;stroke-linecap:round;stroke-linejoin:round;stroke-dasharray:none;stroke-opacity:1"
       d="m 121.4408,46.503255 -0.5653,0.620683"
       id="path3612"
       sodipodi:nodetypes="cc" /><path
       style="fill:none;stroke:#09090b;stroke-width:0.825034;stroke-linecap:round;stroke-linejoin:round;stroke-dasharray:none;stroke-opacity:1"
       d="m 147.85264,46.130238 c 0,0 0.54008,-1.898342 4.44775,-6.898625 5.03198,-6.307322 4.53427,2.235195 1.84528,4.927204 -2.49158,2.429288 -4.88681,2.971637 -4.88681,2.971637"
       id="path3614"
       sodipodi:nodetypes="cccc" /><path
       style="fill:none;stroke:#09090b;stroke-width:0.825034;stroke-linecap:round;stroke-linejoin:round;stroke-dasharray:none;stroke-opacity:1"
       d="m 150.53041,48.839664 c 0,0 1.74411,0.280306 3.45707,-1.152355 1.71297,-1.432656 1.46381,-3.052179 0.15573,-3.394773"
       id="path3616" /><path
       style="fill:#09090b;fill-opacity:1;stroke:#09090b;stroke-width:0.825034;stroke-linecap:round;stroke-linejoin:round;stroke-dasharray:none;stroke-opacity:1"
       d="m 134.30373,52.391207 c 0,0 6.72896,0.902707 13.2999,-5.949359 l 0.93308,0.310567 c 0,0 -5.45033,7.381298 -14.35772,6.633825 z"
       id="path3618"
       sodipodi:nodetypes="ccccc" /><path
       style="fill:#09090b;fill-opacity:1;stroke:#09090b;stroke-width:0.825034;stroke-linecap:round;stroke-linejoin:round;stroke-dasharray:none;stroke-opacity:1"
       d="m 133.95165,55.669331 c 0,0 10.32379,1.546634 16.42467,-6.570228 l 0.51953,1.79556 c 0,0 -7.21693,7.287309 -17.18402,6.104364 z"
       id="path3620"
       sodipodi:nodetypes="ccccc" /><path
       style="fill:#ff6b00;fill-opacity:1;stroke:#09090b;stroke-width:0.825034;stroke-linecap:round;stroke-linejoin:round;stroke-dasharray:none;stroke-opacity:1"
       d="m 146.31897,34.723804 3.76606,-1.491099"
       id="path10252"
       sodipodi:nodetypes="cc" /><path
       style="fill:#ff6b00;fill-opacity:1;stroke:#09090b;stroke-width:0.825034;stroke-linecap:round;stroke-linejoin:round;stroke-dasharray:none;stroke-opacity:1"
       d="m 146.70025,37.40225 3.84656,0.106381"
       id="path10254"
       sodipodi:nodetypes="cc" /><path
       style="fill:#ff6b00;fill-opacity:1;stroke:#09090b;stroke-width:0.825034;stroke-linecap:round;stroke-linejoin:round;stroke-dasharray:none;stroke-opacity:1"
       d="m 146.29317,40.123444 2.86428,0.886403"
       id="path10256"
       sodipodi:nodetypes="cc" /><g
       style="fill:none"
       id="g16439"
       transform="matrix(0.26458333,0,0,0.26458333,165.49397,20.154997)"><path
         d="m 54.6875,20.625 c 0,12.4167 -4.7917,20.9792 -14.375,25.6875 3.25,1.375 5.7917,3.5 7.625,6.375 1.8333,2.8333 2.75,6.4792 2.75,10.9375 0,4.4583 -0.6667,8.6875 -2,12.6875 -1.2917,4 -3.3125,7.625 -6.0625,10.875 -5.8333,6.9167 -15.1042,10.5833 -27.8125,11 L 1.375,98.625 C 0.458333,98.5417 0,98.1458 0,97.4375 L 10.75,3.375 c 0.0833,-0.75 0.2708,-1.25 0.5625,-1.5 0.2917,-0.29167 2.8958,-0.60417 7.8125,-0.9375 4.9167,-0.375 9.6042,-0.5625 14.0625,-0.5625 7.5,0 12.9583,1.8125 16.375,5.4375 3.4167,3.58333 5.125,8.5208 5.125,14.8125 z M 24.25,52.5 c -1.7083,0 -2.8333,0.0208 -3.375,0.0625 L 17.5,83 c 5.9583,0 10.4583,-1.8958 13.5,-5.6875 3.0833,-3.7917 4.625,-8.7708 4.625,-14.9375 0,-2.9167 -1,-5.2917 -3,-7.125 -2,-1.8333 -4.7917,-2.75 -8.375,-2.75 z m -2.3125,-9.875 c 11.9583,-0.0833 17.9375,-6.4167 17.9375,-19 0,-6.625 -3.4167,-9.9375 -10.25,-9.9375 -1.9167,0 -3.4167,0.0625 -4.5,0.1875 z m 81.1875,13 -19.4375,0.75 L 80.75,82 104.688,81.1875 c 1.083,0.0417 1.624,0.5833 1.624,1.625 L 104.688,95.75 c -0.084,0.875 -0.626,1.4167 -1.626,1.625 l -38.437,1.25 c -0.9167,0 -1.375,-0.3958 -1.375,-1.1875 L 74.0625,2.875 C 74.2292,2 74.7708,1.52083 75.6875,1.4375 L 109.938,0.25 c 1.041,0.125 1.562,0.6875 1.562,1.6875 l -1.562,12.9375 c -0.126,1.0417 -0.667,1.6042 -1.626,1.6875 L 88.1875,17.125 85.5,40.375 104.75,39.6875 c 1.083,0.0417 1.625,0.5833 1.625,1.625 l -1.625,12.75 c -0.167,0.9583 -0.708,1.4792 -1.625,1.5625 z m 56.625,0 -19.438,0.75 -2.937,25.625 23.937,-0.8125 c 1.084,0.0417 1.626,0.5833 1.626,1.625 L 161.312,95.75 c -0.083,0.875 -0.624,1.4167 -1.624,1.625 l -38.438,1.25 c -0.917,0 -1.375,-0.3958 -1.375,-1.1875 L 130.688,2.875 C 130.854,2 131.396,1.52083 132.312,1.4375 L 166.562,0.25 c 1.042,0.125 1.563,0.6875 1.563,1.6875 l -1.563,12.9375 c -0.124,1.0417 -0.666,1.6042 -1.624,1.6875 l -20.126,0.5625 -2.687,23.25 19.25,-0.6875 c 1.083,0.0417 1.625,0.5833 1.625,1.625 l -1.625,12.75 c -0.167,0.9583 -0.708,1.4792 -1.625,1.5625 z M 186.312,1.4375 224.312,0 c 1,0.0833333 1.5,0.645833 1.5,1.6875 l -31.062,80.125 20.312,-0.6875 c 1,0.0833 1.5,0.6042 1.5,1.5625 l -1.5,13 c -0.166,0.9583 -0.708,1.4792 -1.624,1.5625 L 173.5,98.625 c -0.917,0 -1.375,-0.3958 -1.375,-1.1875 l 31.313,-80.625 -18.75,0.625 c -1.042,-0.0417 -1.563,-0.5 -1.563,-1.375 L 184.688,2.875 C 184.812,2 185.354,1.52083 186.312,1.4375 Z M 270.75,55.625 251.312,56.375 248.375,82 272.312,81.1875 c 1.084,0.0417 1.626,0.5833 1.626,1.625 L 272.312,95.75 c -0.083,0.875 -0.624,1.4167 -1.624,1.625 l -38.438,1.25 c -0.917,0 -1.375,-0.3958 -1.375,-1.1875 L 241.688,2.875 C 241.854,2 242.396,1.52083 243.312,1.4375 L 277.562,0.25 c 1.042,0.125 1.563,0.6875 1.563,1.6875 l -1.563,12.9375 c -0.124,1.0417 -0.666,1.6042 -1.624,1.6875 l -20.126,0.5625 -2.687,23.25 19.25,-0.6875 c 1.083,0.0417 1.625,0.5833 1.625,1.625 l -1.625,12.75 c -0.167,0.9583 -0.708,1.4792 -1.625,1.5625 z m 69.938,41.25 c 0,0.8333 -0.563,1.25 -1.688,1.25 l -14.062,0.5 c -0.626,-0.0417 -1.084,-0.4375 -1.376,-1.1875 L 307.875,57.6875 303.5,96.625 c -0.125,1 -0.646,1.5208 -1.562,1.5625 L 288.875,98.625 C 287.958,98.5417 287.5,98.1458 287.5,97.4375 L 298.312,3.375 c 0.084,-0.75 0.271,-1.25 0.563,-1.5 0.292,-0.29167 2.5,-0.60417 6.625,-0.9375 4.125,-0.375 9.625,-0.5625 16.5,-0.5625 6.875,0 12.167,1.83333 15.875,5.5 3.75,3.625 5.625,8.3125 5.625,14.0625 0,5.75 -0.688,10.8333 -2.062,15.25 -1.376,4.375 -3.646,8.3125 -6.813,11.8125 -3.167,3.5 -7.125,6.1042 -11.875,7.8125 L 340.5,96.125 c 0.125,0.25 0.188,0.5 0.188,0.75 z m -28,-81.9375 -3.5,31.0625 c 7.708,-0.4583 13.02,-3.9583 15.937,-10.5 1.583,-3.5833 2.375,-7.2083 2.375,-10.875 0,-3.7083 -0.771,-6.2917 -2.312,-7.75 -1.5,-1.5 -3.688,-2.25 -6.563,-2.25 -2.875,0 -4.854,0.1042 -5.937,0.3125 z"
         fill="url(#paint0_linear_58_308)"
         id="path16422"
         style="fill:url(#paint0_linear_58_308)" /></g></g></svg>
